<?xml version="1.0" encoding="utf-8" standalone="no"?>
<!DOCTYPE svg PUBLIC "-//W3C//DTD SVG 1.1//EN"
  "http://www.w3.org/Graphics/SVG/1.1/DTD/svg11.dtd">
<svg xmlns:xlink="http://www.w3.org/1999/xlink" width="381.29375pt" height="338.93125pt" viewBox="0 0 381.29375 338.93125" xmlns="http://www.w3.org/2000/svg" version="1.1">
 <metadata>
  <rdf:RDF xmlns:dc="http://purl.org/dc/elements/1.1/" xmlns:cc="http://creativecommons.org/ns#" xmlns:rdf="http://www.w3.org/1999/02/22-rdf-syntax-ns#">
   <cc:Work>
    <dc:type rdf:resource="http://purl.org/dc/dcmitype/StillImage"/>
    <dc:date>2025-01-21T20:41:58.646455</dc:date>
    <dc:format>image/svg+xml</dc:format>
    <dc:creator>
     <cc:Agent>
      <dc:title>Matplotlib v3.7.5, https://matplotlib.org/</dc:title>
     </cc:Agent>
    </dc:creator>
   </cc:Work>
  </rdf:RDF>
 </metadata>
 <defs>
  <style type="text/css">*{stroke-linejoin: round; stroke-linecap: butt}</style>
 </defs>
 <g id="figure_1">
  <g id="patch_1">
   <path d="M 0 338.93125 
L 381.29375 338.93125 
L 381.29375 0 
L 0 0 
z
" style="fill: #ffffff"/>
  </g>
  <g id="axes_1">
   <g id="patch_2">
    <path d="M 96.89375 284.4 
L 374.09375 284.4 
L 374.09375 7.2 
L 96.89375 7.2 
z
" style="fill: #ffffff"/>
   </g>
   <g id="QuadMesh_1">
    <path d="M 96.89375 7.2 
L 166.19375 7.2 
L 166.19375 76.5 
L 96.89375 76.5 
L 96.89375 7.2 
" clip-path="url(#pa09ebba3a6)" style="fill: #3f007d; stroke: #000000; stroke-width: 0.5"/>
    <path d="M 166.19375 7.2 
L 235.49375 7.2 
L 235.49375 76.5 
L 166.19375 76.5 
L 166.19375 7.2 
" clip-path="url(#pa09ebba3a6)" style="fill: #6950a3; stroke: #000000; stroke-width: 0.5"/>
    <path d="M 235.49375 7.2 
L 304.79375 7.2 
L 304.79375 76.5 
L 235.49375 76.5 
L 235.49375 7.2 
" clip-path="url(#pa09ebba3a6)" style="fill: #f1eff6; stroke: #000000; stroke-width: 0.5"/>
    <path d="M 304.79375 7.2 
L 374.09375 7.2 
L 374.09375 76.5 
L 304.79375 76.5 
L 304.79375 7.2 
" clip-path="url(#pa09ebba3a6)" style="fill: none; stroke: #000000; stroke-width: 0.5"/>
    <path d="M 96.89375 76.5 
L 166.19375 76.5 
L 166.19375 145.8 
L 96.89375 145.8 
L 96.89375 76.5 
" clip-path="url(#pa09ebba3a6)" style="fill: #705eaa; stroke: #000000; stroke-width: 0.5"/>
    <path d="M 166.19375 76.5 
L 235.49375 76.5 
L 235.49375 145.8 
L 166.19375 145.8 
L 166.19375 76.5 
" clip-path="url(#pa09ebba3a6)" style="fill: #593093; stroke: #000000; stroke-width: 0.5"/>
    <path d="M 235.49375 76.5 
L 304.79375 76.5 
L 304.79375 145.8 
L 235.49375 145.8 
L 235.49375 76.5 
" clip-path="url(#pa09ebba3a6)" style="fill: #dcdcec; stroke: #000000; stroke-width: 0.5"/>
    <path d="M 304.79375 76.5 
L 374.09375 76.5 
L 374.09375 145.8 
L 304.79375 145.8 
L 304.79375 76.5 
" clip-path="url(#pa09ebba3a6)" style="fill: #fcfbfd; stroke: #000000; stroke-width: 0.5"/>
    <path d="M 96.89375 145.8 
L 166.19375 145.8 
L 166.19375 215.1 
L 96.89375 215.1 
L 96.89375 145.8 
" clip-path="url(#pa09ebba3a6)" style="fill: #cacae3; stroke: #000000; stroke-width: 0.5"/>
    <path d="M 166.19375 145.8 
L 235.49375 145.8 
L 235.49375 215.1 
L 166.19375 215.1 
L 166.19375 145.8 
" clip-path="url(#pa09ebba3a6)" style="fill: #9e9ac8; stroke: #000000; stroke-width: 0.5"/>
    <path d="M 235.49375 145.8 
L 304.79375 145.8 
L 304.79375 215.1 
L 235.49375 215.1 
L 235.49375 145.8 
" clip-path="url(#pa09ebba3a6)" style="fill: #c0c1de; stroke: #000000; stroke-width: 0.5"/>
    <path d="M 304.79375 145.8 
L 374.09375 145.8 
L 374.09375 215.1 
L 304.79375 215.1 
L 304.79375 145.8 
" clip-path="url(#pa09ebba3a6)" style="fill: #fcfbfd; stroke: #000000; stroke-width: 0.5"/>
    <path d="M 96.89375 215.1 
L 166.19375 215.1 
L 166.19375 284.4 
L 96.89375 284.4 
L 96.89375 215.1 
" clip-path="url(#pa09ebba3a6)" style="fill: #fcfbfd; stroke: #000000; stroke-width: 0.5"/>
    <path d="M 166.19375 215.1 
L 235.49375 215.1 
L 235.49375 284.4 
L 166.19375 284.4 
L 166.19375 215.1 
" clip-path="url(#pa09ebba3a6)" style="fill: #cecee5; stroke: #000000; stroke-width: 0.5"/>
    <path d="M 235.49375 215.1 
L 304.79375 215.1 
L 304.79375 284.4 
L 235.49375 284.4 
L 235.49375 215.1 
" clip-path="url(#pa09ebba3a6)" style="fill: #d6d6e9; stroke: #000000; stroke-width: 0.5"/>
    <path d="M 304.79375 215.1 
L 374.09375 215.1 
L 374.09375 284.4 
L 304.79375 284.4 
L 304.79375 215.1 
" clip-path="url(#pa09ebba3a6)" style="fill: none; stroke: #000000; stroke-width: 0.5"/>
   </g>
   <g id="matplotlib.axis_1">
    <g id="xtick_1">
     <g id="line2d_1">
      <defs>
       <path id="m2b22ada312" d="M 0 0 
L 0 3.5 
" style="stroke: #000000; stroke-width: 0.8"/>
      </defs>
      <g>
       <use xlink:href="#m2b22ada312" x="131.54375" y="284.4" style="stroke: #000000; stroke-width: 0.8"/>
      </g>
     </g>
     <g id="text_1">
      <text style="font: 20px 'Times New Roman'; text-anchor: middle" x="131.54375" y="305.2875" transform="rotate(-0 131.54375 305.2875)">Level 4</text>
     </g>
    </g>
    <g id="xtick_2">
     <g id="line2d_2">
      <g>
       <use xlink:href="#m2b22ada312" x="200.84375" y="284.4" style="stroke: #000000; stroke-width: 0.8"/>
      </g>
     </g>
     <g id="text_2">
      <text style="font: 20px 'Times New Roman'; text-anchor: middle" x="200.84375" y="305.2875" transform="rotate(-0 200.84375 305.2875)">Level 3</text>
     </g>
    </g>
    <g id="xtick_3">
     <g id="line2d_3">
      <g>
       <use xlink:href="#m2b22ada312" x="270.14375" y="284.4" style="stroke: #000000; stroke-width: 0.8"/>
      </g>
     </g>
     <g id="text_3">
      <text style="font: 20px 'Times New Roman'; text-anchor: middle" x="270.14375" y="305.2875" transform="rotate(-0 270.14375 305.2875)">Level 2</text>
     </g>
    </g>
    <g id="xtick_4">
     <g id="line2d_4">
      <g>
       <use xlink:href="#m2b22ada312" x="339.44375" y="284.4" style="stroke: #000000; stroke-width: 0.8"/>
      </g>
     </g>
     <g id="text_4">
      <text style="font: 20px 'Times New Roman'; text-anchor: middle" x="339.44375" y="305.2875" transform="rotate(-0 339.44375 305.2875)">Level 1</text>
     </g>
    </g>
    <g id="text_5">
     <text style="font: 20px 'Times New Roman'; text-anchor: middle" x="235.49375" y="327.453125" transform="rotate(-0 235.49375 327.453125)">Pred Label</text>
    </g>
   </g>
   <g id="matplotlib.axis_2">
    <g id="ytick_1">
     <g id="line2d_5">
      <defs>
       <path id="m86483e94d9" d="M 0 0 
L -3.5 0 
" style="stroke: #000000; stroke-width: 0.8"/>
      </defs>
      <g>
       <use xlink:href="#m86483e94d9" x="96.89375" y="41.85" style="stroke: #000000; stroke-width: 0.8"/>
      </g>
     </g>
     <g id="text_6">
      <text style="font: 20px 'Times New Roman'; text-anchor: end" x="89.89375" y="46.654687" transform="rotate(-0 89.89375 46.654687)">Level 4</text>
     </g>
    </g>
    <g id="ytick_2">
     <g id="line2d_6">
      <g>
       <use xlink:href="#m86483e94d9" x="96.89375" y="111.15" style="stroke: #000000; stroke-width: 0.8"/>
      </g>
     </g>
     <g id="text_7">
      <text style="font: 20px 'Times New Roman'; text-anchor: end" x="89.89375" y="115.954688" transform="rotate(-0 89.89375 115.954688)">Level 3</text>
     </g>
    </g>
    <g id="ytick_3">
     <g id="line2d_7">
      <g>
       <use xlink:href="#m86483e94d9" x="96.89375" y="180.45" style="stroke: #000000; stroke-width: 0.8"/>
      </g>
     </g>
     <g id="text_8">
      <text style="font: 20px 'Times New Roman'; text-anchor: end" x="89.89375" y="185.254688" transform="rotate(-0 89.89375 185.254688)">Level 2</text>
     </g>
    </g>
    <g id="ytick_4">
     <g id="line2d_8">
      <g>
       <use xlink:href="#m86483e94d9" x="96.89375" y="249.75" style="stroke: #000000; stroke-width: 0.8"/>
      </g>
     </g>
     <g id="text_9">
      <text style="font: 20px 'Times New Roman'; text-anchor: end" x="89.89375" y="254.554688" transform="rotate(-0 89.89375 254.554688)">Level 1</text>
     </g>
    </g>
    <g id="text_10">
     <text style="font: 20px 'Times New Roman'; text-anchor: middle" x="21.0875" y="145.8" transform="rotate(-90 21.0875 145.8)">True Label</text>
    </g>
   </g>
   <g id="text_11">
    <text style="fill: #ffffff; font: 18px 'Times New Roman'; text-anchor: middle" x="131.54375" y="46.174219" transform="rotate(-0 131.54375 46.174219)">10771</text>
   </g>
   <g id="text_12">
    <text style="fill: #ffffff; font: 18px 'Times New Roman'; text-anchor: middle" x="200.84375" y="46.174219" transform="rotate(-0 200.84375 46.174219)">1294</text>
   </g>
   <g id="text_13">
    <text style="fill: #262626; font: 18px 'Times New Roman'; text-anchor: middle" x="270.14375" y="46.174219" transform="rotate(-0 270.14375 46.174219)">4</text>
   </g>
   <g id="text_14">
    <text style="fill: #ffffff; font: 18px 'Times New Roman'; text-anchor: middle" x="131.54375" y="115.474219" transform="rotate(-0 131.54375 115.474219)">906</text>
   </g>
   <g id="text_15">
    <text style="fill: #ffffff; font: 18px 'Times New Roman'; text-anchor: middle" x="200.84375" y="115.474219" transform="rotate(-0 200.84375 115.474219)">2862</text>
   </g>
   <g id="text_16">
    <text style="fill: #262626; font: 18px 'Times New Roman'; text-anchor: middle" x="270.14375" y="115.474219" transform="rotate(-0 270.14375 115.474219)">15</text>
   </g>
   <g id="text_17">
    <text style="fill: #262626; font: 18px 'Times New Roman'; text-anchor: middle" x="339.44375" y="115.474219" transform="rotate(-0 339.44375 115.474219)">1</text>
   </g>
   <g id="text_18">
    <text style="fill: #262626; font: 18px 'Times New Roman'; text-anchor: middle" x="131.54375" y="184.774219" transform="rotate(-0 131.54375 184.774219)">30</text>
   </g>
   <g id="text_19">
    <text style="fill: #ffffff; font: 18px 'Times New Roman'; text-anchor: middle" x="200.84375" y="184.774219" transform="rotate(-0 200.84375 184.774219)">148</text>
   </g>
   <g id="text_20">
    <text style="fill: #262626; font: 18px 'Times New Roman'; text-anchor: middle" x="270.14375" y="184.774219" transform="rotate(-0 270.14375 184.774219)">42</text>
   </g>
   <g id="text_21">
    <text style="fill: #262626; font: 18px 'Times New Roman'; text-anchor: middle" x="339.44375" y="184.774219" transform="rotate(-0 339.44375 184.774219)">1</text>
   </g>
   <g id="text_22">
    <text style="fill: #262626; font: 18px 'Times New Roman'; text-anchor: middle" x="131.54375" y="254.074219" transform="rotate(-0 131.54375 254.074219)">1</text>
   </g>
   <g id="text_23">
    <text style="fill: #262626; font: 18px 'Times New Roman'; text-anchor: middle" x="200.84375" y="254.074219" transform="rotate(-0 200.84375 254.074219)">26</text>
   </g>
   <g id="text_24">
    <text style="fill: #262626; font: 18px 'Times New Roman'; text-anchor: middle" x="270.14375" y="254.074219" transform="rotate(-0 270.14375 254.074219)">19</text>
   </g>
  </g>
 </g>
 <defs>
  <clipPath id="pa09ebba3a6">
   <rect x="96.89375" y="7.2" width="277.2" height="277.2"/>
  </clipPath>
 </defs>
</svg>
