<?xml version="1.0" encoding="utf-8" standalone="no"?>
<!DOCTYPE svg PUBLIC "-//W3C//DTD SVG 1.1//EN"
  "http://www.w3.org/Graphics/SVG/1.1/DTD/svg11.dtd">
<svg xmlns:xlink="http://www.w3.org/1999/xlink" width="330.299375pt" height="324.39875pt" viewBox="0 0 330.299375 324.39875" xmlns="http://www.w3.org/2000/svg" version="1.1">
 <metadata>
  <rdf:RDF xmlns:dc="http://purl.org/dc/elements/1.1/" xmlns:cc="http://creativecommons.org/ns#" xmlns:rdf="http://www.w3.org/1999/02/22-rdf-syntax-ns#">
   <cc:Work>
    <dc:type rdf:resource="http://purl.org/dc/dcmitype/StillImage"/>
    <dc:date>2025-01-21T20:41:58.542732</dc:date>
    <dc:format>image/svg+xml</dc:format>
    <dc:creator>
     <cc:Agent>
      <dc:title>Matplotlib v3.7.5, https://matplotlib.org/</dc:title>
     </cc:Agent>
    </dc:creator>
   </cc:Work>
  </rdf:RDF>
 </metadata>
 <defs>
  <style type="text/css">*{stroke-linejoin: round; stroke-linecap: butt}</style>
 </defs>
 <g id="figure_1">
  <g id="patch_1">
   <path d="M 0 324.39875 
L 330.299375 324.39875 
L 330.299375 0 
L 0 0 
z
" style="fill: #ffffff"/>
  </g>
  <g id="axes_1">
   <g id="patch_2">
    <path d="M 44.099375 284.4 
L 323.099375 284.4 
L 323.099375 7.2 
L 44.099375 7.2 
z
" style="fill: #ffffff"/>
   </g>
   <g id="matplotlib.axis_1">
    <g id="xtick_1">
     <g id="line2d_1">
      <defs>
       <path id="mc4ad922805" d="M 0 0 
L 0 3.5 
" style="stroke: #000000; stroke-width: 0.8"/>
      </defs>
      <g>
       <use xlink:href="#mc4ad922805" x="56.781193" y="284.4" style="stroke: #000000; stroke-width: 0.8"/>
      </g>
     </g>
     <g id="text_1">
      <text style="font: 12px 'Times New Roman'; text-anchor: middle" x="56.781193" y="299.7325" transform="rotate(-0 56.781193 299.7325)">0.0</text>
     </g>
    </g>
    <g id="xtick_2">
     <g id="line2d_2">
      <g>
       <use xlink:href="#mc4ad922805" x="107.508466" y="284.4" style="stroke: #000000; stroke-width: 0.8"/>
      </g>
     </g>
     <g id="text_2">
      <text style="font: 12px 'Times New Roman'; text-anchor: middle" x="107.508466" y="299.7325" transform="rotate(-0 107.508466 299.7325)">0.2</text>
     </g>
    </g>
    <g id="xtick_3">
     <g id="line2d_3">
      <g>
       <use xlink:href="#mc4ad922805" x="158.235739" y="284.4" style="stroke: #000000; stroke-width: 0.8"/>
      </g>
     </g>
     <g id="text_3">
      <text style="font: 12px 'Times New Roman'; text-anchor: middle" x="158.235739" y="299.7325" transform="rotate(-0 158.235739 299.7325)">0.4</text>
     </g>
    </g>
    <g id="xtick_4">
     <g id="line2d_4">
      <g>
       <use xlink:href="#mc4ad922805" x="208.963011" y="284.4" style="stroke: #000000; stroke-width: 0.8"/>
      </g>
     </g>
     <g id="text_4">
      <text style="font: 12px 'Times New Roman'; text-anchor: middle" x="208.963011" y="299.7325" transform="rotate(-0 208.963011 299.7325)">0.6</text>
     </g>
    </g>
    <g id="xtick_5">
     <g id="line2d_5">
      <g>
       <use xlink:href="#mc4ad922805" x="259.690284" y="284.4" style="stroke: #000000; stroke-width: 0.8"/>
      </g>
     </g>
     <g id="text_5">
      <text style="font: 12px 'Times New Roman'; text-anchor: middle" x="259.690284" y="299.7325" transform="rotate(-0 259.690284 299.7325)">0.8</text>
     </g>
    </g>
    <g id="xtick_6">
     <g id="line2d_6">
      <g>
       <use xlink:href="#mc4ad922805" x="310.417557" y="284.4" style="stroke: #000000; stroke-width: 0.8"/>
      </g>
     </g>
     <g id="text_6">
      <text style="font: 12px 'Times New Roman'; text-anchor: middle" x="310.417557" y="299.7325" transform="rotate(-0 310.417557 299.7325)">1.0</text>
     </g>
    </g>
    <g id="text_7">
     <text style="font: 12px 'Times New Roman'; text-anchor: middle" x="183.599375" y="314.631875" transform="rotate(-0 183.599375 314.631875)">Recall</text>
    </g>
   </g>
   <g id="matplotlib.axis_2">
    <g id="ytick_1">
     <g id="line2d_7">
      <defs>
       <path id="mdeceef77e0" d="M 0 0 
L -3.5 0 
" style="stroke: #000000; stroke-width: 0.8"/>
      </defs>
      <g>
       <use xlink:href="#mdeceef77e0" x="44.099375" y="271.8" style="stroke: #000000; stroke-width: 0.8"/>
      </g>
     </g>
     <g id="text_8">
      <text style="font: 12px 'Times New Roman'; text-anchor: end" x="37.099375" y="275.96625" transform="rotate(-0 37.099375 275.96625)">0.0</text>
     </g>
    </g>
    <g id="ytick_2">
     <g id="line2d_8">
      <g>
       <use xlink:href="#mdeceef77e0" x="44.099375" y="221.4" style="stroke: #000000; stroke-width: 0.8"/>
      </g>
     </g>
     <g id="text_9">
      <text style="font: 12px 'Times New Roman'; text-anchor: end" x="37.099375" y="225.56625" transform="rotate(-0 37.099375 225.56625)">0.2</text>
     </g>
    </g>
    <g id="ytick_3">
     <g id="line2d_9">
      <g>
       <use xlink:href="#mdeceef77e0" x="44.099375" y="171" style="stroke: #000000; stroke-width: 0.8"/>
      </g>
     </g>
     <g id="text_10">
      <text style="font: 12px 'Times New Roman'; text-anchor: end" x="37.099375" y="175.16625" transform="rotate(-0 37.099375 175.16625)">0.4</text>
     </g>
    </g>
    <g id="ytick_4">
     <g id="line2d_10">
      <g>
       <use xlink:href="#mdeceef77e0" x="44.099375" y="120.6" style="stroke: #000000; stroke-width: 0.8"/>
      </g>
     </g>
     <g id="text_11">
      <text style="font: 12px 'Times New Roman'; text-anchor: end" x="37.099375" y="124.76625" transform="rotate(-0 37.099375 124.76625)">0.6</text>
     </g>
    </g>
    <g id="ytick_5">
     <g id="line2d_11">
      <g>
       <use xlink:href="#mdeceef77e0" x="44.099375" y="70.2" style="stroke: #000000; stroke-width: 0.8"/>
      </g>
     </g>
     <g id="text_12">
      <text style="font: 12px 'Times New Roman'; text-anchor: end" x="37.099375" y="74.36625" transform="rotate(-0 37.099375 74.36625)">0.8</text>
     </g>
    </g>
    <g id="ytick_6">
     <g id="line2d_12">
      <g>
       <use xlink:href="#mdeceef77e0" x="44.099375" y="19.8" style="stroke: #000000; stroke-width: 0.8"/>
      </g>
     </g>
     <g id="text_13">
      <text style="font: 12px 'Times New Roman'; text-anchor: end" x="37.099375" y="23.96625" transform="rotate(-0 37.099375 23.96625)">1.0</text>
     </g>
    </g>
    <g id="text_14">
     <text style="font: 12px 'Times New Roman'; text-anchor: middle" x="15.5325" y="145.8" transform="rotate(-90 15.5325 145.8)">Precision</text>
    </g>
   </g>
   <g id="line2d_13">
    <path d="M 310.417557 83.128288 
L 310.312479 81.112676 
L 310.291464 81.116522 
L 310.291464 81.008812 
L 310.186386 79.798484 
L 310.123339 79.73703 
L 310.123339 79.700594 
L 310.018262 78.705761 
L 309.997246 78.709507 
L 309.997246 78.598931 
L 309.892169 77.889445 
L 309.808107 77.817518 
L 309.808107 77.792711 
L 309.703029 77.088906 
L 309.660998 77.033734 
L 309.660998 76.983681 
L 309.576936 76.345232 
L 309.55592 76.348878 
L 309.534905 76.352525 
L 309.534905 76.251642 
L 309.429827 75.839845 
L 309.387796 75.771007 
L 309.387796 75.745631 
L 309.282719 75.254722 
L 309.219672 75.163388 
L 309.114594 74.848623 
L 309.093579 74.852207 
L 309.093579 74.74959 
L 308.988501 74.446045 
L 308.967486 74.449612 
L 308.967486 74.346523 
L 308.862408 73.639518 
L 308.820377 73.568595 
L 308.820377 73.542587 
L 308.715299 72.999263 
L 308.673268 72.953917 
L 308.673268 72.901541 
L 308.568191 72.69607 
L 308.52616 72.597941 
L 308.421082 72.154109 
L 308.400066 72.157573 
L 308.400066 72.051837 
L 308.294989 71.618399 
L 308.231942 71.522351 
L 308.14788 71.109408 
L 308.126865 71.112825 
L 308.105849 71.116242 
L 308.105849 71.009274 
L 308.000772 70.879037 
L 307.937725 70.822222 
L 307.937725 70.781978 
L 307.853663 70.567195 
L 307.832647 70.570588 
L 307.769601 70.567317 
L 307.769601 70.473089 
L 307.664523 70.260776 
L 307.643508 70.264157 
L 307.643508 70.15608 
L 307.559446 69.681705 
L 307.53843 69.685057 
L 307.454368 69.60331 
L 307.454368 69.589707 
L 307.34929 69.129106 
L 307.328275 69.132434 
L 307.328275 69.023002 
L 307.244213 68.734686 
L 307.223197 68.737994 
L 307.160151 68.692978 
L 307.160151 68.638002 
L 307.097104 68.592905 
L 307.055073 68.599512 
L 306.992026 68.526829 
L 306.992026 68.499282 
L 306.886949 68.212192 
L 306.802887 68.114695 
L 306.718825 67.92 
L 306.697809 67.923274 
L 306.592731 67.856373 
L 306.592731 67.828599 
L 306.487654 67.747663 
L 306.340545 67.673124 
L 306.340545 67.659199 
L 306.235467 67.368617 
L 306.151405 67.269767 
L 306.046328 66.977688 
L 305.962266 66.906357 
L 305.962266 66.878253 
L 305.857188 66.669231 
L 305.689064 66.596287 
L 305.583986 66.38634 
L 305.541955 66.307853 
L 305.541955 66.293696 
L 305.436878 65.784385 
L 305.3318 65.714811 
L 305.3318 65.70056 
L 305.226722 65.51666 
L 305.14266 65.472163 
L 305.14266 65.42927 
L 305.037583 65.000695 
L 304.764381 64.955259 
L 304.764381 64.94087 
L 304.680319 64.823813 
L 304.659303 64.826948 
L 304.512194 64.747933 
L 304.407117 64.488962 
L 304.34407 64.411429 
L 304.34407 64.39694 
L 304.260008 64.206296 
L 304.238993 64.209403 
L 304.196962 64.157503 
L 304.196962 64.113896 
L 304.091884 63.896467 
L 304.070868 63.899558 
L 304.070868 63.797475 
L 303.986806 63.649168 
L 303.965791 63.652247 
L 303.818682 63.571404 
L 303.713605 63.205424 
L 303.650558 63.126378 
L 303.650558 63.111667 
L 303.566496 63.006096 
L 303.54548 63.009145 
L 303.419387 62.924232 
L 303.31431 62.732673 
L 303.167201 62.665152 
L 303.167201 62.650347 
L 303.062123 62.339187 
L 302.957046 62.265077 
L 302.957046 62.250202 
L 302.851968 61.907554 
L 302.767906 61.81495 
L 302.683844 61.602395 
L 302.662828 61.605375 
L 302.557751 61.545309 
L 302.557751 61.515305 
L 302.452673 61.364969 
L 302.368611 61.286597 
L 302.368611 61.271547 
L 302.263533 60.924436 
L 302.116425 60.854353 
L 302.116425 60.839226 
L 302.011347 60.550862 
L 301.9483 60.514101 
L 301.9483 60.453343 
L 301.843223 60.224509 
L 301.780176 60.141787 
L 301.780176 60.126536 
L 301.696114 60.031324 
L 301.675099 60.034225 
L 301.591037 60.01528 
L 301.591037 59.938857 
L 301.485959 59.784971 
L 301.317835 59.731438 
L 301.317835 59.700759 
L 301.233773 59.51263 
L 301.212757 59.515507 
L 301.044633 59.4308 
L 300.960571 59.164706 
L 300.939555 59.167565 
L 300.7294 59.087958 
L 300.687369 58.985331 
L 300.624322 58.993886 
L 300.456198 58.908197 
L 300.351121 58.627239 
L 300.246043 58.547991 
L 300.246043 58.532413 
L 300.161981 58.481383 
L 300.140965 58.484211 
L 300.098934 58.396255 
L 300.098934 58.380645 
L 299.993857 58.066325 
L 299.846748 57.991901 
L 299.846748 57.976216 
L 299.762686 57.877533 
L 299.74167 57.880329 
L 299.636593 57.831447 
L 299.636593 57.784273 
L 299.531515 57.372597 
L 299.447453 57.304644 
L 299.447453 57.273017 
L 299.363391 56.935471 
L 299.342375 56.938214 
L 299.258313 56.838001 
L 299.153236 56.533279 
L 299.111205 56.506824 
L 299.111205 56.427038 
L 299.027143 56.23013 
L 299.006127 56.232834 
L 298.943081 56.144894 
L 298.880034 55.590869 
L 298.838003 55.596201 
L 298.71191 55.531624 
L 298.71191 55.5155 
L 298.606832 55.318925 
L 298.52277 55.264854 
L 298.52277 55.232499 
L 298.438708 54.967614 
L 298.417692 54.970246 
L 298.270584 54.939969 
L 298.270584 54.891236 
L 298.165506 54.595137 
L 298.081444 54.572973 
L 298.081444 54.50772 
L 297.997382 54.338456 
L 297.976366 54.341053 
L 297.871289 54.288601 
L 297.871289 54.255866 
L 297.829258 54.113601 
L 297.766211 54.121356 
L 297.598087 54.125645 
L 297.598087 54.043571 
L 297.514025 53.708432 
L 297.493009 53.710994 
L 297.408947 53.622306 
L 297.30387 53.486473 
L 297.198792 53.416544 
L 297.198792 53.4 
L 297.093714 53.114411 
L 296.967621 53.029928 
L 296.883559 52.890328 
L 296.862544 52.892845 
L 296.73645 52.824658 
L 296.73645 52.807991 
L 296.673404 52.648697 
L 296.631373 52.653703 
L 296.568326 52.594389 
L 296.568326 52.560961 
L 296.463249 52.322337 
L 296.31614 52.239077 
L 296.253093 52.078522 
L 296.211062 52.083462 
L 296.021923 52.00472 
L 295.916845 51.780971 
L 295.769736 51.696774 
L 295.664659 51.624443 
L 295.580597 51.532615 
L 295.51755 51.438211 
L 295.475519 51.443083 
L 295.286379 51.363126 
L 295.181302 51.256257 
L 295.118255 51.161383 
L 295.013177 51.054153 
L 294.845053 50.971037 
L 294.760991 50.86101 
L 294.739976 50.863415 
L 294.613882 50.79225 
L 294.613882 50.775122 
L 294.508805 50.581313 
L 294.361696 50.494943 
L 294.277634 50.297939 
L 294.256619 50.300311 
L 294.10951 50.230707 
L 294.10951 50.213455 
L 294.025448 50.171144 
L 294.004432 50.17351 
L 293.794277 50.110764 
L 293.794277 50.093471 
L 293.689199 49.949473 
L 293.647168 49.867511 
L 293.647168 49.850168 
L 293.542091 49.775131 
L 293.352951 49.70934 
L 293.352951 49.691951 
L 293.247873 49.599232 
L 293.100765 49.528449 
L 293.100765 49.511013 
L 293.016703 49.380716 
L 292.995687 49.383039 
L 292.890609 49.324752 
L 292.890609 49.289783 
L 292.827563 49.191742 
L 292.785532 49.196366 
L 292.554361 49.116635 
L 292.51233 48.998392 
L 292.449283 49.005298 
L 292.302175 48.968692 
L 292.302175 48.915934 
L 292.197097 48.78657 
L 291.944911 48.725876 
L 291.944911 48.708228 
L 291.839833 48.472213 
L 291.755771 48.375054 
L 291.671709 48.26 
L 291.650694 48.262259 
L 291.419523 48.180544 
L 291.335461 48.118435 
L 291.314445 48.120687 
L 291.209368 48.025123 
L 291.10429 47.875869 
L 291.041243 47.846879 
L 291.041243 47.775437 
L 290.936166 47.536102 
L 290.620933 47.461733 
L 290.515855 47.311093 
L 290.389762 47.216339 
L 290.3057 46.864343 
L 290.284684 46.866517 
L 290.11656 46.77539 
L 290.011483 46.568785 
L 289.927421 46.504811 
L 289.927421 46.468494 
L 289.864374 46.311335 
L 289.822343 46.315614 
L 289.633203 46.243816 
L 289.633203 46.225594 
L 289.570157 46.086084 
L 289.528126 46.090336 
L 289.423048 45.991355 
L 289.360001 45.887971 
L 289.31797 45.892198 
L 289.191877 45.794972 
L 289.0868 45.62202 
L 288.981722 45.558999 
L 288.981722 45.522227 
L 288.89766 45.420171 
L 288.876644 45.422255 
L 288.645474 45.334577 
L 288.540396 44.901241 
L 288.372272 44.824928 
L 288.372272 44.806376 
L 287.195402 43.74156 
L 287.090325 43.581836 
L 286.859154 43.509061 
L 286.754076 43.310813 
L 286.733061 43.312761 
L 286.733061 43.218055 
L 286.627983 42.943071 
L 286.543921 42.855676 
L 286.50189 42.802411 
L 286.438844 42.808149 
L 286.144626 42.739619 
L 286.08158 42.649904 
L 286.039549 42.653713 
L 285.871424 42.611614 
L 285.871424 42.573364 
L 285.766347 42.391361 
L 285.640254 42.325964 
L 285.577207 42.235612 
L 285.535176 42.239367 
L 285.325021 42.161991 
L 285.261974 41.87855 
L 285.219943 41.882256 
L 285.114865 41.833597 
L 285.114865 41.79496 
L 285.051819 41.665142 
L 285.009788 41.668819 
L 284.883695 41.641131 
L 284.883695 41.583015 
L 284.799633 41.473995 
L 284.778617 41.475821 
L 284.610493 41.39332 
L 284.505415 41.20787 
L 284.379322 41.121275 
L 284.274245 40.876441 
L 283.832918 40.835629 
L 283.832918 40.816035 
L 283.790887 40.662698 
L 283.727841 40.668014 
L 283.664794 40.634056 
L 283.664794 40.575115 
L 283.559717 40.485607 
L 283.49667 40.392441 
L 283.391592 40.342078 
L 283.265499 40.253918 
L 283.202453 40.18014 
L 283.160422 40.183618 
L 283.097375 40.169068 
L 283.097375 40.089959 
L 282.992298 39.940183 
L 282.782142 39.858199 
L 282.69808 39.765739 
L 282.677065 39.767449 
L 282.614018 39.673136 
L 282.50894 39.522303 
L 282.382847 39.472621 
L 282.382847 39.432709 
L 282.319801 39.377862 
L 282.27777 39.381227 
L 282.08863 39.316393 
L 282.08863 39.296386 
L 282.025583 39.221338 
L 281.983552 39.224683 
L 281.836444 39.156207 
L 281.836444 39.13615 
L 281.731366 38.863212 
L 281.542226 38.777347 
L 281.437149 38.644383 
L 281.269025 38.556434 
L 281.184962 38.421336 
L 281.163947 38.422951 
L 280.932776 38.359666 
L 280.932776 38.33939 
L 280.827699 38.225665 
L 280.764652 38.210158 
L 280.764652 38.128867 
L 280.659574 37.933287 
L 280.512466 37.903575 
L 280.512466 37.842382 
L 280.407388 37.727723 
L 280.197233 37.641098 
L 280.092155 37.505486 
L 279.882 37.418363 
L 279.882 37.315646 
L 279.776922 37.323325 
L 279.671845 37.22812 
L 279.608798 37.170917 
L 279.566767 37.173968 
L 279.335596 37.087599 
L 279.230519 36.867818 
L 279.020363 36.779275 
L 278.915286 36.6 
L 278.747162 36.507921 
L 278.726146 36.342865 
L 278.642084 36.348721 
L 278.600053 36.247396 
L 278.200758 36.024136 
L 277.948572 35.936606 
L 277.86451 35.816379 
L 277.843494 35.817805 
L 277.759432 35.760449 
L 277.759432 35.718389 
L 277.67537 35.597753 
L 277.654354 35.599162 
L 277.48623 35.505 
L 277.402168 35.362785 
L 277.381153 35.364176 
L 277.213028 35.26953 
L 277.149982 35.231334 
L 277.107951 35.234097 
L 276.87678 35.143257 
L 276.771702 35.065189 
L 276.372407 34.984819 
L 276.288345 34.92635 
L 276.26733 34.927711 
L 275.910066 34.886827 
L 275.910066 34.844098 
L 275.804988 34.722549 
L 275.594833 34.650325 
L 275.594833 34.628889 
L 275.552802 34.524313 
L 275.489755 34.528309 
L 275.258585 34.457003 
L 275.258585 34.435499 
L 275.258585 34.413991 
L 275.153507 34.420615 
L 275.09046 34.36 
L 275.09046 34.316919 
L 275.006398 34.214382 
L 274.985383 34.215691 
L 274.838274 34.11688 
L 274.733196 34.0369 
L 274.649134 33.955499 
L 274.649134 33.933843 
L 274.628119 33.891803 
L 274.544057 33.896939 
L 274.396948 33.797446 
L 274.312886 33.715663 
L 274.29187 33.716933 
L 274.186793 33.679795 
L 274.186793 33.614527 
L 274.081715 33.490141 
L 273.787498 33.398534 
L 273.724451 33.35857 
L 273.68242 33.361056 
L 273.409218 33.267769 
L 273.367187 33.204502 
L 273.304141 33.208197 
L 273.051954 33.113208 
L 272.988908 33.072928 
L 272.946877 33.075373 
L 272.610628 32.98483 
L 272.505551 32.880632 
L 272.295396 32.782242 
L 272.295396 32.760133 
L 272.190318 32.76613 
L 271.896101 32.694327 
L 271.896101 32.672161 
L 271.791023 32.544989 
L 271.202588 32.466853 
L 271.097511 32.36126 
L 270.761262 32.290619 
L 270.656185 32.251709 
L 270.509076 32.170266 
L 270.446029 32.128906 
L 270.403998 32.131213 
L 270.172828 32.054099 
L 270.088766 31.856285 
L 270.06775 31.857416 
L 269.500331 31.797742 
L 269.479315 31.753694 
L 269.395253 31.758196 
L 269.26916 31.67447 
L 269.164082 31.453454 
L 268.827834 31.402912 
L 268.827834 31.380182 
L 268.722756 31.340165 
L 268.533617 31.304452 
L 268.533617 31.258886 
L 268.428539 31.218713 
L 268.302446 31.133903 
L 268.197368 31.070725 
L 268.029244 31.010646 
L 268.029244 30.987755 
L 267.987213 30.94408 
L 267.924167 30.94726 
L 267.714011 30.889056 
L 267.714011 30.866108 
L 267.629949 30.8244 
L 267.608934 30.82545 
L 267.419794 30.742928 
L 267.314716 30.656051 
L 267.188623 30.570054 
L 267.083546 30.505961 
L 266.831359 30.448908 
L 266.831359 30.425779 
L 266.747297 30.290935 
L 266.726282 30.291942 
L 266.474095 30.211222 
L 266.390033 30.145544 
L 266.369018 30.146538 
L 266.26394 30.105013 
L 266.26394 30.058493 
L 266.200894 29.991623 
L 266.158862 29.993586 
L 266.0748 29.904289 
L 265.969723 29.839163 
L 265.759568 29.755375 
L 265.696521 29.688084 
L 265.65449 29.689995 
L 265.381288 29.632123 
L 265.381288 29.608675 
L 265.339257 29.540192 
L 265.27621 29.543023 
L 264.981993 29.485723 
L 264.981993 29.462202 
L 264.918947 29.417947 
L 264.876916 29.419815 
L 264.792853 29.352877 
L 264.792853 29.329309 
L 264.687776 29.23958 
L 264.288481 29.162457 
L 264.183403 29.119672 
L 263.805124 29.04115 
L 263.742077 28.925073 
L 263.700046 28.92686 
L 263.25872 28.850339 
L 263.25872 28.826497 
L 263.153643 28.830928 
L 262.313022 28.770713 
L 262.228959 28.702309 
L 262.207944 28.703188 
L 261.724587 28.627231 
L 261.682556 28.580835 
L 261.640525 28.582574 
L 261.283261 28.500863 
L 261.283261 28.476722 
L 261.178183 28.481028 
L 260.841935 28.42224 
L 260.841935 28.39803 
L 260.736857 28.329617 
L 260.484671 28.242716 
L 260.484671 28.218428 
L 260.379593 28.222628 
L 259.938267 28.142869 
L 259.875221 28.072218 
L 259.83319 28.073874 
L 259.602019 27.985263 
L 259.517957 27.939633 
L 259.496941 27.940449 
L 259.370848 27.847399 
L 259.26577 27.802412 
L 258.908507 27.717825 
L 258.803429 27.623405 
L 258.362103 27.54131 
L 258.362103 27.516625 
L 258.278041 27.519745 
L 258.067886 27.428632 
L 257.983824 27.357447 
L 257.962808 27.358213 
L 257.62656 27.296041 
L 257.62656 27.271215 
L 257.584529 27.173362 
L 257.521482 27.17561 
L 257.185234 27.087984 
L 257.185234 27.063061 
L 257.080156 27.066762 
L 256.533752 26.986018 
L 256.44969 26.938883 
L 256.428675 26.939613 
L 255.630085 26.766191 
L 254.957588 26.688087 
L 254.957588 26.662802 
L 254.85251 26.666343 
L 254.285091 26.584013 
L 254.285091 26.558621 
L 254.180014 26.562122 
L 253.948843 26.46805 
L 253.948843 26.44259 
L 253.843765 26.446039 
L 253.675641 26.426065 
L 253.675641 26.349537 
L 253.675641 26.324017 
L 253.570563 26.327411 
L 252.246585 26.26763 
L 252.099477 26.246635 
L 251.700182 26.15628 
L 251.700182 26.13046 
L 251.595104 26.133789 
L 250.62839 26.060704 
L 250.62839 26.034722 
L 250.523312 26.03802 
L 249.535583 25.964646 
L 249.430505 25.915593 
L 248.337698 25.84433 
L 248.23262 25.768492 
L 246.21513 25.723952 
L 246.21513 25.697291 
L 246.110052 25.700488 
L 245.122323 25.623414 
L 245.101307 25.570363 
L 245.03826 25.572251 
L 243.693267 25.504615 
L 243.651236 25.451715 
L 243.588189 25.45358 
L 243.041786 25.361072 
L 242.999755 25.307893 
L 242.936708 25.309717 
L 241.969994 25.228381 
L 241.969994 25.200999 
L 241.864916 25.204 
L 240.940233 25.120375 
L 240.940233 25.092816 
L 240.835156 25.095775 
L 239.952504 25.037614 
L 239.952504 25.009888 
L 239.952504 24.954417 
L 239.847426 24.957315 
L 239.237976 24.890622 
L 239.090867 24.866757 
L 237.871967 24.815924 
L 237.871967 24.787828 
L 237.766889 24.790667 
L 236.547989 24.738911 
L 236.547989 24.682265 
L 236.463927 24.684505 
L 235.665337 24.620466 
L 235.665337 24.563485 
L 235.560259 24.566232 
L 235.139949 24.491489 
L 235.139949 24.462889 
L 235.034871 24.465587 
L 234.257296 24.399395 
L 234.173234 24.343974 
L 234.152219 24.344503 
L 232.954334 24.287873 
L 232.849256 24.174384 
L 232.470977 24.096296 
L 232.40793 24.039529 
L 232.365899 24.040527 
L 231.756449 23.967257 
L 231.756449 23.93798 
L 231.651371 23.940426 
L 230.243331 23.884863 
L 230.180285 23.827191 
L 230.138254 23.828152 
L 229.886067 23.745029 
L 229.886067 23.715382 
L 229.78099 23.717723 
L 228.709198 23.652191 
L 228.60412 23.564819 
L 227.784515 23.492419 
L 227.721468 23.373385 
L 227.679437 23.374251 
L 226.418506 23.309406 
L 226.418506 23.279047 
L 226.313428 23.281174 
L 225.746009 23.201227 
L 225.746009 23.17072 
L 225.640932 23.17279 
L 224.148829 23.110037 
L 224.148829 23.079217 
L 224.043752 23.08125 
L 223.413286 23.000598 
L 223.413286 22.969614 
L 223.308208 22.971589 
L 222.761805 22.888544 
L 222.761805 22.857411 
L 222.656727 22.859324 
L 221.690013 22.783 
L 221.668997 22.720635 
L 221.584935 22.722107 
L 219.840647 22.657798 
L 219.819631 22.562876 
L 219.735569 22.564286 
L 217.94925 22.498142 
L 217.94925 22.465979 
L 217.844172 22.467699 
L 217.15066 22.414447 
L 217.15066 22.382101 
L 217.15066 22.349747 
L 217.045582 22.351402 
L 214.775905 22.289135 
L 214.712859 22.224354 
L 214.670828 22.224993 
L 214.187471 22.166354 
L 214.187471 22.133333 
L 214.040362 22.069368 
L 209.816242 22.029481 
L 209.816242 21.995481 
L 209.711164 21.996976 
L 208.513279 21.911248 
L 208.513279 21.876923 
L 208.408202 21.878351 
L 207.000161 21.793616 
L 206.979146 21.724465 
L 206.895084 21.725535 
L 204.079003 21.655828 
L 204.079003 21.620397 
L 203.973926 21.621687 
L 201.241908 21.547472 
L 201.241908 21.511313 
L 201.13683 21.512551 
L 199.392542 21.423426 
L 199.392542 21.386762 
L 199.287464 21.387925 
L 197.795362 21.293333 
L 195.861933 21.238702 
L 195.861933 21.201052 
L 195.756856 21.202105 
L 192.205232 21.161321 
L 192.205232 21.12263 
L 192.100155 21.123652 
L 187.51877 21.089621 
L 187.51877 21.04952 
L 187.413693 21.05052 
L 184.807768 20.993923 
L 184.807768 20.911946 
L 184.744721 20.912492 
L 184.114255 20.876746 
L 184.114255 20.835503 
L 184.114255 20.794246 
L 184.030193 20.7949 
L 178.839359 20.750943 
L 178.713266 20.70881 
L 176.548667 20.637356 
L 176.548667 20.593423 
L 176.443589 20.594118 
L 175.560937 20.555689 
L 175.560937 20.511362 
L 175.560937 20.46702 
L 175.455859 20.467609 
L 170.622289 20.403315 
L 170.622289 20.357009 
L 170.517211 20.357522 
L 166.461215 20.281928 
L 166.461215 20.233818 
L 166.356137 20.234233 
L 138.384474 20.25347 
L 138.384474 20.188789 
L 138.342443 20.188989 
L 110.454842 20.29238 
L 109.824377 20.198734 
L 91.456808 20.25735 
L 91.12056 20.108068 
L 75.884305 20.353238 
L 72.795023 20.459686 
L 72.66893 20.132893 
L 65.712791 20.391549 
L 62.644524 20.7 
L 60.963283 21.06 
L 59.786413 21.55 
L 59.092901 22.07027 
L 58.567513 22.730233 
L 58.147202 23.618182 
L 57.958063 24.221053 
L 57.495721 27 
L 57.390643 28.2 
L 57.180488 32.4 
L 56.991348 42.709091 
L 56.781193 19.8 
L 56.781193 19.8 
" clip-path="url(#p6ee1cb029c)" style="fill: none; stroke: #1f77b4; stroke-width: 2; stroke-linecap: square"/>
   </g>
   <g id="line2d_14">
    <path d="M 310.417557 212.645658 
L 310.350528 206.771623 
L 310.2835 206.677759 
L 310.216471 200.30514 
L 310.149442 200.189716 
L 310.082414 196.471096 
L 310.015385 196.395596 
L 309.948356 188.651227 
L 309.881328 188.665979 
L 309.881328 188.556889 
L 309.814299 184.324138 
L 309.74727 184.339268 
L 309.74727 184.226519 
L 309.680242 182.90733 
L 309.613213 182.922581 
L 309.613213 182.814417 
L 309.546185 182.604205 
L 309.479156 182.619487 
L 309.479156 182.510526 
L 309.412127 181.550285 
L 309.345099 181.565656 
L 309.345099 181.454044 
L 309.27807 181.348928 
L 309.211041 181.364322 
L 309.211041 181.252152 
L 309.144013 180.421786 
L 309.076984 180.437257 
L 309.076984 180.331533 
L 309.009955 178.484117 
L 308.942927 178.499734 
L 308.942927 178.389418 
L 308.875898 176.81383 
L 308.741841 176.778634 
L 308.741841 176.740492 
L 308.674812 176.746703 
L 308.674812 176.64164 
L 308.473726 176.583659 
L 308.406698 175.317797 
L 308.339669 175.33366 
L 308.339669 175.225304 
L 308.27264 174.954358 
L 308.205612 174.970252 
L 308.205612 174.861019 
L 308.138583 173.321467 
L 308.071555 173.337467 
L 308.071555 173.224457 
L 308.004526 171.895621 
L 307.937497 171.911711 
L 307.937497 171.80593 
L 307.870469 171.053789 
L 307.80344 171.069933 
L 307.80344 170.962304 
L 307.80344 170.681389 
L 307.736411 170.697557 
L 307.669383 170.713728 
L 307.669383 170.605278 
L 307.602354 170.196294 
L 307.535325 170.2125 
L 307.535325 170.102913 
L 307.535325 169.783768 
L 307.468297 169.78896 
L 307.401268 169.805196 
L 307.401268 169.694668 
L 307.33424 169.511369 
L 307.267211 169.527628 
L 307.267211 169.416438 
L 307.200182 169.064077 
L 307.133154 169.080367 
L 307.133154 168.968142 
L 307.066125 167.883048 
L 306.999096 167.899404 
L 306.999096 167.79602 
L 306.932068 166.118013 
L 306.730982 166.06038 
L 306.730982 166.024674 
L 306.663953 166.029228 
L 306.663953 165.874191 
L 306.596924 165.890663 
L 306.596924 165.783068 
L 306.529896 165.475461 
L 306.462867 165.491959 
L 306.462867 165.383494 
L 306.395839 165.13394 
L 306.32881 165.15046 
L 306.32881 165.041238 
L 306.32881 165.004781 
L 306.261781 165.009154 
L 306.127724 164.957055 
L 306.127724 164.932695 
L 306.060695 164.237966 
L 305.926638 164.234084 
L 305.926638 164.159917 
L 305.859609 163.504406 
L 305.792581 163.521027 
L 305.792581 163.408197 
L 305.725552 161.910602 
L 305.658524 161.92729 
L 305.658524 161.823977 
L 305.591495 161.750118 
L 305.457438 161.744673 
L 305.457438 161.679859 
L 305.390409 161.332207 
L 305.256352 161.313424 
L 305.256352 161.261129 
L 305.256352 160.840979 
L 305.189323 160.857733 
L 305.122294 160.874492 
L 305.122294 160.768962 
L 305.055266 160.613818 
L 304.988237 160.497996 
L 304.921209 159.833605 
L 304.787151 159.813452 
L 304.787151 159.759625 
L 304.720123 159.493012 
L 304.586065 159.486076 
L 304.586065 159.418335 
L 304.586065 159.282609 
L 304.519037 159.299456 
L 304.452008 159.316308 
L 304.452008 159.207497 
L 304.384979 158.93773 
L 304.317951 158.954602 
L 304.317951 158.84503 
L 304.250922 157.96371 
L 304.183894 157.980617 
L 304.183894 157.869084 
L 304.183894 157.659369 
L 304.116865 157.676289 
L 303.915779 157.628951 
L 303.915779 157.61492 
L 303.84875 157.279965 
L 303.781722 157.296917 
L 303.781722 157.198001 
L 303.714693 156.41745 
L 303.580636 156.422731 
L 303.580636 156.350952 
L 303.513607 156.022167 
L 303.446579 156.039171 
L 303.446579 155.937931 
L 303.37955 155.650163 
L 303.312521 155.667185 
L 303.312521 155.565237 
L 303.312521 155.550658 
L 303.245493 155.567687 
L 303.245493 155.553105 
L 303.111435 155.57259 
L 303.111435 155.485004 
L 303.044407 155.03269 
L 302.977378 155.049748 
L 302.977378 154.946572 
L 302.910349 154.236285 
L 302.642235 154.170069 
L 302.642235 154.140122 
L 302.575206 154.142246 
L 302.575206 153.856924 
L 302.441149 153.845977 
L 302.441149 153.785689 
L 302.37412 153.576184 
L 302.307092 153.593315 
L 302.307092 153.48726 
L 302.240063 153.291717 
L 302.173034 153.308862 
L 302.173034 153.202237 
L 302.106006 152.94433 
L 301.971949 152.902025 
L 301.971949 152.871346 
L 301.90492 152.796384 
L 301.703834 152.771044 
L 301.703834 152.740264 
L 301.636805 152.340358 
L 301.569777 152.35756 
L 301.569777 152.248948 
L 301.502748 151.970357 
L 301.435719 151.987573 
L 301.435719 151.878227 
L 301.435719 151.86259 
L 301.368691 151.879812 
L 301.368691 151.864171 
L 301.301662 151.865753 
L 301.301662 151.756124 
L 301.301662 151.709079 
L 301.234634 151.710623 
L 301.167605 151.727862 
L 301.167605 151.61792 
L 301.100576 151.288323 
L 301.033548 151.305577 
L 301.033548 151.194799 
L 300.966519 150.671091 
L 300.832462 150.625674 
L 300.832462 150.593659 
L 300.765433 150.498757 
L 300.698404 150.516043 
L 300.698404 150.403654 
L 300.631376 150.098686 
L 300.363261 150.135592 
L 300.363261 150.054719 
L 300.296233 149.861268 
L 300.095147 149.864516 
L 300.095147 149.799467 
L 300.028118 149.408672 
L 299.894061 149.410605 
L 299.894061 149.328608 
L 299.827032 149.016877 
L 299.625946 149.019473 
L 299.625946 148.969918 
L 299.625946 148.936859 
L 299.558918 148.937704 
L 299.491889 148.955089 
L 299.491889 148.85578 
L 299.42486 148.7073 
L 299.357832 148.724696 
L 299.357832 148.624959 
L 299.290803 148.225047 
L 299.156746 148.243119 
L 299.156746 148.159294 
L 299.089717 148.008724 
L 298.95566 147.993092 
L 298.95566 147.942566 
L 298.888631 147.943149 
L 298.888631 147.909432 
L 298.821603 147.926872 
L 298.821603 147.825613 
L 298.754574 147.572224 
L 298.687545 147.572709 
L 298.687545 147.470813 
L 298.687545 147.283571 
L 298.620517 147.283977 
L 298.486459 147.233585 
L 298.486459 147.216507 
L 298.486459 146.66753 
L 298.419431 146.667769 
L 298.352402 146.547207 
L 298.285373 145.695 
L 298.218345 145.712488 
L 298.218345 145.607313 
L 298.151316 145.431528 
L 298.084288 145.325721 
L 298.017259 145.060481 
L 297.883202 145.006882 
L 297.883202 144.989144 
L 297.883202 144.847059 
L 297.682116 144.846257 
L 297.682116 144.792848 
L 297.615087 144.399409 
L 297.414001 144.362333 
L 297.414001 144.344379 
L 297.346973 143.839049 
L 297.212915 143.801699 
L 297.212915 143.765439 
L 297.145887 143.328007 
L 297.078858 143.345571 
L 297.078858 143.23589 
L 297.011829 142.996805 
L 296.944801 143.014377 
L 296.944801 142.904069 
L 296.877772 142.125528 
L 296.743715 142.067472 
L 296.743715 142.048813 
L 296.676686 141.898228 
L 296.609658 141.915817 
L 296.609658 141.80346 
L 296.542629 141.633357 
L 296.4756 141.650953 
L 296.4756 141.575723 
L 296.408572 141.272617 
L 296.341543 141.290219 
L 296.341543 141.17665 
L 296.274514 140.757066 
L 296.207486 140.774672 
L 296.207486 140.66014 
L 296.140457 140.256074 
L 295.939371 139.942543 
L 295.872343 139.650044 
L 295.805314 139.667667 
L 295.805314 139.570453 
L 295.738285 139.217355 
L 295.671257 139.234982 
L 295.671257 139.137075 
L 295.604228 139.037025 
L 295.470171 139.072297 
L 295.470171 138.974067 
L 295.403142 138.55776 
L 295.336113 138.575401 
L 295.336113 138.476379 
L 295.269085 137.936757 
L 295.202056 137.954397 
L 295.202056 137.854393 
L 295.135028 137.611321 
L 295.067999 137.628965 
L 295.067999 137.528417 
L 295.00097 137.061321 
L 294.866913 137.07634 
L 294.866913 136.995181 
L 294.799884 136.564697 
L 294.732856 136.582346 
L 294.732856 136.480079 
L 294.665827 136.313256 
L 294.53177 136.266414 
L 294.53177 136.24586 
L 294.464741 135.643974 
L 294.397712 135.661628 
L 294.397712 135.557816 
L 294.330684 134.928276 
L 294.263655 134.945923 
L 294.263655 134.840957 
L 294.196627 134.627109 
L 294.062569 134.641328 
L 294.062569 134.556923 
L 293.995541 134.257125 
L 293.928512 134.27478 
L 293.928512 134.168632 
L 293.861483 133.866852 
L 293.660397 133.855762 
L 293.660397 133.813015 
L 293.593369 133.573638 
L 293.52634 133.591304 
L 293.52634 133.483916 
L 293.459312 133.070346 
L 293.191197 132.750563 
L 293.124168 132.65938 
L 293.05714 132.677056 
L 293.05714 132.589845 
L 292.990111 132.323323 
L 292.923082 132.340999 
L 292.923082 132.231379 
L 292.856054 132.095294 
L 292.520911 132.139742 
L 292.520911 132.073688 
L 292.453882 132.003219 
L 292.319825 131.928258 
L 292.252796 131.835415 
L 291.917653 131.813302 
L 291.850624 131.34164 
L 291.783596 131.359371 
L 291.783596 131.247661 
L 291.716567 131.198281 
L 291.515481 131.139496 
L 291.448452 130.820134 
L 291.314395 130.833094 
L 291.314395 130.742889 
L 291.247367 130.194217 
L 291.180338 130.211954 
L 291.180338 130.098119 
L 291.113309 130.047466 
L 290.845195 130.004318 
L 290.845195 129.958607 
L 290.778166 129.976366 
L 290.711137 129.994131 
L 290.711137 129.879716 
L 290.644109 129.691062 
L 290.57708 129.708826 
L 290.57708 129.593884 
L 290.510052 129.358113 
L 290.375994 129.301217 
L 290.308966 128.901562 
L 290.174908 128.913825 
L 290.174908 128.843988 
L 290.10788 128.745205 
L 290.040851 128.459039 
L 289.705708 128.501031 
L 289.705708 128.454117 
L 289.638679 128.283934 
L 289.504622 128.319515 
L 289.504622 128.248893 
L 289.437593 127.983492 
L 289.035422 127.995652 
L 288.968393 127.633526 
L 288.834336 127.64534 
L 288.834336 127.573847 
L 288.767307 127.496228 
L 288.566221 127.454133 
L 288.499192 127.160452 
L 288.298107 127.141865 
L 288.298107 127.117819 
L 288.298107 126.997471 
L 288.231078 127.015308 
L 288.029992 126.996536 
L 288.029992 126.972414 
L 287.962963 126.675939 
L 287.895935 126.693788 
L 287.895935 126.596791 
L 287.828906 126.32286 
L 287.694849 126.309804 
L 287.694849 126.261023 
L 287.62782 126.083412 
L 287.560791 126.101259 
L 287.560791 126.003327 
L 287.493763 125.972159 
L 287.292677 126.025736 
L 287.292677 125.927588 
L 287.225648 125.600877 
L 286.957534 125.573572 
L 286.890505 125.492542 
L 286.823476 125.510419 
L 286.823476 125.411374 
L 286.756448 125.255593 
L 286.354276 125.263497 
L 286.287247 125.057143 
L 286.220219 125.075047 
L 286.220219 124.975149 
L 286.15319 124.566946 
L 286.086161 124.584836 
L 286.086161 124.484211 
L 286.019133 123.996879 
L 285.818047 123.949038 
L 285.751018 123.839876 
L 285.616961 123.850215 
L 285.616961 123.773847 
L 285.549932 123.075117 
L 285.348846 123.051515 
L 285.348846 123.025762 
L 285.348846 122.974229 
L 285.281818 122.992101 
L 285.013703 122.960451 
L 284.946675 122.745613 
L 284.67856 122.739457 
L 284.67856 122.71352 
L 284.611531 122.106187 
L 284.477474 122.089612 
L 284.477474 122.037229 
L 284.477474 121.958586 
L 284.410446 121.976471 
L 284.20936 121.925153 
L 284.20936 121.898878 
L 284.142331 121.916781 
L 283.874216 121.935861 
L 283.874216 121.883231 
L 283.807188 121.690257 
L 283.270959 121.754537 
L 283.270959 121.728093 
L 283.20393 121.560678 
L 282.73473 121.580371 
L 282.667701 121.332247 
L 282.399586 121.324215 
L 282.399586 121.297516 
L 282.332558 121.262098 
L 282.265529 121.280114 
L 282.265529 121.173134 
L 282.198501 121.030386 
L 281.863357 121.013115 
L 281.863357 120.932466 
L 281.796329 120.950499 
L 281.595243 120.923884 
L 281.595243 120.896947 
L 281.528214 120.780161 
L 281.126042 120.780483 
L 281.126042 120.699319 
L 281.059014 120.717398 
L 280.857928 120.690404 
L 280.857928 120.663294 
L 280.790899 120.300809 
L 280.589813 120.245965 
L 280.522785 120.18212 
L 280.321699 120.181743 
L 280.321699 120.127017 
L 280.25467 120.062958 
L 279.986555 120.025719 
L 279.919527 119.878957 
L 279.718441 119.878303 
L 279.316269 119.876993 
L 279.24924 119.757099 
L 279.048155 119.756332 
L 279.048155 119.700983 
L 278.981126 119.386207 
L 278.645983 119.421483 
L 278.645983 119.365789 
L 278.578954 119.300366 
L 278.444897 119.225119 
L 278.444897 119.19718 
L 278.377868 119.215385 
L 278.042725 119.250578 
L 278.042725 119.194606 
L 277.975696 119.072727 
L 277.707582 119.033401 
L 277.640553 118.657248 
L 277.439467 118.598892 
L 277.372439 118.503882 
L 277.104324 118.463458 
L 277.037295 118.339659 
L 276.702152 118.317171 
L 276.635124 117.99278 
L 276.434038 118.018994 
L 276.434038 117.933035 
L 276.367009 117.721613 
L 276.098895 117.708428 
L 276.098895 117.679626 
L 276.031866 117.495994 
L 275.897809 117.445868 
L 275.83078 117.261437 
L 275.495637 117.294927 
L 275.495637 117.26589 
L 275.428608 117.138852 
L 275.227522 117.135593 
L 275.227522 117.106461 
L 275.160494 116.862087 
L 274.892379 116.847619 
L 274.82535 116.660712 
L 274.423179 116.741444 
L 274.423179 116.682654 
L 274.423179 116.535484 
L 274.35615 116.553843 
L 274.088035 116.62735 
L 274.088035 116.538883 
L 274.021007 116.350438 
L 273.819921 116.34639 
L 273.819921 116.316768 
L 273.752892 115.88945 
L 273.685864 115.907819 
L 273.685864 115.818363 
L 273.618835 115.717289 
L 273.551806 115.735657 
L 273.551806 115.645947 
L 273.484778 115.51456 
L 273.149634 115.516427 
L 273.082606 115.47474 
L 272.948549 115.42132 
L 272.948549 115.361116 
L 272.88152 115.379515 
L 272.680434 115.344333 
L 272.680434 115.283995 
L 272.613405 115.302411 
L 272.479348 115.30907 
L 272.479348 115.248649 
L 272.412319 114.812393 
L 272.010148 114.83162 
L 271.943119 114.758649 
L 271.809062 114.704003 
L 271.742033 114.508447 
L 271.675004 114.526883 
L 271.675004 114.434982 
L 271.675004 114.404325 
L 271.607976 114.422759 
L 271.540947 114.441201 
L 271.540947 114.349142 
L 271.473919 114.306146 
L 271.40689 114.32459 
L 271.40689 114.232337 
L 271.339861 114.158413 
L 271.205804 114.102817 
L 271.138775 113.874074 
L 271.004718 113.88 
L 271.004718 113.818046 
L 270.937689 113.681383 
L 270.736604 113.643492 
L 270.669575 113.475133 
L 270.334432 113.505047 
L 270.334432 113.473832 
L 270.334432 113.411363 
L 270.267403 113.429834 
L 269.999289 113.441249 
L 269.999289 113.409959 
L 269.93226 113.334507 
L 269.865231 113.353006 
L 269.865231 113.258935 
L 269.798203 113.183244 
L 269.731174 113.201743 
L 269.731174 113.107433 
L 269.731174 113.044497 
L 269.664145 113.062991 
L 269.396031 113.042502 
L 269.329002 112.903201 
L 269.194945 112.908635 
L 269.194945 112.845382 
L 269.127916 112.737238 
L 268.658716 112.771851 
L 268.591687 112.59968 
L 268.390601 112.623529 
L 268.390601 112.559808 
L 268.390601 112.496035 
L 268.323573 112.5146 
L 267.988429 112.511735 
L 267.921401 112.466399 
L 267.586258 112.46345 
L 267.519229 112.257511 
L 267.385172 112.294762 
L 267.385172 112.198307 
L 267.385172 112.069518 
L 267.318143 112.088136 
L 266.848943 112.154154 
L 266.848943 112.121876 
L 266.781914 112.043626 
L 266.513799 112.021277 
L 266.513799 111.924088 
L 266.446771 111.94277 
L 265.843513 112.013865 
L 265.776484 111.870018 
L 265.374313 111.917431 
L 265.374313 111.884829 
L 265.307284 111.445735 
L 265.240255 111.464484 
L 265.240255 111.366018 
L 265.240255 111.33317 
L 265.173227 111.351915 
L 265.039169 111.290775 
L 264.972141 111.177796 
L 264.838083 111.149353 
L 264.838083 111.116352 
L 264.838083 111.083337 
L 264.771055 111.102096 
L 264.50294 111.078041 
L 264.435912 110.931259 
L 264.301854 110.968831 
L 264.301854 110.869307 
L 264.301854 110.703159 
L 264.234826 110.721933 
L 264.167797 110.740715 
L 264.167797 110.640843 
L 264.167797 110.574194 
L 264.100768 110.592968 
L 264.03374 110.61175 
L 264.03374 110.511654 
L 263.966711 110.195851 
L 263.363453 110.264226 
L 263.363453 110.197004 
L 263.296425 110.215817 
L 263.095339 110.171327 
L 263.095339 110.137641 
L 263.02831 110.156473 
L 262.693167 110.183299 
L 262.693167 110.149551 
L 262.626138 109.931772 
L 262.358024 109.973367 
L 262.358024 109.905572 
L 262.290995 109.856592 
L 262.089909 109.913255 
L 262.089909 109.811333 
L 262.022881 109.625977 
L 261.55368 109.655939 
L 261.486652 109.503922 
L 261.08448 109.549049 
L 261.08448 109.514769 
L 261.017451 109.465116 
L 260.816365 109.453333 
L 260.816365 109.418967 
L 260.816365 109.384586 
L 260.749337 109.403558 
L 260.548251 109.39169 
L 260.548251 109.357252 
L 260.548251 109.253851 
L 260.481222 109.272835 
L 260.146079 109.264286 
L 260.07905 109.179574 
L 259.877964 109.132765 
L 259.877964 109.063427 
L 259.810936 109.082456 
L 259.475792 109.073543 
L 259.408764 108.953484 
L 259.140649 109.029782 
L 259.140649 108.925241 
L 259.073621 108.73482 
L 259.006592 108.753892 
L 259.006592 108.648927 
L 258.939563 108.387401 
L 258.671449 108.35814 
L 258.60442 108.165754 
L 258.336306 108.206736 
L 258.336306 108.136069 
L 258.336306 108.100713 
L 258.269277 108.119793 
L 258.13522 108.157977 
L 258.13522 108.051785 
L 258.13522 108.016357 
L 258.068191 108.035447 
L 257.934134 107.967244 
L 257.934134 107.860698 
L 257.867105 107.879792 
L 256.593561 108.137255 
L 256.593561 108.101591 
L 256.526532 108.120837 
L 256.124361 108.165066 
L 256.124361 108.12933 
L 256.124361 107.98623 
L 256.057332 108.005509 
L 255.789217 108.011033 
L 255.789217 107.97517 
L 255.722189 107.886785 
L 255.521103 107.872839 
L 255.521103 107.836866 
L 255.454074 107.56781 
L 255.320017 107.534155 
L 255.320017 107.497997 
L 255.320017 107.461823 
L 255.252988 107.481128 
L 254.850816 107.488438 
L 254.783788 107.326293 
L 254.247559 107.408503 
L 254.247559 107.372093 
L 254.18053 107.209182 
L 253.979444 107.194316 
L 253.979444 107.157761 
L 253.912416 107.030769 
L 253.644301 106.998397 
L 253.577272 106.834114 
L 253.510244 106.853524 
L 253.510244 106.743093 
L 253.443215 106.68879 
L 253.309158 106.616901 
L 253.309158 106.579964 
L 253.242129 106.599374 
L 252.772929 106.661497 
L 252.772929 106.624479 
L 252.571843 106.460377 
L 252.504814 106.219442 
L 252.303728 106.203244 
L 252.303728 106.165931 
L 252.2367 105.88625 
L 251.968585 105.88908 
L 251.968585 105.85156 
L 251.968585 105.7389 
L 251.901556 105.758352 
L 251.365327 105.801361 
L 251.365327 105.688283 
L 251.298299 105.70779 
L 250.695041 105.770394 
L 250.628012 105.714312 
L 250.426926 105.659425 
L 250.359898 105.4512 
L 250.225841 105.376201 
L 250.158812 105.319579 
L 250.091783 105.339166 
L 250.091783 105.224708 
L 250.024755 105.053156 
L 249.75664 105.093199 
L 249.75664 105.016552 
L 249.75664 104.901449 
L 249.689611 104.921031 
L 249.555554 104.844921 
L 249.555554 104.806452 
L 249.488525 104.826043 
L 249.354468 104.7497 
L 249.354468 104.672576 
L 249.28744 104.692173 
L 248.952296 104.751676 
L 248.952296 104.713043 
L 248.952296 104.597038 
L 248.885268 104.616667 
L 248.483096 104.657143 
L 248.416067 104.405019 
L 247.946867 104.464959 
L 247.879838 104.289625 
L 247.410638 104.349533 
L 247.410638 104.3104 
L 247.343609 104.330154 
L 247.209552 104.291343 
L 247.209552 104.173683 
L 247.142523 104.193443 
L 246.80738 104.213793 
L 246.740351 103.8 
L 246.405208 103.859364 
L 246.405208 103.819793 
L 246.33818 103.601747 
L 245.80195 103.680767 
L 245.80195 103.601183 
L 245.734922 103.621023 
L 245.466807 103.620768 
L 245.466807 103.381197 
L 245.399779 103.401045 
L 244.930578 103.460162 
L 244.86355 103.279504 
L 244.126235 103.418456 
L 244.126235 103.216946 
L 244.059206 103.236916 
L 243.657034 103.276133 
L 243.657034 103.235701 
L 243.590005 103.255724 
L 243.522977 103.275756 
L 243.522977 103.194813 
L 243.522977 103.073252 
L 243.455948 103.093269 
L 242.85269 103.192625 
L 242.85269 103.111309 
L 242.785662 103.131404 
L 242.718633 103.151508 
L 242.718633 103.070094 
L 242.651604 103.008696 
L 242.38349 103.007547 
L 242.316461 102.700364 
L 242.048347 102.698762 
L 242.048347 102.657698 
L 241.981318 102.677824 
L 241.713204 102.717315 
L 241.713204 102.676186 
L 241.713204 102.470239 
L 241.646175 102.490378 
L 241.512118 102.448135 
L 241.512118 102.406829 
L 241.445089 102.426982 
L 241.176974 102.424969 
L 241.176974 102.383578 
L 241.109946 102.403764 
L 240.774803 102.463403 
L 240.774803 102.421939 
L 240.707774 102.359177 
L 240.506688 102.336801 
L 240.506688 102.211981 
L 240.439659 102.23222 
L 240.305602 102.231064 
L 240.305602 102.189381 
L 240.305602 102.022441 
L 240.238574 102.042678 
L 240.171545 102.062925 
L 240.171545 101.97931 
L 240.171545 101.937472 
L 240.104516 101.957713 
L 239.568287 102.036166 
L 239.501259 101.930564 
L 239.233144 101.927786 
L 239.233144 101.843608 
L 239.166115 101.863941 
L 238.562858 101.963022 
L 238.562858 101.920805 
L 238.495829 101.941223 
L 238.093657 101.894716 
L 237.691485 101.932867 
L 237.624457 101.826 
L 237.289313 101.843576 
L 237.289313 101.758406 
L 237.222285 101.778947 
L 237.155256 101.799499 
L 237.155256 101.714221 
L 237.088228 101.649398 
L 236.887142 101.625584 
L 236.887142 101.582805 
L 236.820113 101.603369 
L 236.753084 101.623944 
L 236.753084 101.538299 
L 236.753084 101.495444 
L 236.686056 101.516012 
L 236.619027 101.53659 
L 236.619027 101.450794 
L 236.551998 101.385477 
L 236.350913 101.40424 
L 236.350913 101.361222 
L 236.283884 101.166372 
L 236.216855 101.18695 
L 236.216855 101.100607 
L 236.149827 100.991489 
L 235.881712 100.987215 
L 235.881712 100.857121 
L 235.814683 100.877704 
L 235.47954 100.937335 
L 235.47954 100.893869 
L 235.412512 100.609585 
L 235.211426 100.584074 
L 235.144397 100.47348 
L 234.876283 100.468373 
L 234.876283 100.380645 
L 234.809254 100.40128 
L 234.541139 100.44 
L 234.541139 100.39605 
L 234.541139 100.308083 
L 234.474111 100.328747 
L 234.407082 100.349422 
L 234.407082 100.261341 
L 234.407082 99.952342 
L 234.340053 99.972973 
L 233.803824 100.049806 
L 233.803824 99.961115 
L 233.736796 99.981818 
L 232.999481 100.121327 
L 232.932452 99.963985 
L 232.597309 99.978841 
L 232.53028 99.776048 
L 232.262166 99.814599 
L 232.262166 99.769752 
L 232.195137 99.655912 
L 231.994051 99.628542 
L 231.927023 99.469197 
L 231.725937 99.441509 
L 231.658908 99.371991 
L 230.921593 99.511579 
L 230.854564 99.396417 
L 230.720507 99.438376 
L 230.720507 99.347468 
L 230.720507 99.256464 
L 230.653478 99.277435 
L 229.983192 99.396505 
L 229.916163 99.234783 
L 229.58102 99.294424 
L 229.58102 99.248606 
L 229.58102 99.202763 
L 229.513992 99.223864 
L 229.312906 99.241341 
L 229.312906 99.195423 
L 229.245877 99.124634 
L 229.178848 99.145765 
L 229.178848 99.053731 
L 229.178848 99.007678 
L 229.11182 99.0288 
L 228.910734 99.046129 
L 228.910734 99 
L 228.843705 98.882598 
L 228.307476 98.959475 
L 228.307476 98.820386 
L 228.240447 98.841588 
L 227.972333 98.833593 
L 227.972333 98.787097 
L 227.905304 98.808336 
L 227.771247 98.850847 
L 227.771247 98.757739 
L 227.771247 98.711147 
L 227.704218 98.7324 
L 227.503132 98.702913 
L 227.436104 98.630769 
L 226.832846 98.729074 
L 226.765817 98.609756 
L 226.765817 98.562808 
L 226.698789 98.584165 
L 226.430674 98.575665 
L 226.363646 98.314286 
L 225.291187 97.992593 
L 224.889016 98.073777 
L 224.889016 98.02601 
L 224.821987 97.951899 
L 224.68793 97.947067 
L 224.68793 97.899174 
L 224.620901 97.824814 
L 224.352786 97.862949 
L 224.352786 97.814913 
L 224.352786 97.670647 
L 224.285758 97.692176 
L 224.084672 97.708663 
L 223.481414 97.806663 
L 223.414386 97.683268 
L 223.2133 97.651378 
L 223.2133 97.50585 
L 223.146271 97.527501 
L 222.878156 97.516997 
L 222.811128 97.246309 
L 222.610042 97.21361 
L 222.610042 97.164706 
L 222.543013 97.186383 
L 222.341927 97.202525 
L 222.341927 97.153535 
L 222.274899 97.02809 
L 221.403526 97.212694 
L 221.403526 97.163431 
L 221.336498 97.185267 
L 221.001355 97.195928 
L 221.001355 97.097114 
L 220.934326 97.118992 
L 220.398097 97.195402 
L 220.398097 97.145826 
L 220.331068 97.167793 
L 220.129982 97.134471 
L 220.129982 97.08478 
L 220.062954 97.106773 
L 219.660782 97.139418 
L 219.593753 97.011879 
L 218.990496 96.860241 
L 218.655352 96.870423 
L 218.588324 96.640772 
L 218.387238 96.656731 
L 218.387238 96.606228 
L 218.320209 96.527273 
L 218.186152 96.571585 
L 218.186152 96.470326 
L 218.186152 96.419653 
L 218.119123 96.441804 
L 217.918037 96.457598 
L 217.918037 96.406833 
L 217.851009 96.327383 
L 217.716951 96.37176 
L 217.716951 96.269974 
L 217.716951 96.16807 
L 217.649923 96.190244 
L 216.979636 96.31049 
L 216.979636 96.259341 
L 216.912608 96.281633 
L 216.577465 96.342056 
L 216.577465 96.290798 
L 216.577465 96.239509 
L 216.510436 96.261853 
L 216.376379 96.203863 
L 216.376379 95.998066 
L 216.30935 96.020399 
L 216.041235 96.058292 
L 216.041235 96.006694 
L 216.041235 95.955066 
L 215.974207 95.977438 
L 215.505006 96.030928 
L 215.505006 95.875472 
L 215.437978 95.897906 
L 215.236892 95.913375 
L 214.901749 95.921893 
L 214.83472 95.736 
L 214.633634 95.75135 
L 214.633634 95.69911 
L 214.633634 95.646839 
L 214.566605 95.669359 
L 214.298491 95.654848 
L 214.298491 95.445027 
L 214.231462 95.46756 
L 214.097405 95.460107 
L 214.097405 95.407516 
L 214.030376 95.272081 
L 213.561176 95.324551 
L 213.561176 95.271698 
L 213.494147 95.294308 
L 213.36009 95.233713 
L 213.36009 95.180738 
L 213.293061 95.203361 
L 213.159004 95.195614 
L 213.159004 95.142548 
L 213.091975 95.005776 
L 213.024947 95.028408 
L 213.024947 94.921951 
L 213.024947 94.868675 
L 212.957918 94.891293 
L 212.756832 94.905882 
L 212.756832 94.852505 
L 212.689804 94.661287 
L 212.421689 94.751891 
L 212.421689 94.644687 
L 212.35466 94.56 
L 212.220603 94.551592 
L 212.220603 94.497816 
L 212.153575 94.305014 
L 212.019517 94.350319 
L 212.019517 94.242349 
L 212.019517 94.188314 
L 211.952489 94.210959 
L 211.349231 94.307025 
L 211.349231 94.252796 
L 211.282202 94.27555 
L 211.014088 94.258053 
L 211.014088 94.203675 
L 210.947059 94.226471 
L 210.678944 94.20884 
L 210.678944 94.045161 
L 210.611916 94.067978 
L 210.343801 94.05 
L 210.343801 93.88567 
L 210.276773 93.908508 
L 210.008658 93.890179 
L 210.008658 93.725193 
L 209.941629 93.748052 
L 209.539458 93.775201 
L 209.472429 93.577088 
L 209.271343 93.535075 
L 209.204314 93.33597 
L 208.735114 93.440962 
L 208.735114 93.385259 
L 208.668085 93.296718 
L 208.466999 93.309859 
L 208.466999 93.253976 
L 208.399971 93.053057 
L 208.131856 93.032799 
L 208.131856 92.976618 
L 208.064828 92.999623 
L 207.729684 93.002268 
L 207.662656 92.912583 
L 207.260484 92.93816 
L 207.193455 92.848101 
L 206.45614 93.046506 
L 206.45614 92.989704 
L 206.45614 92.932867 
L 206.389112 92.956121 
L 206.053969 92.9587 
L 205.98694 92.696552 
L 205.919911 92.719834 
L 205.919911 92.605369 
L 205.919911 92.490758 
L 205.852883 92.514012 
L 205.584768 92.492308 
L 205.584768 92.434819 
L 205.517739 92.458114 
L 205.115568 92.482958 
L 205.115568 92.425281 
L 205.048539 92.448649 
L 204.847453 92.461082 
L 204.847453 92.403287 
L 204.780424 92.253049 
L 204.378253 92.277515 
L 204.311224 92.010049 
L 204.244195 92.033463 
L 204.244195 91.916807 
L 204.244195 91.8 
L 204.177167 91.823384 
L 204.043109 91.870198 
L 204.043109 91.753171 
L 203.976081 91.659375 
L 203.774995 91.612194 
L 203.707966 91.046073 
L 203.50688 91.056881 
L 203.439852 90.783585 
L 203.03768 90.864166 
L 203.03768 90.685375 
L 202.970651 90.708731 
L 202.836594 90.75549 
L 202.836594 90.695778 
L 202.836594 90.636028 
L 202.769565 90.659406 
L 202.568479 90.729633 
L 202.568479 90.669795 
L 202.568479 90.609917 
L 202.501451 90.633333 
L 202.233336 90.667175 
L 202.233336 90.5471 
L 202.166308 90.570557 
L 202.099279 90.59403 
L 202.099279 90.533908 
L 202.099279 90.413546 
L 202.03225 90.436998 
L 201.764136 90.530961 
L 201.764136 90.470659 
L 201.697107 90.373427 
L 201.026821 90.548663 
L 201.026821 90.488064 
L 200.959792 90.511706 
L 200.825735 90.49836 
L 200.825735 90.376884 
L 200.758706 90.400536 
L 200.490592 90.434441 
L 200.423563 90.275294 
L 200.155448 90.370178 
L 200.155448 90.309091 
L 200.08842 90.149292 
L 199.887334 90.159217 
L 199.887334 89.91359 
L 199.820305 89.937301 
L 199.485162 89.99451 
L 199.485162 89.932881 
L 199.418133 89.956663 
L 199.217047 90.028106 
L 199.217047 89.966384 
L 199.217047 89.90462 
L 198.881904 89.962015 
L 198.881904 89.900102 
L 198.814876 89.923978 
L 198.546761 90.019645 
L 198.546761 89.957625 
L 198.546761 89.833459 
L 198.479732 89.857377 
L 198.278647 89.867031 
L 198.211618 89.579301 
L 197.943503 89.612564 
L 197.876475 89.448677 
L 197.742417 89.433861 
L 197.675389 89.269331 
L 197.541332 89.254295 
L 197.541332 89.191304 
L 197.474303 89.215257 
L 197.273217 89.287215 
L 197.273217 89.224127 
L 197.273217 89.160996 
L 197.206188 89.184988 
L 197.005102 89.193834 
L 197.005102 89.130561 
L 196.938074 89.154593 
L 196.535902 89.235719 
L 196.468873 89.13287 
L 196.200759 89.165854 
L 196.200759 88.974747 
L 196.13373 88.998883 
L 196.066702 89.023037 
L 196.066702 88.959218 
L 195.999673 88.791608 
L 195.798587 88.864053 
L 195.798587 88.8 
L 195.798587 88.607571 
L 195.731558 88.631697 
L 195.530472 88.639888 
L 195.463444 88.535325 
L 195.262358 88.607882 
L 195.262358 88.5434 
L 195.195329 88.373846 
L 194.994243 88.446436 
L 194.994243 88.381715 
L 194.994243 88.316949 
L 194.927215 88.341152 
L 194.860186 88.365371 
L 194.860186 88.30053 
L 194.860186 88.170711 
L 194.793157 88.194904 
L 194.592072 88.202551 
L 194.525043 88.096559 
L 194.256928 88.128358 
L 194.256928 88.063064 
L 194.1899 88.08734 
L 194.055842 88.135943 
L 194.055842 88.070559 
L 193.988814 87.83281 
L 193.18447 88.059405 
L 193.18447 87.993548 
L 193.117442 88.017999 
L 192.983384 88.066954 
L 192.983384 88.001005 
L 192.983384 87.935009 
L 192.916356 87.959483 
L 192.71527 87.966906 
L 192.71527 87.900756 
L 192.648241 87.92527 
L 192.581212 87.949802 
L 192.581212 87.883573 
L 192.581212 87.817297 
L 192.514184 87.841817 
L 192.313098 87.915482 
L 192.313098 87.849097 
L 192.313098 87.782665 
L 192.246069 87.807225 
L 191.910926 87.863722 
L 191.843897 87.688325 
L 191.374697 87.794182 
L 191.374697 87.660262 
L 191.307668 87.684965 
L 191.24064 87.709687 
L 191.24064 87.642623 
L 191.173611 87.533042 
L 191.039554 87.582482 
L 191.039554 87.515225 
L 190.972525 87.337843 
L 190.905496 87.362546 
L 190.905496 87.29506 
L 190.905496 87.227526 
L 190.838468 87.252215 
L 190.436296 87.33304 
L 190.369267 87.154412 
L 189.833038 87.285061 
L 189.76601 87.037251 
L 189.631952 87.018646 
L 189.631952 86.950259 
L 189.564924 86.97512 
L 189.229781 87.031169 
L 189.162752 86.22953 
L 188.827609 86.284305 
L 188.76058 86.100898 
L 187.822179 86.380354 
L 187.822179 86.240678 
L 187.755151 86.265712 
L 186.883778 86.522727 
L 186.81675 86.337178 
L 186.682692 86.317281 
L 186.682692 86.246809 
L 186.615664 86.272064 
L 186.213492 86.424 
L 186.213492 86.353354 
L 186.213492 86.211899 
L 186.146463 86.237238 
L 185.878349 86.26789 
L 185.878349 86.196941 
L 185.81132 86.222341 
L 185.275091 86.355086 
L 185.275091 86.212601 
L 185.208062 86.238125 
L 185.074005 86.217853 
L 185.074005 86.074933 
L 185.006976 86.100462 
L 184.537776 86.208037 
L 184.537776 86.136297 
L 184.470747 86.161949 
L 184.403719 86.187621 
L 184.403719 86.115789 
L 184.403719 86.043902 
L 184.33669 86.069558 
L 184.001547 86.126087 
L 184.001547 85.9096 
L 183.934518 85.935303 
L 183.532346 86.089945 
L 183.532346 86.017544 
L 183.532346 85.872571 
L 183.465318 85.898361 
L 183.33126 85.877374 
L 183.33126 85.804691 
L 183.264232 85.830504 
L 183.130175 85.809397 
L 183.063146 85.689455 
L 182.996117 85.715294 
L 182.996117 85.642291 
L 182.929089 85.448723 
L 182.728003 85.452893 
L 182.728003 85.379528 
L 182.660974 85.405356 
L 182.325831 85.534807 
L 182.325831 85.461271 
L 182.258802 85.266192 
L 181.923659 85.321998 
L 181.923659 85.248057 
L 181.85663 85.274018 
L 181.521487 85.33002 
L 181.521487 85.255847 
L 181.454459 85.281894 
L 181.320401 85.33405 
L 181.320401 85.259761 
L 181.253373 85.06257 
L 181.186344 85.088623 
L 181.186344 85.014058 
L 181.186344 84.939433 
L 181.119315 84.965468 
L 180.516058 85.125843 
L 180.449029 84.92701 
L 180.247943 84.930435 
L 180.247943 84.704474 
L 180.180914 84.730645 
L 179.845771 84.786257 
L 179.845771 84.559207 
L 179.778743 84.585425 
L 179.711714 84.611665 
L 179.711714 84.535818 
L 179.711714 84.307911 
L 179.644685 84.334091 
L 178.639256 84.652941 
L 178.572227 84.296314 
L 178.505199 84.322737 
L 178.505199 84.245902 
L 178.505199 84.169004 
L 178.43817 84.195406 
L 177.633826 84.436701 
L 177.633826 84.127138 
L 177.566798 84.153719 
L 177.097597 84.262687 
L 177.097597 84.029141 
L 177.030569 84.055814 
L 176.762454 84.084644 
L 176.762454 84.006495 
L 176.695425 84.033236 
L 176.561368 84.086786 
L 176.561368 84.008507 
L 176.561368 83.930163 
L 176.494339 83.956928 
L 176.427311 83.983716 
L 176.427311 83.905263 
L 176.427311 83.826745 
L 176.360282 83.853512 
L 176.025139 83.908969 
L 176.025139 83.830189 
L 175.95811 83.857047 
L 175.689996 83.88575 
L 175.689996 83.72764 
L 175.622967 83.754545 
L 175.220795 83.837146 
L 175.220795 83.75777 
L 175.153767 83.784791 
L 174.751595 83.867797 
L 174.751595 83.788131 
L 174.684566 83.815267 
L 174.48348 83.816992 
L 174.48348 83.737102 
L 174.416452 83.764286 
L 173.679137 83.984615 
L 173.679137 83.663014 
L 173.612108 83.690364 
L 173.343993 83.719313 
L 173.343993 83.557732 
L 173.276965 83.585131 
L 172.807764 83.696507 
L 172.807764 83.534139 
L 172.740736 83.561658 
L 172.53965 83.562976 
L 172.472621 83.345927 
L 172.338564 83.319306 
L 172.338564 83.2375 
L 172.271535 83.265046 
L 171.802335 83.458537 
L 171.802335 83.376471 
L 171.735306 83.157486 
L 171.400163 83.213567 
L 171.400163 83.130998 
L 171.333134 83.158739 
L 171.06502 83.269943 
L 171.06502 83.187182 
L 171.06502 83.104348 
L 170.997991 83.132162 
L 170.662848 83.188546 
L 170.662848 83.105421 
L 170.595819 83.133333 
L 169.992562 83.302214 
L 169.925533 83.079503 
L 169.657418 83.108137 
L 169.657418 83.024199 
L 169.59039 83.052336 
L 169.255247 83.193399 
L 169.255247 83.109237 
L 169.255247 83.025 
L 169.188218 83.053238 
L 168.853075 83.110345 
L 168.853075 83.025806 
L 168.786046 83.054146 
L 168.11576 83.254054 
L 168.048731 83.027437 
L 167.847645 83.11315 
L 167.847645 83.027848 
L 167.780617 82.714363 
L 167.378445 82.8 
L 167.378445 82.714052 
L 167.311416 82.742675 
L 166.976273 82.8 
L 166.976273 82.627397 
L 166.909244 82.656099 
L 166.64113 82.771167 
L 166.64113 82.684615 
L 166.64113 82.511274 
L 166.574101 82.540028 
L 165.836786 82.770954 
L 165.769757 82.363107 
L 165.568672 82.45 
L 165.568672 82.362297 
L 165.568672 82.010673 
L 165.501643 82.039554 
L 165.1665 82.096089 
L 165.099471 81.948252 
L 164.831357 81.975701 
L 164.831357 81.886957 
L 164.764328 81.915996 
L 164.295127 82.030986 
L 164.295127 81.852632 
L 164.228099 81.881805 
L 164.027013 81.880075 
L 163.959984 81.730189 
L 163.758898 81.728166 
L 163.758898 81.638298 
L 163.69187 81.66755 
L 163.624841 81.696829 
L 163.624841 81.606818 
L 163.624841 81.24592 
L 163.557812 81.275083 
L 163.490784 81.304274 
L 163.490784 81.213777 
L 163.490784 81.123194 
L 163.423755 81.152354 
L 162.887526 81.295702 
L 162.887526 81.113576 
L 162.820497 81.142898 
L 162.485354 81.198561 
L 162.485354 81.107102 
L 162.418326 81.136534 
L 161.412896 81.489405 
L 161.345867 81.334884 
L 161.278839 81.364712 
L 161.278839 81.272357 
L 161.21181 80.931745 
L 160.943696 80.957895 
L 160.943696 80.864846 
L 160.876667 80.894634 
L 160.541524 80.950685 
L 160.541524 80.857269 
L 160.474495 80.887169 
L 159.603123 81.184615 
L 159.603123 81.090577 
L 159.536094 81.120829 
L 158.798779 81.361072 
L 158.731751 81.202287 
L 158.530665 81.294024 
L 158.530665 81.199103 
L 158.530665 81.104088 
L 158.463636 81.134663 
L 157.592264 81.439377 
L 157.592264 81.247964 
L 157.525235 81.278873 
L 156.854949 81.493475 
L 156.854949 80.914155 
L 156.78792 80.945178 
L 156.385748 81.034845 
L 156.31872 80.676404 
L 155.916548 80.765659 
L 155.916548 80.569625 
L 155.849519 80.600821 
L 155.581405 80.627586 
L 155.514376 80.461856 
L 155.380319 80.524458 
L 155.380319 80.42571 
L 155.380319 80.227907 
L 155.31329 80.259152 
L 155.112204 80.253886 
L 155.112204 80.055187 
L 155.045175 80.086456 
L 154.374889 80.400939 
L 154.374889 80.301044 
L 154.30786 79.730854 
L 154.173803 79.793707 
L 154.173803 79.69297 
L 154.106775 79.320252 
L 153.637574 79.540232 
L 153.637574 79.438669 
L 153.570545 79.266667 
L 153.503517 79.298147 
L 153.503517 79.196186 
L 153.503517 79.094118 
L 153.436488 79.125557 
L 153.235402 79.220074 
L 153.235402 79.117747 
L 153.168374 78.841534 
L 152.632145 78.991011 
L 152.632145 78.887794 
L 152.565116 78.919443 
L 152.297001 78.942857 
L 152.229973 78.559289 
L 151.89483 78.717927 
L 151.89483 78.613614 
L 151.827801 78.436364 
L 151.559686 78.458709 
L 151.492658 78.280435 
L 151.224543 78.302452 
L 151.157515 78.123144 
L 150.822371 78.17678 
L 150.822371 78.070685 
L 150.755343 78.102632 
L 150.4202 78.156436 
L 150.353171 77.975207 
L 150.286142 78.007277 
L 150.286142 77.900386 
L 150.219114 77.610945 
L 149.88397 77.663561 
L 149.88397 77.447973 
L 149.816942 77.48 
L 149.481799 77.532441 
L 149.481799 77.424094 
L 149.41477 77.45625 
L 148.94557 77.573543 
L 148.94557 77.46461 
L 148.878541 77.49697 
L 148.208254 77.713043 
L 148.208254 77.60339 
L 148.141226 77.636066 
L 147.739054 77.722815 
L 147.739054 77.612606 
L 147.672025 77.645455 
L 147.336882 77.699658 
L 147.269854 77.511022 
L 147.135796 77.577015 
L 147.135796 77.465904 
L 147.135796 77.243299 
L 147.068768 77.276218 
L 147.001739 77.309174 
L 147.001739 77.19759 
L 146.93471 76.894882 
L 146.867682 76.927733 
L 146.867682 76.815544 
L 146.867682 76.703226 
L 146.800653 76.736023 
L 145.795224 77.119372 
L 145.795224 77.006054 
L 145.728195 77.039371 
L 145.661166 77.072727 
L 145.661166 76.959184 
L 145.661166 76.845508 
L 145.594138 76.878809 
L 144.99088 77.066001 
L 144.923851 76.870588 
L 143.98545 77.22908 
L 143.918422 77.031867 
L 143.784364 76.984038 
L 143.717336 76.78568 
L 143.181107 76.942172 
L 143.181107 76.82521 
L 143.114078 76.859459 
L 141.773505 77.435036 
L 141.639448 77.386837 
L 141.438362 77.492308 
L 141.438362 77.37361 
L 141.438362 77.13578 
L 141.371333 77.170869 
L 140.969162 77.262815 
L 140.902133 76.698211 
L 140.768076 76.64796 
L 140.701047 76.441486 
L 139.695618 76.850657 
L 139.628589 76.519749 
L 139.293446 76.57533 
L 139.293446 76.329301 
L 139.226417 76.364943 
L 139.025331 76.348673 
L 138.958303 76.012928 
L 138.824245 75.96 
L 138.824245 75.835578 
L 138.757217 75.871202 
L 138.489102 75.889286 
L 138.489102 75.764263 
L 138.422073 75.8 
L 138.08693 75.853846 
L 138.08693 75.728159 
L 138.019902 75.764056 
L 137.751787 75.78197 
L 137.751787 75.65567 
L 137.684758 75.691683 
L 137.416644 75.836199 
L 137.416644 75.582524 
L 137.349615 75.618653 
L 137.014472 75.8 
L 137.014472 75.672562 
L 136.947443 75.708913 
L 136.880415 75.745312 
L 136.813386 75.526027 
L 136.746358 75.562402 
L 136.746358 75.305882 
L 136.679329 75.342184 
L 136.478243 75.451376 
L 136.411214 74.971598 
L 136.277157 75.04424 
L 136.277157 74.914625 
L 136.210128 74.950956 
L 136.076071 75.023762 
L 136.076071 74.893791 
L 136.009042 74.930205 
L 135.405785 75.260106 
L 135.405785 75.129341 
L 135.338756 75.166178 
L 135.271727 75.203065 
L 135.271727 75.072 
L 135.204699 75.108873 
L 135.070642 75.182766 
L 135.070642 75.051337 
L 135.003613 75.088294 
L 134.869556 75.162358 
L 134.802527 74.538399 
L 134.534412 74.686042 
L 134.534412 74.419851 
L 134.467384 74.456757 
L 134.400355 74.493712 
L 134.400355 74.360217 
L 134.333327 74.397156 
L 134.132241 74.508277 
L 134.065212 74.142857 
L 133.797097 74.291132 
L 133.797097 74.156314 
L 133.730069 74.193443 
L 133.66304 74.230622 
L 133.66304 73.960164 
L 133.596012 73.99726 
L 133.528983 74.034407 
L 133.528983 73.898765 
L 133.461954 73.935896 
L 133.126811 74.122314 
L 133.126811 73.439254 
L 133.059782 73.476349 
L 132.925725 73.550693 
L 132.925725 73.275728 
L 132.858697 73.312838 
L 132.456525 73.536585 
L 132.456525 73.398326 
L 132.389496 73.435729 
L 132.322467 73.473184 
L 132.322467 73.334591 
L 132.255439 73.372028 
L 131.853267 73.597753 
L 131.853267 73.458468 
L 131.786238 73.496203 
L 131.71921 73.53399 
L 131.71921 73.394366 
L 131.652181 73.432135 
L 131.384067 73.583746 
L 131.317038 73.341076 
L 131.115952 73.455075 
L 131.115952 73.173134 
L 131.048923 73.211095 
L 130.71378 73.401713 
L 130.71378 73.26 
L 130.646752 73.298213 
L 130.445666 73.413181 
L 130.378637 72.881237 
L 130.110522 73.034319 
L 130.110522 72.890909 
L 130.043494 72.929242 
L 129.708351 73.121739 
L 129.708351 72.977665 
L 129.641322 73.016255 
L 129.306179 73.210051 
L 129.306179 73.065306 
L 129.23915 73.104158 
L 128.702921 73.417021 
L 128.702921 72.833113 
L 128.635892 72.872165 
L 128.501835 72.950442 
L 128.501835 72.80369 
L 128.434806 72.842836 
L 128.367778 72.88204 
L 128.367778 72.734911 
L 128.300749 72.774093 
L 127.898577 73.010409 
L 127.898577 72.8625 
L 127.831549 72.90201 
L 127.76452 72.94158 
L 127.76452 72.793289 
L 127.697491 72.832836 
L 127.563434 72.912108 
L 127.563434 72.763351 
L 127.496406 72.802994 
L 127.429377 72.842697 
L 127.429377 72.693553 
L 127.362348 72.733233 
L 127.29532 72.772973 
L 127.228291 72.513318 
L 127.027205 72.632579 
L 126.960176 72.220575 
L 126.826119 72.3 
L 126.826119 72.148749 
L 126.759091 72.188467 
L 126.625033 72.268085 
L 126.625033 71.964384 
L 126.558005 72.004113 
L 126.423947 72.083753 
L 126.423947 71.931298 
L 126.356919 71.971123 
L 126.088804 72.131034 
L 126.088804 71.670968 
L 126.021776 71.710838 
L 125.82069 71.830817 
L 125.82069 71.522222 
L 125.753661 71.562162 
L 125.552575 71.682353 
L 125.552575 71.216602 
L 125.485546 71.256522 
L 125.418518 71.296503 
L 125.351489 70.396875 
L 125.217432 70.476056 
L 125.217432 70.160502 
L 125.150403 70.2 
L 125.016346 70.279183 
L 125.016346 70.120755 
L 124.949317 70.160346 
L 124.81526 70.239716 
L 124.81526 70.080757 
L 124.748231 70.120442 
L 124.077945 70.520764 
L 124.010916 70.240191 
L 123.876859 70.320767 
L 123.809831 70.038591 
L 123.675773 70.119166 
L 123.608745 69.83537 
L 123.407659 69.956326 
L 123.407659 68.975709 
L 123.34063 69.015559 
L 123.206573 69.095455 
L 123.206573 68.765854 
L 123.139544 68.805696 
L 122.201143 69.37037 
L 122.201143 69.203624 
L 122.134115 69.244353 
L 122.000057 69.326012 
L 121.933029 68.695522 
L 121.731943 68.817456 
L 121.731943 68.648586 
L 121.664914 68.689259 
L 121.530857 68.770809 
L 121.463828 68.302092 
L 121.061656 68.546846 
L 121.061656 68.375758 
L 120.994628 68.416681 
L 120.86057 68.498734 
L 120.793542 68.023539 
L 120.726513 68.064407 
L 120.726513 67.891603 
L 120.659485 67.932428 
L 120.324341 68.137596 
L 120.257313 67.656287 
L 119.318912 68.236364 
L 119.318912 68.059965 
L 119.251883 68.101821 
L 118.849711 68.35449 
L 118.782683 67.505521 
L 118.313482 67.8 
L 118.313482 67.619947 
L 118.246454 67.662191 
L 117.978339 67.831915 
L 117.978339 67.650932 
L 117.91131 67.693428 
L 117.710225 67.821371 
L 117.710225 67.639572 
L 117.643196 67.682248 
L 117.308053 67.896774 
L 117.308053 67.713901 
L 117.241024 67.756912 
L 117.106967 67.843165 
L 117.106967 67.475676 
L 117.039938 67.518665 
L 116.704795 67.734783 
L 116.704795 67.549773 
L 116.637766 67.593103 
L 116.369652 67.767213 
L 116.369652 67.581222 
L 116.302623 67.624818 
L 116.101537 67.756084 
L 116.101537 67.569231 
L 116.034509 67.613016 
L 115.96748 67.656881 
L 115.900451 66.75941 
L 115.833423 66.80277 
L 115.833423 66.613309 
L 115.766394 66.656614 
L 115.632337 66.743466 
L 115.632337 66.553247 
L 115.565308 66.596657 
L 115.431251 66.683721 
L 115.364222 66.152941 
L 115.029079 66.370356 
L 115.029079 65.984211 
L 114.96205 66.027658 
L 114.626907 66.246125 
L 114.626907 66.051656 
L 114.559879 66.095455 
L 114.49285 66.139336 
L 114.49285 65.944213 
L 114.425821 65.988034 
L 114.224735 66.12 
L 114.157707 65.377033 
L 113.956621 65.508253 
L 113.889592 65.155149 
L 113.822564 65.198844 
L 113.822564 64.6 
L 113.755535 64.643327 
L 112.616048 65.39292 
L 112.616048 65.189764 
L 112.549019 65.234483 
L 112.347934 65.36917 
L 112.347934 65.164985 
L 112.280905 65.209901 
L 111.945762 65.435821 
L 111.878733 64.862937 
L 111.610619 65.043731 
L 111.610619 64.836145 
L 111.54359 64.881407 
L 111.208447 65.109091 
L 111.208447 64.900101 
L 111.141418 64.945749 
L 110.739246 65.221589 
L 110.672218 64.845965 
L 110.53816 64.938178 
L 110.53816 64.72623 
L 110.471132 64.772308 
L 110.270046 64.911111 
L 110.270046 64.698043 
L 110.203017 64.74433 
L 110.135988 64.790712 
L 110.135988 64.57686 
L 110.06896 64.623164 
L 109.867874 64.762656 
L 109.867874 64.547664 
L 109.800845 64.594179 
L 109.733817 64.640791 
L 109.733817 64.208759 
L 109.666788 64.255115 
L 109.532731 64.348117 
L 109.532731 64.13089 
L 109.465702 64.177358 
L 109.398673 64.223924 
L 109.331645 63.833684 
L 109.264616 63.880084 
L 109.264616 63.440971 
L 109.197588 63.487104 
L 108.996502 63.626087 
L 108.996502 63.405096 
L 108.929473 63.451435 
L 108.862444 63.497872 
L 108.862444 63.276038 
L 108.795416 63.322388 
L 108.661358 63.415385 
L 108.661358 62.745338 
L 108.59433 62.791416 
L 107.722958 63.399565 
L 107.722958 63.172549 
L 107.655929 63.219847 
L 107.1197 63.60198 
L 107.1197 63.372687 
L 107.052671 63.420728 
L 106.851585 63.565487 
L 106.851585 63.334884 
L 106.784557 63.383149 
L 106.717528 63.431521 
L 106.717528 63.2 
L 106.650499 63.248276 
L 106.583471 63.296659 
L 106.583471 63.064214 
L 106.516442 63.1125 
L 106.315356 63.258007 
L 106.315356 63.024215 
L 106.248328 63.072727 
L 106.047242 63.218919 
L 106.047242 62.983766 
L 105.980213 63.032506 
L 105.511013 63.376792 
L 105.511013 63.139408 
L 105.443984 63.188826 
L 105.376955 63.238356 
L 105.376955 63 
L 105.309927 63.049428 
L 104.572612 63.600695 
L 104.572612 63.359165 
L 104.505583 63.409756 
L 104.438554 63.460465 
L 104.438554 63.217928 
L 104.371526 63.268531 
L 104.17044 63.421053 
L 104.17044 62.687324 
L 104.103411 62.73772 
L 103.969354 62.838869 
L 103.969354 62.592453 
L 103.902325 62.642975 
L 103.701239 62.795261 
L 103.701239 62.298812 
L 103.634211 62.349346 
L 103.16501 62.706475 
L 103.16501 62.455462 
L 103.097982 62.506731 
L 102.628781 62.869091 
L 102.628781 62.615534 
L 102.561752 62.667558 
L 102.494724 62.719708 
L 102.494724 62.465043 
L 102.427695 62.517073 
L 102.159581 62.726471 
L 102.159581 62.469939 
L 102.092552 62.522359 
L 101.757409 62.786403 
L 101.757409 62.527723 
L 101.69038 62.580669 
L 101.355237 62.847382 
L 101.355237 62.062829 
L 101.288208 62.115789 
L 101.22118 62.168883 
L 101.22118 61.905528 
L 101.154151 61.958491 
L 101.020094 62.064817 
L 101.020094 61.8 
L 100.953065 61.853097 
L 100.349807 62.337084 
L 100.282779 61.584062 
L 100.148722 61.691753 
L 100.148722 61.420645 
L 100.081693 61.474419 
L 99.478435 61.964706 
L 99.478435 61.414679 
L 99.411407 61.469291 
L 98.540034 62.192523 
L 98.540034 61.912299 
L 98.473006 61.968675 
L 98.338948 62.081879 
L 98.338948 61.8 
L 98.27192 61.856528 
L 97.802719 62.256522 
L 97.802719 61.971429 
L 97.735691 62.028883 
L 97.668662 62.086494 
L 97.668662 61.8 
L 97.601633 61.857456 
L 97.199461 62.205517 
L 97.132433 61.683657 
L 96.194032 62.511864 
L 96.194032 61.91898 
L 96.127003 61.978723 
L 96.059975 62.038636 
L 95.992946 61.500428 
L 95.858889 61.619742 
L 95.79186 60.772662 
L 95.657803 60.890909 
L 95.590774 59.724419 
L 94.719402 60.493333 
L 94.719402 60.179822 
L 94.652373 60.239822 
L 94.585345 60.3 
L 94.585345 59.984799 
L 94.518316 60.044776 
L 94.116144 60.408434 
L 94.049116 59.830257 
L 93.713972 60.135366 
L 93.713972 59.488073 
L 93.646944 59.548851 
L 93.579915 59.609816 
L 93.579915 59.283871 
L 93.512886 59.344615 
L 93.378829 59.466667 
L 93.311801 58.869767 
L 93.110715 59.052336 
L 93.110715 58.720437 
L 93.043686 58.78125 
L 92.306371 59.462957 
L 92.306371 58.785646 
L 92.239342 58.847923 
L 91.502027 59.546341 
L 91.502027 59.200651 
L 91.434999 59.264927 
L 91.36797 59.329412 
L 91.36797 58.981669 
L 91.300941 59.045902 
L 91.099855 59.239868 
L 91.099855 58.889109 
L 91.032827 58.953719 
L 90.965798 59.018543 
L 90.965798 58.311628 
L 90.89877 58.375707 
L 90.630655 58.634171 
L 90.630655 58.27651 
L 90.563626 58.341176 
L 90.429569 58.471164 
L 90.429569 58.110811 
L 90.36254 58.175635 
L 90.228483 58.305942 
L 90.161455 57.276923 
L 89.960369 57.470103 
L 89.960369 56.731034 
L 89.89334 56.794819 
L 89.558197 57.117073 
L 89.558197 56.742408 
L 89.491168 56.806993 
L 89.42414 56.871804 
L 89.42414 56.494737 
L 89.357111 56.559227 
L 88.88791 57.017082 
L 88.820882 55.929032 
L 88.753853 55.993896 
L 88.753853 55.605755 
L 88.686825 55.67027 
L 88.552767 55.8 
L 88.552767 55.408696 
L 88.485739 55.473321 
L 88.41871 55.538182 
L 88.351681 54.812797 
L 88.016538 55.135793 
L 88.016538 54.735305 
L 87.94951 54.8 
L 86.340822 56.427907 
L 86.273794 55.659649 
L 86.072708 55.870588 
L 86.072708 55.020472 
L 86.005679 55.089941 
L 85.603507 55.512575 
L 85.603507 55.08 
L 85.536479 55.150701 
L 84.732135 56.021766 
L 84.732135 55.577778 
L 84.665106 55.651546 
L 83.99482 56.406316 
L 83.99482 55.951899 
L 83.927791 56.02833 
L 83.793734 56.182166 
L 83.726705 55.338462 
L 82.654247 56.59646 
L 82.587219 55.2375 
L 82.386133 55.476404 
L 82.386133 54.989189 
L 82.319104 55.068623 
L 82.118018 55.309091 
L 82.118018 54.815945 
L 82.050989 54.89589 
L 81.983961 54.976201 
L 81.983961 54.478899 
L 81.916932 54.558621 
L 81.715846 54.8 
L 81.715846 54.29652 
L 81.648818 54.376744 
L 80.576359 55.713043 
L 80.576359 55.189831 
L 80.509331 55.275728 
L 80.375274 55.44878 
L 80.308245 53.937931 
L 79.772016 54.624121 
L 79.772016 54.077078 
L 79.704987 54.163636 
L 79.101729 54.962791 
L 79.101729 54.401036 
L 79.034701 54.490909 
L 78.699558 54.947368 
L 78.699558 53.221751 
L 78.632529 53.310638 
L 78.498472 53.48984 
L 78.498472 52.904558 
L 78.431443 52.993548 
L 78.0963 53.445777 
L 78.0963 52.84918 
L 78.029271 52.939726 
L 77.426013 53.777528 
L 77.426013 53.16338 
L 77.358985 53.257627 
L 77.291956 53.352408 
L 77.224928 52.2 
L 76.286527 53.55 
L 76.286527 52.898507 
L 76.219498 52.997605 
L 76.085441 53.19759 
L 76.018412 50.625688 
L 75.482183 51.398746 
L 75.482183 50.70566 
L 75.415154 50.803155 
L 75.281097 51 
L 75.281097 50.296815 
L 75.214068 50.394249 
L 74.744868 51.094118 
L 74.744868 49.642105 
L 74.677839 49.740594 
L 73.873496 50.975258 
L 73.873496 50.213793 
L 73.806467 50.319031 
L 73.471324 50.856338 
L 73.471324 50.075618 
L 73.404295 50.182979 
L 73.270238 50.4 
L 73.270238 49.606452 
L 73.203209 49.713669 
L 73.069152 49.930435 
L 73.069152 49.123636 
L 73.002123 49.230657 
L 72.868066 49.447059 
L 72.868066 48.626568 
L 72.801038 48.733333 
L 72.734009 48.840892 
L 72.734009 48.008955 
L 72.66698 48.114607 
L 71.996694 49.216342 
L 71.996694 48.346875 
L 71.929665 48.458824 
L 71.862637 48.571654 
L 71.862637 47.689328 
L 71.795608 47.8 
L 71.460465 48.366802 
L 71.460465 47.458537 
L 71.393436 47.571429 
L 70.924236 48.388235 
L 70.857207 46.608511 
L 69.516634 49.102326 
L 68.913377 50.382524 
L 68.913377 49.302439 
L 68.846348 49.447059 
L 68.109033 51.136788 
L 68.109033 49.9875 
L 68.042004 50.14555 
L 67.907947 50.466667 
L 67.840918 48.251613 
L 67.438747 49.2 
L 67.438747 46.698876 
L 67.371718 46.850847 
L 66.567374 48.818182 
L 66.500346 46.244444 
L 66.433317 46.408696 
L 66.433317 45 
L 66.366288 45.158491 
L 65.29383 47.995804 
L 65.29383 46.419718 
L 65.226801 46.608511 
L 64.82463 47.8 
L 64.82463 46.128358 
L 64.757601 46.326316 
L 64.623544 46.731298 
L 64.556515 43.425 
L 63.618114 46.326316 
L 63.618114 44.330973 
L 63.551086 44.55 
L 63.35 45.231193 
L 63.35 43.133333 
L 63.282971 43.351402 
L 63.081885 44.030769 
L 63.081885 41.819417 
L 63.014856 42.035294 
L 62.478627 43.92766 
L 62.478627 41.477419 
L 62.411599 41.713043 
L 61.607255 45 
L 60.86994 49.017391 
L 60.199654 53.969492 
L 59.596396 60.12 
L 59.462339 61.8 
L 59.462339 57.331915 
L 59.39531 58.147826 
L 59.194224 60.823256 
L 59.194224 55.8 
L 59.127195 56.678049 
L 58.725024 63 
L 58.725024 56.858824 
L 58.657995 57.981818 
L 58.456909 61.8 
L 58.456909 54.558621 
L 58.38988 55.8 
L 57.987709 65.618182 
L 57.92068 46.326316 
L 57.652565 53.4 
L 57.652565 37.8 
L 57.585537 39.184615 
L 57.317422 47.8 
L 57.317422 19.8 
L 57.250394 19.8 
L 56.781193 19.8 
L 56.781193 19.8 
" clip-path="url(#p6ee1cb029c)" style="fill: none; stroke: #ff7f0e; stroke-width: 2; stroke-linecap: square"/>
   </g>
   <g id="line2d_15">
    <path d="M 310.417557 268.345161 
L 310.417557 265.355658 
L 309.269881 265.384076 
L 309.269881 265.27304 
L 309.269881 264.502383 
L 306.974529 264.505351 
L 306.974529 264.456597 
L 306.974529 264.327748 
L 305.826853 264.361012 
L 305.826853 264.25009 
L 305.826853 263.709454 
L 304.679178 263.745546 
L 304.679178 263.634383 
L 304.679178 263.540212 
L 303.531502 263.577204 
L 303.531502 263.467179 
L 303.531502 263.2 
L 302.383826 263.238641 
L 302.383826 263.128509 
L 302.383826 263.121532 
L 301.23615 263.160695 
L 301.23615 263.050856 
L 301.23615 262.618337 
L 300.088474 262.658316 
L 300.088474 262.547489 
L 300.088474 262.275308 
L 297.793122 262.307623 
L 297.793122 262.251101 
L 297.793122 262.150109 
L 296.645447 262.19431 
L 296.645447 262.084449 
L 296.645447 261.937079 
L 294.350095 261.933535 
L 294.350095 261.916711 
L 294.350095 261.040099 
L 293.202419 261.08987 
L 293.202419 260.980492 
L 293.202419 260.170968 
L 292.054743 260.222232 
L 292.054743 260.112217 
L 292.054743 259.926867 
L 290.907067 259.982069 
L 290.907067 259.87239 
L 290.907067 259.706845 
L 288.611716 259.808481 
L 288.611716 259.708789 
L 288.611716 259.501377 
L 287.46404 259.559304 
L 287.46404 259.448866 
L 287.46404 259.262376 
L 285.168688 259.322269 
L 285.168688 259.272396 
L 285.168688 259.225276 
L 284.021012 259.285327 
L 284.021012 259.174494 
L 284.021012 258.876923 
L 281.72566 258.947541 
L 281.72566 258.890434 
L 281.72566 258.389194 
L 280.577985 258.453992 
L 280.577985 258.344359 
L 280.577985 256.980941 
L 279.430309 257.052489 
L 279.430309 256.944941 
L 279.430309 256.77603 
L 278.282633 256.848878 
L 278.282633 256.737752 
L 278.282633 256.286124 
L 277.134957 256.361583 
L 277.134957 256.252442 
L 277.134957 256.156935 
L 275.987281 256.233376 
L 275.987281 256.126929 
L 275.987281 256.019016 
L 273.69193 256.107084 
L 273.69193 256.06561 
L 273.69193 255.779818 
L 272.544254 255.859219 
L 272.544254 255.75122 
L 272.544254 255.713073 
L 271.396578 255.793207 
L 271.396578 255.683721 
L 271.396578 254.750796 
L 270.248902 254.835831 
L 270.248902 254.72459 
L 270.248902 254.491285 
L 269.101226 254.577983 
L 269.101226 254.469145 
L 269.101226 253.834682 
L 267.95355 253.924904 
L 267.95355 253.813964 
L 267.95355 253.23795 
L 265.658199 253.358504 
L 265.658199 253.313906 
L 265.658199 252.674062 
L 264.510523 252.771214 
L 264.510523 252.66745 
L 264.510523 252.324338 
L 262.215171 252.523077 
L 262.215171 252.415385 
L 262.215171 251.61745 
L 259.919819 251.735223 
L 259.919819 251.717154 
L 259.919819 251.442173 
L 258.772143 251.547945 
L 258.772143 251.436364 
L 258.772143 246.98075 
L 257.624468 247.107951 
L 257.624468 246.99685 
L 257.624468 246.426007 
L 256.476792 246.556477 
L 256.476792 246.454335 
L 256.476792 246.217736 
L 254.18144 246.408084 
L 254.18144 246.378299 
L 254.18144 244.894972 
L 253.033764 245.034783 
L 253.033764 244.934663 
L 253.033764 244.24757 
L 250.738412 244.517489 
L 250.738412 244.42982 
L 250.738412 243.332086 
L 249.590737 243.481605 
L 249.590737 243.386577 
L 249.590737 242.173688 
L 247.295385 242.423596 
L 247.295385 242.382278 
L 247.295385 241.92 
L 246.147709 242.078771 
L 246.147709 241.972166 
L 246.147709 241.886331 
L 245.000033 242.04622 
L 245.000033 241.938728 
L 245.000033 241.434093 
L 243.852357 241.597059 
L 243.852357 241.485609 
L 243.852357 240.563498 
L 242.704681 240.731507 
L 242.704681 240.636641 
L 242.704681 238.98328 
L 241.557006 239.159614 
L 241.557006 239.054237 
L 241.557006 239.027787 
L 240.40933 239.205012 
L 240.40933 239.09927 
L 240.40933 238.450124 
L 239.261654 238.631126 
L 239.261654 238.52093 
L 239.261654 237.728571 
L 238.113978 237.914043 
L 238.113978 237.827304 
L 238.113978 237.710959 
L 236.966302 237.897686 
L 236.966302 237.810309 
L 236.966302 236.060163 
L 235.818626 236.255696 
L 235.818626 236.159021 
L 235.818626 236.029299 
L 234.67095 236.22623 
L 234.67095 236.128767 
L 234.67095 235.899265 
L 233.523275 236.098068 
L 233.523275 235.999262 
L 233.523275 235.833364 
L 232.375599 236.033766 
L 232.375599 235.933953 
L 232.375599 235.392068 
L 231.227923 235.595841 
L 231.227923 235.492891 
L 231.227923 235.180497 
L 230.080247 235.386603 
L 230.080247 235.281766 
L 230.080247 235.034783 
L 227.784895 235.345631 
L 227.784895 234.438806 
L 226.63722 234.65259 
L 226.63722 234.541259 
L 226.63722 233.703984 
L 225.489544 233.922699 
L 225.489544 233.845082 
L 225.489544 233.610309 
L 224.341868 233.83096 
L 224.341868 233.75243 
L 224.341868 231.413611 
L 223.194192 231.646154 
L 223.194192 231.557709 
L 223.194192 231.424309 
L 222.046516 231.658407 
L 222.046516 231.569401 
L 222.046516 231.3902 
L 219.751164 231.817877 
L 219.751164 231.773154 
L 219.751164 231.728331 
L 218.603489 231.965919 
L 218.603489 231.876404 
L 218.603489 231.005511 
L 217.455813 231.248276 
L 217.455813 231.154839 
L 217.455813 229.74994 
L 216.308137 230.000477 
L 216.308137 229.900478 
L 216.308137 229.850299 
L 214.012785 230.304808 
L 214.012785 230.254874 
L 214.012785 229.697561 
L 212.865109 229.953846 
L 212.865109 229.851408 
L 212.865109 228.362738 
L 211.717433 228.627411 
L 211.717433 228.517557 
L 211.717433 226.8 
L 210.569758 227.074172 
L 210.569758 227.014854 
L 210.569758 225.159116 
L 209.422082 225.443154 
L 209.422082 225.378947 
L 209.422082 223.851502 
L 208.274406 224.14384 
L 208.274406 224.075466 
L 208.274406 223.168421 
L 207.12673 223.466179 
L 207.12673 223.395308 
L 207.12673 223.252941 
L 205.979054 223.552577 
L 205.979054 223.481416 
L 205.979054 223.410044 
L 204.831378 223.711243 
L 204.831378 223.64 
L 204.831378 222.093578 
L 203.683702 222.403369 
L 203.683702 222.327607 
L 203.683702 218.834483 
L 202.536027 219.161842 
L 202.536027 219.075124 
L 202.536027 212.969118 
L 201.388351 213.324862 
L 201.388351 213.216974 
L 201.388351 212.00339 
L 200.240675 212.366038 
L 200.240675 212.253686 
L 200.240675 209.547036 
L 199.092999 209.922772 
L 199.092999 208.287805 
L 197.945323 208.67169 
L 197.945323 207.359252 
L 196.797647 207.75 
L 196.797647 206.664407 
L 195.649971 207.061146 
L 195.649971 205.656833 
L 194.502296 206.06087 
L 194.502296 205.19207 
L 193.35462 205.601325 
L 193.35462 204.712752 
L 192.206944 205.127354 
L 192.206944 203.283871 
L 189.911592 204.133333 
L 189.911592 202.856604 
L 188.763916 203.289362 
L 188.763916 202.963895 
L 187.61624 203.4 
L 187.61624 200.691089 
L 186.468565 201.13995 
L 186.468565 200.252261 
L 185.320889 200.706801 
L 185.320889 198.3 
L 184.173213 198.766057 
L 184.173213 198.574869 
L 181.877861 199.515789 
L 181.877861 197.762264 
L 180.730185 198.243243 
L 180.730185 197.641962 
L 178.434834 198.616438 
L 178.434834 196.766292 
L 177.287158 197.264789 
L 177.287158 195.983381 
L 176.139482 196.489655 
L 176.139482 193.097297 
L 174.991806 193.619277 
L 174.991806 192.423853 
L 173.84413 192.953374 
L 173.84413 191.725234 
L 172.696454 192.2625 
L 172.696454 186.10303 
L 171.548779 186.664865 
L 171.548779 186.376271 
L 170.401103 186.942857 
L 170.401103 184.569231 
L 169.253427 185.147368 
L 169.253427 184.225532 
L 168.105751 184.810676 
L 168.105751 183.871942 
L 166.958075 184.46426 
L 166.958075 184.147826 
L 165.810399 184.745455 
L 165.810399 183.133333 
L 163.515048 184.352239 
L 163.515048 183.694737 
L 162.367372 184.313208 
L 162.367372 183.647909 
L 161.219696 184.273282 
L 161.219696 183.937931 
L 160.07202 184.569231 
L 160.07202 181.8 
L 158.924344 182.445418 
L 158.924344 182.088 
L 157.776668 182.739759 
L 157.776668 180.540741 
L 156.628992 181.204959 
L 156.628992 179.682353 
L 155.481317 180.356962 
L 155.481317 179.969492 
L 153.185965 181.338462 
L 153.185965 180.163636 
L 150.890613 181.564192 
L 150.890613 180.366372 
L 149.742937 181.08 
L 149.742937 179.854054 
L 148.595261 180.578281 
L 148.595261 178.896774 
L 147.447586 179.633333 
L 147.447586 178.335211 
L 146.29991 179.083019 
L 146.29991 178.2 
L 145.152234 178.957895 
L 145.152234 175.262687 
L 141.709206 177.618182 
L 141.709206 174.675 
L 140.56153 175.485864 
L 140.56153 169.6 
L 139.413855 170.436872 
L 139.413855 167.524138 
L 137.118503 169.24186 
L 137.118503 168.642105 
L 133.675475 171.3 
L 133.675475 164.939241 
L 132.5278 165.863694 
L 132.5278 164.496774 
L 131.380124 165.436364 
L 131.380124 164.741176 
L 130.232448 165.694737 
L 130.232448 164.28 
L 129.084772 165.249664 
L 129.084772 159.997183 
L 127.937096 160.991489 
L 127.937096 156.066667 
L 125.641744 158.115789 
L 125.641744 153.675 
L 124.494069 154.729134 
L 124.494069 153.8 
L 119.903365 158.193443 
L 119.903365 151.278261 
L 117.608013 153.60531 
L 117.608013 146.97757 
L 116.460338 148.177358 
L 116.460338 147 
L 111.869634 152.037624 
L 111.869634 141.735484 
L 109.574282 144.415385 
L 109.574282 143 
L 108.426607 144.38427 
L 108.426607 138.388235 
L 107.278931 139.8 
L 107.278931 136.580488 
L 106.131255 138.022222 
L 106.131255 136.35 
L 104.983579 137.825316 
L 104.983579 134.345455 
L 103.835903 135.852632 
L 103.835903 134.04 
L 102.688227 135.583784 
L 102.688227 131.8 
L 101.540551 133.377465 
L 101.540551 127.270588 
L 100.392876 128.874627 
L 100.392876 126.709091 
L 99.2452 128.353846 
L 99.2452 126.1125 
L 98.097524 127.8 
L 98.097524 125.477419 
L 96.949848 127.209836 
L 96.949848 124.8 
L 95.802172 126.579661 
L 95.802172 118.8 
L 94.654496 120.6 
L 94.654496 114.89434 
L 92.359145 118.623529 
L 92.359145 115.56 
L 90.063793 119.55 
L 90.063793 116.310638 
L 88.916117 118.408696 
L 88.916117 111.436364 
L 86.620765 115.8 
L 86.620765 111.995122 
L 84.325414 116.723077 
L 84.325414 112.642105 
L 83.177738 115.151351 
L 83.177738 106.2 
L 80.882386 111.436364 
L 78.587034 117.348387 
L 76.291683 124.075862 
L 73.996331 131.8 
L 71.700979 140.76 
L 70.553303 145.8 
L 70.553303 140.321739 
L 69.405628 145.8 
L 69.405628 133.2 
L 68.257952 139.168421 
L 68.257952 114.3 
L 67.110276 120.6 
L 65.9626 127.8 
L 64.814924 136.107692 
L 64.814924 124.8 
L 63.667248 134.345455 
L 62.519572 145.8 
L 61.371897 159.8 
L 61.371897 103.8 
L 60.224221 120.6 
L 59.076545 145.8 
L 57.928869 187.8 
L 57.928869 19.8 
L 56.781193 19.8 
L 56.781193 19.8 
" clip-path="url(#p6ee1cb029c)" style="fill: none; stroke: #2ca02c; stroke-width: 2; stroke-linecap: square"/>
   </g>
   <g id="line2d_16">
    <path d="M 310.417557 271.080893 
L 310.417557 269.630838 
L 304.903723 269.677597 
L 304.903723 269.566837 
L 304.903723 268.247368 
L 299.389889 268.325227 
L 299.389889 268.215131 
L 299.389889 267.880594 
L 293.876055 267.968317 
L 293.876055 267.858203 
L 293.876055 265.786681 
L 288.362221 265.923265 
L 288.362221 265.813575 
L 288.362221 263.452997 
L 282.848387 263.645304 
L 282.848387 263.5344 
L 282.848387 262.961677 
L 277.334553 263.169863 
L 277.334553 263.065165 
L 277.334553 261.6998 
L 271.820719 261.942427 
L 271.820719 261.832454 
L 271.820719 260.988119 
L 266.306885 261.253744 
L 266.306885 261.148165 
L 266.306885 258.425698 
L 260.793051 258.759441 
L 260.793051 258.649083 
L 260.793051 258.326012 
L 255.279217 258.671201 
L 255.279217 258.57551 
L 255.279217 249.619071 
L 249.765383 250.182353 
L 249.765383 250.075862 
L 249.765383 249.639196 
L 244.251549 250.218136 
L 244.251549 250.108861 
L 244.251549 244.771609 
L 238.737715 245.483544 
L 238.737715 245.4 
L 238.737715 241.449635 
L 233.223881 242.261538 
L 233.223881 242.152941 
L 233.223881 237.190558 
L 227.710047 238.127586 
L 227.710047 229.343478 
L 222.196213 230.488525 
L 222.196213 222.063158 
L 216.682379 223.402649 
L 216.682379 216.852632 
L 211.168545 218.345455 
L 211.168545 207.066055 
L 205.654711 208.8 
L 205.654711 201.65567 
L 200.140877 203.55 
L 200.140877 198.182022 
L 194.627043 200.209091 
L 194.627043 197.682353 
L 183.599375 201.968675 
L 183.599375 196.527273 
L 178.085541 198.852632 
L 178.085541 197.88 
L 172.571707 200.286486 
L 172.571707 193.976471 
L 167.057873 196.576119 
L 167.057873 191.8 
L 156.030205 197.439344 
L 156.030205 192.221053 
L 150.516371 195.3 
L 150.516371 187.8 
L 145.002537 191.16 
L 139.488703 194.657143 
L 139.488703 189.626087 
L 133.974869 193.4 
L 133.974869 185.75122 
L 128.461035 189.9 
L 128.461035 183.259459 
L 122.947201 187.8 
L 122.947201 182.858824 
L 117.433367 187.8 
L 117.433367 179.4 
L 111.919533 184.903448 
L 111.919533 162.234783 
L 106.405699 168.709091 
L 106.405699 158.4 
L 100.891865 165.694737 
L 100.891865 145.8 
L 95.378031 154.2 
L 95.378031 145.8 
L 89.864197 155.492308 
L 89.864197 103.8 
L 84.350363 114.3 
L 78.836529 127.8 
L 78.836529 103.8 
L 73.322695 120.6 
L 67.808861 145.8 
L 67.808861 103.8 
L 62.295027 145.8 
L 56.781193 271.8 
L 56.781193 19.8 
L 56.781193 19.8 
" clip-path="url(#p6ee1cb029c)" style="fill: none; stroke: #d62728; stroke-width: 2; stroke-linecap: square"/>
   </g>
   <g id="patch_3">
    <path d="M 44.099375 284.4 
L 44.099375 7.2 
" style="fill: none; stroke: #000000; stroke-width: 0.8; stroke-linejoin: miter; stroke-linecap: square"/>
   </g>
   <g id="patch_4">
    <path d="M 323.099375 284.4 
L 323.099375 7.2 
" style="fill: none; stroke: #000000; stroke-width: 0.8; stroke-linejoin: miter; stroke-linecap: square"/>
   </g>
   <g id="patch_5">
    <path d="M 44.099375 284.4 
L 323.099375 284.4 
" style="fill: none; stroke: #000000; stroke-width: 0.8; stroke-linejoin: miter; stroke-linecap: square"/>
   </g>
   <g id="patch_6">
    <path d="M 44.099375 7.2 
L 323.099375 7.2 
" style="fill: none; stroke: #000000; stroke-width: 0.8; stroke-linejoin: miter; stroke-linecap: square"/>
   </g>
   <g id="legend_1">
    <g id="patch_7">
     <path d="M 52.499375 278.4 
L 244.746875 278.4 
Q 247.146875 278.4 247.146875 276 
L 247.146875 209.3325 
Q 247.146875 206.9325 244.746875 206.9325 
L 52.499375 206.9325 
Q 50.099375 206.9325 50.099375 209.3325 
L 50.099375 276 
Q 50.099375 278.4 52.499375 278.4 
z
" style="fill: #ffffff; opacity: 0.8; stroke: #cccccc; stroke-linejoin: miter"/>
    </g>
    <g id="line2d_17">
     <path d="M 54.899375 215.9325 
L 66.899375 215.9325 
L 78.899375 215.9325 
" style="fill: none; stroke: #1f77b4; stroke-width: 2; stroke-linecap: square"/>
    </g>
    <g id="text_15">
     <text style="font: 12px 'Times New Roman'; text-anchor: start" x="88.499375" y="220.1325" transform="rotate(-0 88.499375 220.1325)">Level 4 (AP=0.9747, N=12069)</text>
    </g>
    <g id="line2d_18">
     <path d="M 54.899375 232.899375 
L 66.899375 232.899375 
L 78.899375 232.899375 
" style="fill: none; stroke: #ff7f0e; stroke-width: 2; stroke-linecap: square"/>
    </g>
    <g id="text_16">
     <text style="font: 12px 'Times New Roman'; text-anchor: start" x="88.499375" y="237.099375" transform="rotate(-0 88.499375 237.099375)">Level 3 (AP=0.7250, N=3784)</text>
    </g>
    <g id="line2d_19">
     <path d="M 54.899375 249.86625 
L 66.899375 249.86625 
L 78.899375 249.86625 
" style="fill: none; stroke: #2ca02c; stroke-width: 2; stroke-linecap: square"/>
    </g>
    <g id="text_17">
     <text style="font: 12px 'Times New Roman'; text-anchor: start" x="88.499375" y="254.06625" transform="rotate(-0 88.499375 254.06625)">Level 2 (AP=0.3005, N=221)</text>
    </g>
    <g id="line2d_20">
     <path d="M 54.899375 266.833125 
L 66.899375 266.833125 
L 78.899375 266.833125 
" style="fill: none; stroke: #d62728; stroke-width: 2; stroke-linecap: square"/>
    </g>
    <g id="text_18">
     <text style="font: 12px 'Times New Roman'; text-anchor: start" x="88.499375" y="271.033125" transform="rotate(-0 88.499375 271.033125)">Level 1 (AP=0.2760, N=46)</text>
    </g>
   </g>
  </g>
 </g>
 <defs>
  <clipPath id="p6ee1cb029c">
   <rect x="44.099375" y="7.2" width="279" height="277.2"/>
  </clipPath>
 </defs>
</svg>
