<?xml version="1.0" encoding="utf-8" standalone="no"?>
<!DOCTYPE svg PUBLIC "-//W3C//DTD SVG 1.1//EN"
  "http://www.w3.org/Graphics/SVG/1.1/DTD/svg11.dtd">
<svg xmlns:xlink="http://www.w3.org/1999/xlink" width="330.299375pt" height="324.39875pt" viewBox="0 0 330.299375 324.39875" xmlns="http://www.w3.org/2000/svg" version="1.1">
 <metadata>
  <rdf:RDF xmlns:dc="http://purl.org/dc/elements/1.1/" xmlns:cc="http://creativecommons.org/ns#" xmlns:rdf="http://www.w3.org/1999/02/22-rdf-syntax-ns#">
   <cc:Work>
    <dc:type rdf:resource="http://purl.org/dc/dcmitype/StillImage"/>
    <dc:date>2025-01-21T20:41:58.917699</dc:date>
    <dc:format>image/svg+xml</dc:format>
    <dc:creator>
     <cc:Agent>
      <dc:title>Matplotlib v3.7.5, https://matplotlib.org/</dc:title>
     </cc:Agent>
    </dc:creator>
   </cc:Work>
  </rdf:RDF>
 </metadata>
 <defs>
  <style type="text/css">*{stroke-linejoin: round; stroke-linecap: butt}</style>
 </defs>
 <g id="figure_1">
  <g id="patch_1">
   <path d="M 0 324.39875 
L 330.299375 324.39875 
L 330.299375 0 
L 0 0 
z
" style="fill: #ffffff"/>
  </g>
  <g id="axes_1">
   <g id="patch_2">
    <path d="M 44.099375 284.4 
L 323.099375 284.4 
L 323.099375 7.2 
L 44.099375 7.2 
z
" style="fill: #ffffff"/>
   </g>
   <g id="matplotlib.axis_1">
    <g id="xtick_1">
     <g id="line2d_1">
      <defs>
       <path id="m3a3215678d" d="M 0 0 
L 0 3.5 
" style="stroke: #000000; stroke-width: 0.8"/>
      </defs>
      <g>
       <use xlink:href="#m3a3215678d" x="56.781193" y="284.4" style="stroke: #000000; stroke-width: 0.8"/>
      </g>
     </g>
     <g id="text_1">
      <text style="font: 12px 'Times New Roman'; text-anchor: middle" x="56.781193" y="299.7325" transform="rotate(-0 56.781193 299.7325)">0.0</text>
     </g>
    </g>
    <g id="xtick_2">
     <g id="line2d_2">
      <g>
       <use xlink:href="#m3a3215678d" x="107.508466" y="284.4" style="stroke: #000000; stroke-width: 0.8"/>
      </g>
     </g>
     <g id="text_2">
      <text style="font: 12px 'Times New Roman'; text-anchor: middle" x="107.508466" y="299.7325" transform="rotate(-0 107.508466 299.7325)">0.2</text>
     </g>
    </g>
    <g id="xtick_3">
     <g id="line2d_3">
      <g>
       <use xlink:href="#m3a3215678d" x="158.235739" y="284.4" style="stroke: #000000; stroke-width: 0.8"/>
      </g>
     </g>
     <g id="text_3">
      <text style="font: 12px 'Times New Roman'; text-anchor: middle" x="158.235739" y="299.7325" transform="rotate(-0 158.235739 299.7325)">0.4</text>
     </g>
    </g>
    <g id="xtick_4">
     <g id="line2d_4">
      <g>
       <use xlink:href="#m3a3215678d" x="208.963011" y="284.4" style="stroke: #000000; stroke-width: 0.8"/>
      </g>
     </g>
     <g id="text_4">
      <text style="font: 12px 'Times New Roman'; text-anchor: middle" x="208.963011" y="299.7325" transform="rotate(-0 208.963011 299.7325)">0.6</text>
     </g>
    </g>
    <g id="xtick_5">
     <g id="line2d_5">
      <g>
       <use xlink:href="#m3a3215678d" x="259.690284" y="284.4" style="stroke: #000000; stroke-width: 0.8"/>
      </g>
     </g>
     <g id="text_5">
      <text style="font: 12px 'Times New Roman'; text-anchor: middle" x="259.690284" y="299.7325" transform="rotate(-0 259.690284 299.7325)">0.8</text>
     </g>
    </g>
    <g id="xtick_6">
     <g id="line2d_6">
      <g>
       <use xlink:href="#m3a3215678d" x="310.417557" y="284.4" style="stroke: #000000; stroke-width: 0.8"/>
      </g>
     </g>
     <g id="text_6">
      <text style="font: 12px 'Times New Roman'; text-anchor: middle" x="310.417557" y="299.7325" transform="rotate(-0 310.417557 299.7325)">1.0</text>
     </g>
    </g>
    <g id="text_7">
     <text style="font: 12px 'Times New Roman'; text-anchor: middle" x="183.599375" y="314.631875" transform="rotate(-0 183.599375 314.631875)">Recall</text>
    </g>
   </g>
   <g id="matplotlib.axis_2">
    <g id="ytick_1">
     <g id="line2d_7">
      <defs>
       <path id="ma40c1b8f8d" d="M 0 0 
L -3.5 0 
" style="stroke: #000000; stroke-width: 0.8"/>
      </defs>
      <g>
       <use xlink:href="#ma40c1b8f8d" x="44.099375" y="271.8" style="stroke: #000000; stroke-width: 0.8"/>
      </g>
     </g>
     <g id="text_8">
      <text style="font: 12px 'Times New Roman'; text-anchor: end" x="37.099375" y="275.96625" transform="rotate(-0 37.099375 275.96625)">0.0</text>
     </g>
    </g>
    <g id="ytick_2">
     <g id="line2d_8">
      <g>
       <use xlink:href="#ma40c1b8f8d" x="44.099375" y="221.4" style="stroke: #000000; stroke-width: 0.8"/>
      </g>
     </g>
     <g id="text_9">
      <text style="font: 12px 'Times New Roman'; text-anchor: end" x="37.099375" y="225.56625" transform="rotate(-0 37.099375 225.56625)">0.2</text>
     </g>
    </g>
    <g id="ytick_3">
     <g id="line2d_9">
      <g>
       <use xlink:href="#ma40c1b8f8d" x="44.099375" y="171" style="stroke: #000000; stroke-width: 0.8"/>
      </g>
     </g>
     <g id="text_10">
      <text style="font: 12px 'Times New Roman'; text-anchor: end" x="37.099375" y="175.16625" transform="rotate(-0 37.099375 175.16625)">0.4</text>
     </g>
    </g>
    <g id="ytick_4">
     <g id="line2d_10">
      <g>
       <use xlink:href="#ma40c1b8f8d" x="44.099375" y="120.6" style="stroke: #000000; stroke-width: 0.8"/>
      </g>
     </g>
     <g id="text_11">
      <text style="font: 12px 'Times New Roman'; text-anchor: end" x="37.099375" y="124.76625" transform="rotate(-0 37.099375 124.76625)">0.6</text>
     </g>
    </g>
    <g id="ytick_5">
     <g id="line2d_11">
      <g>
       <use xlink:href="#ma40c1b8f8d" x="44.099375" y="70.2" style="stroke: #000000; stroke-width: 0.8"/>
      </g>
     </g>
     <g id="text_12">
      <text style="font: 12px 'Times New Roman'; text-anchor: end" x="37.099375" y="74.36625" transform="rotate(-0 37.099375 74.36625)">0.8</text>
     </g>
    </g>
    <g id="ytick_6">
     <g id="line2d_12">
      <g>
       <use xlink:href="#ma40c1b8f8d" x="44.099375" y="19.8" style="stroke: #000000; stroke-width: 0.8"/>
      </g>
     </g>
     <g id="text_13">
      <text style="font: 12px 'Times New Roman'; text-anchor: end" x="37.099375" y="23.96625" transform="rotate(-0 37.099375 23.96625)">1.0</text>
     </g>
    </g>
    <g id="text_14">
     <text style="font: 12px 'Times New Roman'; text-anchor: middle" x="15.5325" y="145.8" transform="rotate(-90 15.5325 145.8)">Precision</text>
    </g>
   </g>
   <g id="line2d_13">
    <path d="M 310.417557 185.429032 
L 310.325743 133.766082 
L 310.279836 133.777385 
L 310.279836 133.667778 
L 310.188022 125.620933 
L 310.142115 125.632055 
L 310.142115 125.524443 
L 310.050301 121.952619 
L 310.004394 121.96363 
L 310.004394 121.850485 
L 309.912579 117.253453 
L 309.866672 117.264294 
L 309.866672 117.161086 
L 309.774858 112.13433 
L 309.728951 112.144947 
L 309.728951 112.034726 
L 309.637137 107.790074 
L 309.59123 107.800473 
L 309.59123 107.703512 
L 309.499416 106.216328 
L 309.407602 106.15786 
L 309.407602 106.138072 
L 309.315788 103.87123 
L 309.269881 103.881415 
L 309.269881 103.779634 
L 309.178067 103.575619 
L 309.13216 103.585792 
L 309.13216 103.483597 
L 309.040346 103.073303 
L 308.994439 103.083451 
L 308.994439 102.980588 
L 308.902625 101.81916 
L 308.856718 101.829235 
L 308.856718 101.724779 
L 308.764904 99.198553 
L 308.718997 99.208461 
L 308.718997 99.100699 
L 308.627182 98.035294 
L 308.581275 98.045129 
L 308.581275 97.935849 
L 308.489461 97.142435 
L 308.443554 97.152212 
L 308.443554 97.041746 
L 308.35174 96.551269 
L 308.305833 96.56101 
L 308.305833 96.449733 
L 308.214019 95.03207 
L 308.168112 95.041706 
L 308.168112 94.928429 
L 308.076298 92.929668 
L 307.938577 92.865282 
L 307.846763 91.432509 
L 307.800856 91.441885 
L 307.800856 91.347407 
L 307.754949 90.525789 
L 307.709042 90.535097 
L 307.663135 90.544406 
L 307.663135 90.448933 
L 307.571321 89.724084 
L 307.525414 89.733333 
L 307.525414 89.636951 
L 307.4336 89.002073 
L 307.387693 89.011268 
L 307.387693 88.914065 
L 307.295878 88.542537 
L 307.249971 88.551699 
L 307.249971 88.453954 
L 307.158157 88.227408 
L 307.11225 88.236548 
L 307.11225 88.138412 
L 307.020436 86.945741 
L 306.928622 86.889146 
L 306.928622 86.864242 
L 306.836808 86.257421 
L 306.744994 86.200108 
L 306.744994 86.175 
L 306.65318 85.689281 
L 306.469552 85.649246 
L 306.469552 85.623961 
L 306.377738 85.083729 
L 306.331831 85.092626 
L 306.331831 84.990781 
L 306.240017 84.343737 
L 306.148203 84.310067 
L 306.148203 84.258693 
L 306.056389 84.01902 
L 306.010482 84.027834 
L 306.010482 83.924691 
L 305.918667 83.502602 
L 305.689132 83.44268 
L 305.597318 82.965491 
L 305.551411 82.974226 
L 305.551411 82.869729 
L 305.459597 82.520466 
L 305.275969 82.450194 
L 305.230062 81.613973 
L 305.184155 81.622594 
L 305.092341 81.533668 
L 305.000527 81.231608 
L 304.862806 81.150693 
L 304.816899 80.811643 
L 304.770992 80.820202 
L 304.679178 80.783717 
L 304.679178 80.730076 
L 304.587363 79.830483 
L 304.403735 79.75592 
L 304.311921 79.364934 
L 304.220107 79.354548 
L 304.220107 79.272714 
L 304.128293 78.934091 
L 304.036479 78.950895 
L 304.036479 78.841228 
L 303.990572 78.547365 
L 303.944665 78.555733 
L 303.898758 78.564103 
L 303.898758 78.453934 
L 303.806944 78.000943 
L 303.761037 78.009262 
L 303.761037 77.898398 
L 303.669223 77.692867 
L 303.577409 77.681645 
L 303.577409 77.598165 
L 303.485595 77.531172 
L 303.393781 77.491976 
L 303.393781 77.436181 
L 303.301967 77.201208 
L 303.210152 77.161727 
L 303.210152 77.105699 
L 303.118338 76.95389 
L 302.888803 76.967003 
L 302.888803 76.882672 
L 302.842896 76.609249 
L 302.796989 76.617459 
L 302.613361 76.565625 
L 302.521547 75.873203 
L 302.292012 75.856993 
L 302.292012 75.828501 
L 302.246105 75.779633 
L 302.200198 75.787778 
L 302.108384 75.775546 
L 302.108384 75.718462 
L 302.01657 75.362819 
L 301.878848 75.301095 
L 301.787034 74.82812 
L 301.649313 74.765699 
L 301.557499 74.463534 
L 301.511592 74.471563 
L 301.511592 74.38457 
L 301.511592 74.297501 
L 301.465685 74.305514 
L 301.006615 73.977955 
L 301.006615 73.94876 
L 300.914801 73.964748 
L 300.639359 73.925055 
L 300.639359 73.895801 
L 300.547544 73.911801 
L 300.363916 73.885258 
L 300.363916 73.855959 
L 300.272102 73.195542 
L 300.180288 73.122825 
L 300.088474 72.7538 
L 300.042567 72.761693 
L 300.042567 72.732021 
L 299.858939 72.525806 
L 299.813032 72.533682 
L 299.813032 72.444351 
L 299.721218 72.131786 
L 299.491683 72.081217 
L 299.399869 71.947059 
L 299.262148 71.880505 
L 299.170333 71.081943 
L 298.940798 70.847619 
L 298.894891 70.55106 
L 298.848984 70.558746 
L 298.665356 70.345289 
L 298.573542 70.085106 
L 298.527635 70.09275 
L 298.527635 70.00073 
L 298.435821 69.492847 
L 298.2981 69.422958 
L 298.206286 69.190613 
L 298.022658 69.127824 
L 297.930844 68.645304 
L 297.701308 68.589183 
L 297.609494 68.541697 
L 297.471773 68.47036 
L 297.379959 68.391406 
L 297.196331 68.390012 
L 297.196331 68.32729 
L 297.150424 68.177778 
L 297.104517 68.185245 
L 296.920889 68.183689 
L 296.920889 68.120766 
L 296.829075 67.250481 
L 296.691354 67.177253 
L 296.645447 67.057347 
L 296.59954 67.064697 
L 296.324097 67.013207 
L 296.27819 66.860951 
L 296.232283 66.868288 
L 296.186376 66.875628 
L 296.186376 66.779719 
L 296.140469 66.370356 
L 296.094562 66.377639 
L 295.956841 66.303052 
L 295.865027 66.124401 
L 295.635492 66.096203 
L 295.635492 66.063926 
L 295.543678 65.916871 
L 295.451864 65.866646 
L 295.451864 65.834271 
L 295.36005 65.589325 
L 295.314143 65.596535 
L 295.314143 65.49907 
L 295.268236 65.408703 
L 295.222329 65.415894 
L 295.130514 65.397728 
L 295.130514 65.332586 
L 295.0387 65.216522 
L 294.900979 65.172747 
L 294.900979 65.140079 
L 294.809165 64.925396 
L 294.487816 64.877069 
L 294.396002 64.727131 
L 294.212374 64.624034 
L 293.891025 64.575036 
L 293.79921 64.391105 
L 293.707396 64.372249 
L 293.707396 64.306063 
L 293.661489 64.147493 
L 293.615582 64.154576 
L 293.431954 64.083339 
L 293.386047 63.957465 
L 293.34014 63.964533 
L 293.248326 63.912108 
L 293.248326 63.878808 
L 293.248326 63.812178 
L 293.156512 63.826286 
L 292.697442 63.462162 
L 292.605628 62.972125 
L 292.513814 62.817442 
L 292.421999 62.730015 
L 292.376092 62.736954 
L 292.376092 62.635517 
L 292.284278 62.446154 
L 292.238371 62.453061 
L 292.238371 62.351288 
L 292.146557 61.888708 
L 292.10065 61.895548 
L 292.10065 61.793172 
L 292.054743 61.663326 
L 292.008836 61.670138 
L 291.962929 61.676953 
L 291.962929 61.574304 
L 291.871115 61.38226 
L 291.779301 61.224094 
L 291.687487 60.962198 
L 291.457952 60.995876 
L 291.457952 60.892338 
L 291.366138 60.698361 
L 291.18251 60.62127 
L 291.090695 60.565315 
L 290.723439 60.514709 
L 290.677532 60.347431 
L 290.631625 60.35411 
L 290.493904 60.37416 
L 290.493904 60.304451 
L 290.447997 60.1017 
L 290.40209 60.108353 
L 290.172555 60.036694 
L 290.080741 59.839722 
L 289.94302 59.824511 
L 289.94302 59.754274 
L 289.897113 59.655438 
L 289.851206 59.662046 
L 289.713484 59.681885 
L 289.713484 59.611484 
L 289.62167 59.342553 
L 289.529856 59.320373 
L 289.529856 59.249676 
L 289.438042 59.085809 
L 289.346228 59.063456 
L 289.346228 59.028 
L 289.300321 58.857057 
L 289.254414 58.863574 
L 289.208507 58.870093 
L 289.208507 58.763433 
L 289.116693 58.420044 
L 288.887158 58.34515 
L 288.795344 58.071522 
L 288.473994 58.080625 
L 288.473994 58.008775 
L 288.473994 57.936876 
L 288.38218 57.949706 
L 288.106738 57.880189 
L 288.014924 57.531938 
L 287.601761 57.48065 
L 287.509947 57.420853 
L 287.46404 57.427222 
L 287.46404 57.318293 
L 287.372226 56.930538 
L 287.096783 56.858824 
L 287.004969 56.688511 
L 286.959062 56.694791 
L 286.959062 56.584875 
L 286.959062 56.107272 
L 286.867248 56.119672 
L 286.775434 56.095233 
L 286.775434 56.021501 
L 286.68362 55.738367 
L 286.545899 55.756835 
L 286.545899 55.645758 
L 286.454085 55.509727 
L 286.22455 55.42893 
L 286.22455 55.391753 
L 286.132736 55.403988 
L 286.040922 55.341796 
L 286.040922 55.304559 
L 285.949108 55.242245 
L 285.581851 55.179096 
L 285.490037 54.891914 
L 285.352316 54.835103 
L 285.260502 54.697005 
L 285.214595 54.703047 
L 285.214595 54.665455 
L 285.122781 54.526989 
L 285.030967 54.46366 
L 284.98506 54.31875 
L 284.939153 54.324744 
L 284.847339 54.336738 
L 284.847339 54.261164 
L 284.755525 53.932312 
L 284.52599 53.886108 
L 284.434175 53.821978 
L 284.342361 53.833851 
L 284.342361 53.757759 
L 284.296454 53.496906 
L 284.250547 53.502797 
L 284.112826 53.444094 
L 284.112826 53.40588 
L 284.021012 53.417647 
L 283.883291 53.358787 
L 283.883291 53.320505 
L 283.791477 53.332258 
L 283.607849 53.355789 
L 283.607849 53.279115 
L 283.516035 52.752482 
L 283.378314 52.692725 
L 283.378314 52.576877 
L 283.2865 52.588434 
L 283.148779 52.528428 
L 283.102872 52.301767 
L 283.011057 52.313256 
L 283.011057 52.235644 
L 282.919243 51.897077 
L 282.781522 51.83617 
L 282.735615 51.763811 
L 282.689708 51.769482 
L 282.643801 51.775155 
L 282.643801 51.697035 
L 282.551987 51.395234 
L 282.414266 51.333642 
L 282.322452 51.030385 
L 282.184731 50.968303 
L 282.092917 50.624034 
L 281.909289 50.566917 
L 281.817475 50.300269 
L 281.72566 50.311211 
L 281.72566 50.231724 
L 281.679753 50.117831 
L 281.633846 50.123276 
L 281.587939 50.128723 
L 281.587939 50.049057 
L 281.496125 49.940288 
L 281.404311 49.911211 
L 281.404311 49.871274 
L 281.312497 49.401588 
L 281.26659 49.40693 
L 281.26659 49.326629 
L 281.174776 48.894463 
L 281.082962 48.864639 
L 281.082962 48.824267 
L 281.037055 48.465457 
L 280.991148 48.470659 
L 280.945241 48.475862 
L 280.945241 48.394771 
L 280.899334 48.23758 
L 280.853427 48.242748 
L 280.761613 48.212439 
L 280.761613 48.171772 
L 280.715706 47.973343 
L 280.669799 47.978474 
L 280.623892 47.983607 
L 280.623892 47.902041 
L 280.577985 47.457414 
L 280.532078 47.462466 
L 280.486171 47.467519 
L 280.486171 47.385526 
L 280.440264 47.14419 
L 280.394356 47.149195 
L 280.348449 47.154201 
L 280.348449 47.071928 
L 280.348449 46.824748 
L 280.256635 46.83466 
L 280.210728 46.839618 
L 280.210728 46.757064 
L 280.164821 46.348263 
L 280.118914 46.353145 
L 280.073007 46.358028 
L 280.073007 46.275069 
L 279.981193 45.952258 
L 279.797565 45.888208 
L 279.705751 45.689135 
L 279.522123 45.666469 
L 279.522123 45.624639 
L 279.430309 45.172891 
L 279.338495 45.14026 
L 279.338495 45.0982 
L 279.292588 44.892328 
L 279.246681 44.89699 
L 279.10896 44.826595 
L 279.10896 44.784375 
L 279.017145 44.793673 
L 278.695796 44.783973 
L 278.695796 44.741659 
L 278.603982 44.666256 
L 278.512168 44.675536 
L 278.512168 44.590741 
L 278.420354 44.430163 
L 278.374447 44.434766 
L 278.374447 44.349738 
L 278.32854 44.05618 
L 278.282633 44.060723 
L 277.777656 43.382 
L 277.54812 43.404222 
L 277.54812 43.3181 
L 277.502213 43.063734 
L 277.456306 43.068127 
L 277.318585 42.994859 
L 277.226771 42.613636 
L 277.08905 42.539716 
L 277.043143 42.370019 
L 276.997236 42.374303 
L 276.813608 42.304275 
L 276.767701 41.915363 
L 276.721794 41.919573 
L 276.492259 41.853003 
L 276.400445 41.773669 
L 276.354537 41.777863 
L 276.354537 41.690034 
L 276.262723 41.61047 
L 276.125002 41.53494 
L 276.033188 41.057669 
L 275.987281 41.061745 
L 275.987281 40.973221 
L 275.895467 40.670869 
L 275.757746 40.593999 
L 275.665932 40.290173 
L 275.39049 40.224547 
L 275.298676 40.008696 
L 275.160955 39.975595 
L 275.160955 39.930754 
L 275.069141 39.624065 
L 275.023233 39.627907 
L 275.023233 39.537883 
L 274.931419 39.365217 
L 274.885512 39.369016 
L 274.885512 39.278734 
L 274.839605 39.101711 
L 274.793698 39.105464 
L 274.426442 39.090222 
L 274.426442 39.044886 
L 274.426442 38.954161 
L 274.334628 38.96163 
L 273.967372 38.946094 
L 273.967372 38.900606 
L 273.875558 38.63467 
L 273.69193 38.60376 
L 273.69193 38.55808 
L 273.600115 38.336681 
L 273.232859 38.274057 
L 273.141045 38.097521 
L 273.049231 38.012682 
L 272.957417 37.835489 
L 272.773789 37.803552 
L 272.773789 37.757363 
L 272.773789 37.711155 
L 272.681975 37.71823 
L 272.498347 37.639826 
L 272.406533 37.554205 
L 272.360626 37.55772 
L 272.360626 37.46495 
L 272.268811 37.193098 
L 272.13109 37.110304 
L 272.039276 36.837184 
L 271.763834 36.763951 
L 271.67202 36.348503 
L 271.396578 36.27421 
L 271.304764 35.997837 
L 271.258857 36.001082 
L 271.258857 35.906592 
L 271.258857 35.859319 
L 271.167043 35.865758 
L 270.8916 35.790361 
L 270.8916 35.69554 
L 270.799786 35.701929 
L 270.157088 35.651613 
L 270.065274 35.46734 
L 269.835739 35.435408 
L 269.835739 35.387629 
L 269.835739 35.244175 
L 269.743925 35.250425 
L 269.698018 35.253552 
L 269.698018 35.157765 
L 269.698018 35.109842 
L 269.606203 35.116045 
L 269.19304 35.095981 
L 269.19304 35.047919 
L 269.101226 34.717006 
L 268.825784 34.686942 
L 268.825784 34.638631 
L 268.825784 34.493578 
L 268.73397 34.499572 
L 268.596249 34.508571 
L 268.596249 34.411678 
L 268.550342 34.269146 
L 268.504435 34.272103 
L 268.045364 34.204425 
L 267.95355 34.015385 
L 267.49448 33.995724 
L 267.49448 33.946823 
L 267.402666 33.707743 
L 266.530432 33.713151 
L 266.530432 33.663909 
L 266.438618 33.521739 
L 266.163176 33.439983 
L 266.117269 33.343889 
L 266.071362 33.3467 
L 265.887734 33.357956 
L 265.887734 33.258853 
L 265.887734 33.20927 
L 265.79592 33.214847 
L 265.566384 33.179138 
L 265.566384 33.129446 
L 265.520477 32.833577 
L 265.47457 32.836295 
L 265.061407 32.860815 
L 265.061407 32.760903 
L 265.061407 32.710916 
L 264.969593 32.716318 
L 264.602337 32.637736 
L 264.55643 32.489887 
L 264.510523 32.49255 
L 263.867824 32.429185 
L 263.77601 32.333614 
L 263.408754 32.253643 
L 263.362847 32.0537 
L 263.31694 32.056291 
L 262.628334 31.993548 
L 262.53652 31.896856 
L 262.123357 31.817884 
L 262.123357 31.76678 
L 262.031543 31.771879 
L 261.710194 31.6873 
L 261.664287 31.535954 
L 261.61838 31.538462 
L 260.929774 31.473172 
L 260.929774 31.421622 
L 260.83796 31.426609 
L 260.149354 31.360629 
L 260.149354 31.308832 
L 260.05754 31.313793 
L 259.919819 31.26937 
L 259.919819 31.217476 
L 259.828005 31.118506 
L 259.59847 31.026644 
L 259.59847 30.922458 
L 259.506656 30.927273 
L 259.1394 30.89434 
L 259.1394 30.842082 
L 259.093493 30.739874 
L 259.047586 30.742249 
L 258.726236 30.654035 
L 258.726236 30.601567 
L 258.634422 30.606269 
L 258.221259 30.522234 
L 258.175352 30.419214 
L 258.129445 30.421533 
L 257.854003 30.329862 
L 257.854003 30.277024 
L 257.762189 30.281611 
L 257.440839 30.297698 
L 257.440839 30.191753 
L 257.349025 30.090231 
L 256.706327 30.068722 
L 256.706327 30.015466 
L 256.66042 29.911111 
L 256.614513 29.913341 
L 256.430885 29.815456 
L 256.339071 29.712928 
L 256.109535 29.616733 
L 256.109535 29.563117 
L 256.017721 29.567442 
L 254.96186 29.509577 
L 254.96186 29.455603 
L 254.870046 29.459906 
L 253.630556 29.40969 
L 253.630556 29.246465 
L 253.538742 29.250707 
L 252.48288 29.190244 
L 252.48288 29.135442 
L 252.391066 29.139661 
L 251.886088 29.052947 
L 251.886088 28.997914 
L 251.794274 29.002087 
L 251.24339 28.916724 
L 251.24339 28.861447 
L 251.151576 28.865574 
L 249.728458 28.818582 
L 249.728458 28.762827 
L 249.636644 28.766942 
L 249.22348 28.72959 
L 249.22348 28.673648 
L 249.131666 28.677734 
L 248.810317 28.635986 
L 248.76441 28.525762 
L 248.718503 28.527776 
L 248.672596 28.529792 
L 248.672596 28.473597 
L 248.672596 28.417375 
L 248.580782 28.421359 
L 247.433106 28.414884 
L 247.433106 28.358269 
L 247.341292 28.362253 
L 246.7445 28.331403 
L 246.698593 28.219626 
L 246.652686 28.221594 
L 245.964081 28.194089 
L 245.918174 28.08169 
L 245.872267 28.083635 
L 245.596825 28.038006 
L 245.550918 27.925206 
L 245.505011 27.927119 
L 245.04594 27.888742 
L 245.04594 27.831161 
L 244.954126 27.834955 
L 244.449149 27.798105 
L 244.449149 27.740299 
L 244.357335 27.744063 
L 244.1278 27.695561 
L 244.1278 27.637607 
L 244.035985 27.64133 
L 243.34738 27.611159 
L 243.255566 27.44001 
L 243.071938 27.38891 
L 243.071938 27.330481 
L 242.980124 27.334083 
L 242.56696 27.291729 
L 242.475146 27.17797 
L 242.291518 27.185059 
L 242.291518 27.126285 
L 242.199704 27.012121 
L 241.557006 26.977408 
L 241.557006 26.9183 
L 241.465192 26.921739 
L 241.189749 26.932075 
L 241.189749 26.872828 
L 241.189749 26.813553 
L 241.097935 26.816949 
L 240.087981 26.794887 
L 240.087981 26.735217 
L 239.996166 26.738596 
L 239.215747 26.707489 
L 239.215747 26.527406 
L 239.123933 26.530703 
L 238.986212 26.535655 
L 238.986212 26.475497 
L 238.986212 26.415309 
L 238.894398 26.418557 
L 238.251699 26.380931 
L 238.205792 26.261538 
L 238.159885 26.263132 
L 237.195837 26.235904 
L 237.195837 26.175 
L 237.104023 26.178164 
L 236.094069 26.213174 
L 236.094069 26.151884 
L 236.094069 26.029213 
L 236.002254 26.032326 
L 235.084114 26.001909 
L 235.084114 25.940166 
L 234.9923 25.943252 
L 234.120066 25.910634 
L 234.074159 25.787867 
L 234.028252 25.789381 
L 233.431461 25.746714 
L 233.431461 25.684264 
L 233.339646 25.687252 
L 233.018297 25.635115 
L 233.018297 25.572461 
L 232.926483 25.575401 
L 232.191971 25.536061 
L 232.191971 25.473062 
L 232.100157 25.475966 
L 231.778807 25.42298 
L 231.778807 25.359774 
L 231.686993 25.362628 
L 230.631131 25.332025 
L 230.631131 25.268354 
L 230.539317 25.271181 
L 230.126154 25.220057 
L 230.126154 25.156143 
L 230.03434 25.158921 
L 228.840757 25.130896 
L 228.748943 25.004706 
L 226.63722 25.002753 
L 226.545405 24.874722 
L 224.433682 24.871103 
L 224.433682 24.804831 
L 224.341868 24.807519 
L 223.83689 24.755819 
L 223.83689 24.689248 
L 223.745076 24.691885 
L 222.413772 24.663278 
L 222.413772 24.596085 
L 222.321958 24.598694 
L 221.128375 24.632877 
L 221.128375 24.565141 
L 221.128375 24.497368 
L 221.036561 24.499945 
L 219.383908 24.478304 
L 219.383908 24.409756 
L 219.292094 24.412313 
L 218.373953 24.369038 
L 218.373953 24.3 
L 218.282139 24.302513 
L 217.96079 24.242082 
L 217.96079 24.172796 
L 217.868976 24.175245 
L 216.399951 24.144828 
L 216.399951 24.074809 
L 216.308137 24.077228 
L 212.08469 24.119582 
L 211.946969 24.051309 
L 210.294315 24.023464 
L 210.294315 23.950588 
L 210.202501 23.953031 
L 209.14664 23.907884 
L 209.14664 23.834391 
L 209.054825 23.836784 
L 207.539893 23.802397 
L 207.539893 23.728058 
L 207.448079 23.730414 
L 205.841333 23.696907 
L 205.841333 23.621656 
L 205.749519 23.623976 
L 201.342444 23.661163 
L 201.342444 23.583547 
L 201.25063 23.585915 
L 200.745652 23.521018 
L 200.745652 23.442992 
L 200.653838 23.445283 
L 197.164904 23.454528 
L 197.118997 23.295484 
L 197.07309 23.296612 
L 196.705833 23.225243 
L 196.705833 23.144772 
L 196.614019 23.146939 
L 191.105175 23.198517 
L 191.105175 23.114671 
L 191.013361 23.116909 
L 188.029404 23.105488 
L 188.029404 23.019613 
L 187.93759 23.021838 
L 184.265027 23.025027 
L 184.265027 22.936558 
L 184.173213 22.93879 
L 183.622329 22.863282 
L 183.622329 22.774249 
L 183.576421 22.775313 
L 181.189256 22.740919 
L 181.189256 22.650055 
L 181.097442 22.652136 
L 178.847997 22.611454 
L 178.847997 22.51875 
L 178.756183 22.520774 
L 175.680412 22.495187 
L 175.680412 22.399924 
L 175.588598 22.401912 
L 172.099663 22.38156 
L 172.099663 22.283248 
L 172.007849 22.285207 
L 164.203653 22.358376 
L 164.203653 22.252814 
L 164.111839 22.254892 
L 159.980206 22.242291 
L 159.980206 22.132305 
L 159.888392 22.134363 
L 149.375681 22.274227 
L 149.375681 22.15167 
L 149.283867 22.153982 
L 147.585307 22.197596 
L 147.585307 22.072545 
L 147.493493 22.074824 
L 146.345817 22.103707 
L 146.345817 21.976829 
L 146.254003 21.979044 
L 144.509535 22.021992 
L 144.509535 21.892372 
L 144.417721 21.894545 
L 140.194274 21.999673 
L 140.194274 21.863319 
L 140.10246 21.865574 
L 135.557664 21.983709 
L 135.557664 21.839306 
L 135.46585 21.841667 
L 135.328129 21.845217 
L 135.328129 21.700232 
L 135.236315 21.702439 
L 131.976915 21.784252 
L 131.976915 21.632727 
L 131.885101 21.634951 
L 129.130679 21.704282 
L 128.992958 21.55 
L 128.947051 21.551105 
L 128.947051 21.39292 
L 128.855237 21.394937 
L 120.362435 21.606452 
L 120.362435 21.426973 
L 120.270621 21.42931 
L 119.398388 21.451857 
L 119.398388 21.269388 
L 119.306574 21.271533 
L 118.89341 21.281264 
L 118.89341 21.097059 
L 118.801596 21.098969 
L 116.506245 21.148624 
L 116.506245 20.956848 
L 116.414431 20.958621 
L 116.184895 20.963077 
L 116.184895 20.769977 
L 116.093081 20.771473 
L 113.981358 20.807194 
L 113.981358 20.6064 
L 113.889544 20.607692 
L 106.544418 20.726471 
L 106.544418 20.495492 
L 106.452604 20.496774 
L 105.672185 20.507865 
L 105.672185 20.272352 
L 105.58037 20.273239 
L 105.167207 20.277273 
L 105.167207 20.038863 
L 105.075393 20.039316 
L 104.111345 20.044186 
L 104.111345 19.8 
L 104.019531 19.8 
L 56.781193 19.8 
L 56.781193 19.8 
" clip-path="url(#peb9a5324b6)" style="fill: none; stroke: #1f77b4; stroke-width: 2; stroke-linecap: square"/>
   </g>
   <g id="line2d_14">
    <path d="M 310.417557 263.358313 
L 310.417557 240.921852 
L 309.94786 240.972038 
L 309.94786 240.866727 
L 309.94786 109.131737 
L 309.478163 109.238849 
L 309.478163 48.445799 
L 309.008466 48.493069 
L 309.008466 48.123967 
L 308.538769 48.170861 
L 308.538769 46.304174 
L 308.069072 46.348495 
L 308.069072 41.338462 
L 307.599375 41.375342 
L 307.599375 40.980103 
L 307.129678 41.016495 
L 307.129678 37.8 
L 306.659981 37.831414 
L 306.659981 37.011909 
L 306.190284 37.042105 
L 306.190284 35.383039 
L 305.25089 35.438298 
L 305.25089 35.018472 
L 304.781193 35.045552 
L 304.781193 34.623529 
L 303.372102 34.703226 
L 303.372102 33.85036 
L 302.902405 33.875676 
L 302.902405 33.446209 
L 301.023617 33.545455 
L 301.023617 33.111475 
L 299.14483 33.209174 
L 299.14483 32.770588 
L 298.675133 32.794475 
L 298.675133 31.910906 
L 298.205436 31.933333 
L 298.205436 31.488312 
L 296.796345 31.553731 
L 296.796345 31.104673 
L 295.856951 31.147092 
L 295.856951 30.240678 
L 295.387254 30.260377 
L 295.387254 29.345455 
L 294.917557 29.363567 
L 294.917557 28.902662 
L 294.44786 28.92 
L 294.44786 28.456489 
L 293.508466 28.489655 
L 293.508466 27.553846 
L 293.038769 27.568786 
L 293.038769 27.097297 
L 292.099375 27.125581 
L 292.099375 26.650485 
L 284.584223 26.87014 
L 284.584223 25.38871 
L 283.64483 25.411336 
L 283.64483 24.911562 
L 283.175133 24.921951 
L 283.175133 24.419145 
L 282.235739 24.438037 
L 282.235739 23.931148 
L 278.478163 24 
L 278.478163 23.482672 
L 278.008466 23.490377 
L 278.008466 22.969811 
L 273.781193 23.030769 
L 273.781193 22.498073 
L 273.311496 22.503863 
L 273.311496 21.967742 
L 257.811496 22.133333 
L 257.811496 21.55406 
L 237.614527 21.748454 
L 237.614527 21.102326 
L 232.917557 21.13687 
L 232.917557 20.470213 
L 174.205436 20.803984 
L 151.190284 21.047525 
L 151.190284 19.8 
L 56.781193 19.8 
L 56.781193 19.8 
" clip-path="url(#peb9a5324b6)" style="fill: none; stroke: #ff7f0e; stroke-width: 2; stroke-linecap: square"/>
   </g>
   <g id="line2d_15">
    <path d="M 310.417557 150.755583 
L 310.319286 122.817415 
L 310.286529 122.825285 
L 310.286529 122.711398 
L 310.188259 116.041611 
L 310.155502 116.049301 
L 310.155502 115.937214 
L 310.057231 113.529835 
L 310.024475 113.537449 
L 310.024475 113.434531 
L 309.926204 110.813309 
L 309.893447 110.820833 
L 309.893447 110.714295 
L 309.795176 105.890692 
L 309.76242 105.898031 
L 309.76242 105.784816 
L 309.664149 96.361277 
L 309.631392 96.368182 
L 309.631392 96.257359 
L 309.533122 93.329876 
L 309.500365 93.336626 
L 309.500365 93.238281 
L 309.402094 88.440815 
L 309.369337 88.447292 
L 309.369337 88.343429 
L 309.271067 79.576744 
L 309.23831 79.58266 
L 309.23831 79.487494 
L 309.140039 74.241437 
L 309.107282 74.246977 
L 309.107282 74.146401 
L 309.009012 72.498439 
L 308.976255 72.503852 
L 308.976255 72.401439 
L 308.877984 68.892279 
L 308.845228 68.897416 
L 308.845228 68.791206 
L 308.746957 65.545052 
L 308.7142 65.54992 
L 308.7142 65.440119 
L 308.61593 63.815459 
L 308.583173 63.820185 
L 308.583173 63.708476 
L 308.484902 59.804379 
L 308.419388 59.789924 
L 308.419388 59.720245 
L 308.321118 57.763057 
L 308.288361 57.767257 
L 308.288361 57.67251 
L 308.19009 57.019323 
L 308.124577 57.003733 
L 308.124577 56.932126 
L 308.026306 53.646501 
L 307.993549 53.650322 
L 307.993549 53.551779 
L 307.895279 52.148835 
L 307.862522 52.152513 
L 307.862522 52.05256 
L 307.764251 50.273612 
L 307.633224 50.262174 
L 307.633224 50.185852 
L 307.56771 49.298328 
L 307.534953 49.30173 
L 307.403926 49.238301 
L 307.403926 49.212607 
L 307.305655 48.578318 
L 307.240141 48.481502 
L 307.141871 47.633799 
L 307.076357 47.614181 
L 307.076357 47.535849 
L 306.978087 47.336327 
L 306.94533 47.339538 
L 306.94533 47.234772 
L 306.879816 46.71577 
L 306.847059 46.718919 
L 306.781545 46.61981 
L 306.683275 46.232946 
L 306.585004 46.136308 
L 306.519491 45.85057 
L 306.486734 45.853634 
L 306.388463 45.783051 
L 306.388463 45.756445 
L 306.290193 45.124988 
L 306.257436 45.127979 
L 306.257436 45.020844 
L 306.159165 44.519346 
L 306.060894 44.447303 
L 306.060894 44.420346 
L 305.962624 44.132067 
L 305.929867 44.134957 
L 305.929867 44.026738 
L 305.831596 43.301968 
L 305.766083 43.307575 
L 305.766083 43.198496 
L 305.667812 42.933636 
L 305.635055 42.936402 
L 305.635055 42.826911 
L 305.536785 42.285968 
L 305.504028 42.288665 
L 305.504028 42.178495 
L 305.405757 41.772339 
L 305.307487 41.72491 
L 305.307487 41.669523 
L 305.209216 41.51105 
L 305.176459 41.513666 
L 305.176459 41.402604 
L 305.078189 40.937056 
L 305.045432 40.939611 
L 305.045432 40.855865 
L 304.979918 40.693246 
L 304.947161 40.695775 
L 304.881648 40.644859 
L 304.881648 40.61686 
L 304.783377 40.372052 
L 304.75062 40.374548 
L 304.75062 40.290291 
L 304.65235 40.044531 
L 304.586836 40.021277 
L 304.586836 39.964903 
L 304.488565 39.548446 
L 304.423052 39.553261 
L 304.423052 39.468293 
L 304.324781 38.878767 
L 304.193754 38.802571 
L 304.12824 38.407138 
L 304.095483 38.409421 
L 303.997212 38.330322 
L 303.898942 38.164999 
L 303.702401 38.092323 
L 303.636887 37.780037 
L 303.60413 37.782253 
L 303.571373 37.784469 
L 303.571373 37.697904 
L 303.505859 37.297405 
L 303.473103 37.299568 
L 303.374832 37.248071 
L 303.374832 37.219068 
L 303.276561 36.905909 
L 303.211048 36.851927 
L 303.211048 36.822806 
L 303.112777 36.625019 
L 302.98175 36.545746 
L 302.883479 36.200697 
L 302.719695 36.152223 
L 302.719695 36.12287 
L 302.621424 35.893801 
L 302.45764 35.844944 
L 302.45764 35.815483 
L 302.359369 35.408108 
L 302.195585 35.329058 
L 302.130071 35.244041 
L 302.097314 35.245976 
L 301.999044 35.222122 
L 301.999044 35.16277 
L 301.966287 35.075602 
L 301.900773 35.079438 
L 301.769746 34.997889 
L 301.671475 34.824906 
L 301.474934 34.746732 
L 301.376664 34.483314 
L 301.180122 34.464479 
L 301.180122 34.404545 
L 301.114609 34.288249 
L 301.081852 34.29008 
L 301.016338 34.293743 
L 301.016338 34.203642 
L 300.918068 34.118907 
L 300.852554 34.03224 
L 300.78704 33.855013 
L 300.754283 33.856795 
L 300.623256 33.803552 
L 300.623256 33.773354 
L 300.033632 33.137584 
L 299.968119 33.019145 
L 299.935362 33.020832 
L 299.673307 32.667673 
L 299.575036 32.39677 
L 299.411252 32.343425 
L 299.411252 32.312702 
L 299.312981 32.071361 
L 299.247468 32.043702 
L 299.247468 31.982052 
L 299.214711 31.921929 
L 299.181954 31.923489 
L 299.050927 31.775274 
L 298.952656 31.56325 
L 298.363032 31.248615 
L 298.264762 31.159585 
L 298.133734 31.071879 
L 298.035464 30.826227 
L 297.904436 30.738012 
L 297.904436 30.706681 
L 297.806166 30.710935 
L 297.609625 30.625306 
L 297.511354 30.535279 
L 297.249299 30.452055 
L 297.183786 30.297258 
L 297.151029 30.298629 
L 296.856217 30.279404 
L 296.856217 30.21622 
L 296.856217 30.184615 
L 296.757946 30.188693 
L 296.135566 30.119464 
L 296.037295 29.932983 
L 295.840754 29.909167 
L 295.840754 29.84552 
L 295.840754 29.813684 
L 295.742484 29.817639 
L 295.545943 29.761787 
L 295.447672 29.638037 
L 295.120103 29.555054 
L 295.021833 29.462832 
L 294.890805 29.435883 
L 294.890805 29.371731 
L 294.792535 29.182801 
L 294.595994 29.093712 
L 294.53048 29.031749 
L 294.497723 29.032975 
L 294.170154 28.948404 
L 294.071884 28.822761 
L 293.875343 28.732836 
L 293.809829 28.573109 
L 293.777072 28.57428 
L 293.416747 28.489655 
L 293.351233 28.296655 
L 293.318476 28.297792 
L 293.154692 28.238253 
L 293.154692 28.205626 
L 293.154692 28.17299 
L 293.056421 28.176357 
L 292.958151 28.08169 
L 292.958151 28.016289 
L 292.85988 28.019597 
L 292.728853 27.991269 
L 292.728853 27.925756 
L 292.696096 27.828498 
L 292.630582 27.830658 
L 292.106472 27.749312 
L 291.549606 27.305076 
L 291.254794 27.21478 
L 291.09101 27.120212 
L 290.828955 27.028385 
L 290.763441 26.897143 
L 290.66517 26.900041 
L 290.66517 26.833356 
L 290.66517 26.733261 
L 290.5669 26.736095 
L 290.239331 26.645209 
L 290.173818 26.580115 
L 289.747978 26.525058 
L 289.747978 26.491486 
L 289.682465 26.42613 
L 289.649708 26.427037 
L 288.8963 26.346804 
L 288.863543 26.246431 
L 288.79803 26.248205 
L 288.535975 26.187657 
L 288.535975 26.153816 
L 288.175649 26.095652 
L 287.913594 26.000719 
L 287.880837 25.933591 
L 287.848081 25.93444 
L 287.323971 25.845763 
L 287.2257 25.711716 
L 287.029159 25.648249 
L 287.029159 25.614038 
L 286.832618 25.550383 
L 286.505049 25.455422 
L 286.505049 25.421079 
L 286.406779 25.423431 
L 286.046453 25.328787 
L 285.98094 25.226933 
L 285.948183 25.227692 
L 285.358559 25.137635 
L 285.358559 25.10303 
L 285.260289 25.105263 
L 284.801693 25.011593 
L 284.801693 24.976868 
L 284.703422 24.979054 
L 284.179312 24.955919 
L 284.179312 24.886239 
L 284.179312 24.851383 
L 284.081042 24.853524 
L 283.753473 24.755857 
L 283.720716 24.686624 
L 283.655203 24.688008 
L 283.196607 24.627586 
L 283.196607 24.592506 
L 283.196607 24.522317 
L 283.098336 24.524329 
L 282.73801 24.426156 
L 282.63974 24.322433 
L 282.11563 24.226735 
L 282.11563 24.191373 
L 282.01736 24.193255 
L 281.362222 24.134862 
L 281.362222 24.099355 
L 281.362222 24.063837 
L 281.263952 24.065672 
L 280.477787 23.973387 
L 280.477787 23.937693 
L 280.379517 23.939481 
L 279.495081 23.848046 
L 279.396811 23.742063 
L 278.610646 23.647608 
L 278.512376 23.577066 
L 277.52967 23.484749 
L 277.52967 23.448435 
L 277.431399 23.450037 
L 276.612478 23.353989 
L 276.612478 23.317485 
L 276.514207 23.319036 
L 276.121125 23.215439 
L 276.022854 23.143653 
L 274.548796 23.055234 
L 274.548796 23.018295 
L 274.450525 23.01973 
L 272.4196 22.975041 
L 272.4196 22.937714 
L 272.321329 22.939127 
L 270.552459 22.889451 
L 270.552459 22.851771 
L 270.454188 22.853158 
L 269.864565 22.785873 
L 269.864565 22.74804 
L 269.766294 22.749384 
L 269.274941 22.718178 
L 269.274941 22.680219 
L 269.274941 22.64225 
L 269.176671 22.64355 
L 267.4078 22.590526 
L 267.4078 22.552192 
L 267.30953 22.553463 
L 265.835471 22.495396 
L 265.835471 22.456744 
L 265.7372 22.45798 
L 264.197628 22.399562 
L 264.132114 22.322365 
L 262.428758 22.264353 
L 262.363244 22.186364 
L 262.330487 22.18674 
L 260.332319 22.130357 
L 260.332319 22.090544 
L 260.234048 22.09164 
L 259.218585 22.022935 
L 259.218585 21.982868 
L 259.120315 21.983919 
L 258.039338 21.914913 
L 257.941068 21.835212 
L 255.680844 21.776471 
L 255.582574 21.65476 
L 253.322351 21.593149 
L 253.289594 21.469151 
L 253.22408 21.469703 
L 252.863755 21.389641 
L 252.863755 21.348066 
L 252.765484 21.348837 
L 247.426116 21.306405 
L 247.426116 21.263615 
L 247.327845 21.264365 
L 245.526218 21.191785 
L 245.526218 21.148524 
L 245.427947 21.149223 
L 242.47983 21.082555 
L 242.447073 20.994732 
L 242.414316 20.994942 
L 241.202313 20.914058 
L 241.169556 20.825478 
L 241.104042 20.825841 
L 238.188681 20.75197 
L 238.188681 20.706801 
L 238.090411 20.707291 
L 235.993972 20.62638 
L 235.993972 20.580612 
L 235.895701 20.581039 
L 231.014929 20.508661 
L 231.014929 20.461541 
L 230.916659 20.461914 
L 226.822051 20.381203 
L 226.822051 20.332872 
L 226.723781 20.333179 
L 222.792957 20.246721 
L 222.694687 20.147792 
L 215.750233 20.059366 
L 215.717476 19.955716 
L 215.651962 19.95578 
L 137.166527 20.005212 
L 136.052793 19.904089 
L 130.746182 19.8 
L 56.781193 19.8 
L 56.781193 19.8 
" clip-path="url(#peb9a5324b6)" style="fill: none; stroke: #2ca02c; stroke-width: 2; stroke-linecap: square"/>
   </g>
   <g id="line2d_16">
    <path d="M 310.417557 267.688586 
L 310.417557 264.932021 
L 309.45316 264.957426 
L 309.45316 264.846445 
L 309.45316 183.295979 
L 308.488763 183.515436 
L 308.488763 94.993548 
L 307.524366 95.196226 
L 307.524366 61.124759 
L 306.55997 61.258065 
L 306.55997 37.864516 
L 305.595573 37.929496 
L 305.595573 33.646154 
L 304.631176 33.697059 
L 304.631176 31.933333 
L 303.666779 31.978439 
L 303.666779 31.083582 
L 302.702382 31.125843 
L 302.702382 30.221053 
L 298.844795 30.380153 
L 298.844795 29.455172 
L 295.951605 29.567442 
L 295.951605 24.780237 
L 291.12962 24.880645 
L 291.12962 23.880972 
L 288.23643 23.931148 
L 288.23643 22.911111 
L 281.485652 23.00339 
L 281.485652 21.944681 
L 273.770478 22.020264 
L 273.770478 20.915044 
L 232.301414 21.177049 
L 232.301414 19.8 
L 56.781193 19.8 
L 56.781193 19.8 
" clip-path="url(#peb9a5324b6)" style="fill: none; stroke: #d62728; stroke-width: 2; stroke-linecap: square"/>
   </g>
   <g id="line2d_17">
    <path d="M 310.417557 268.266998 
L 310.417557 259.435258 
L 309.295272 259.487296 
L 309.295272 259.376687 
L 309.295272 258.977748 
L 308.172987 259.031848 
L 308.172987 258.92115 
L 308.172987 258.571034 
L 307.050702 258.627004 
L 307.050702 258.518034 
L 307.050702 249.831274 
L 305.928418 249.921236 
L 305.928418 249.818075 
L 305.928418 241.345999 
L 304.806133 241.466667 
L 304.806133 241.367213 
L 304.806133 239.682353 
L 303.683848 239.809233 
L 303.683848 239.698089 
L 303.683848 239.207407 
L 302.561563 239.336471 
L 302.561563 239.240708 
L 302.561563 238.832258 
L 301.439278 238.96318 
L 301.439278 238.864748 
L 301.439278 237.529258 
L 300.316994 237.665169 
L 300.316994 237.558297 
L 300.316994 221.768893 
L 299.194709 221.953846 
L 299.194709 221.862385 
L 299.194709 219.461538 
L 298.072424 219.653705 
L 298.072424 212.844614 
L 296.950139 213.054902 
L 296.950139 212.99084 
L 296.950139 210.168 
L 295.827854 210.385812 
L 295.827854 210.315464 
L 295.827854 209.746821 
L 294.70557 209.966667 
L 294.70557 209.895017 
L 294.70557 209.095775 
L 293.583285 209.318214 
L 293.583285 209.244706 
L 293.583285 206.478133 
L 292.461 206.707749 
L 292.461 206.627586 
L 292.461 202.803911 
L 291.338715 203.04282 
L 291.338715 202.952941 
L 291.338715 196.774359 
L 290.216431 197.026819 
L 290.216431 196.92 
L 290.216431 194.261538 
L 289.094146 194.52 
L 289.094146 193.943284 
L 287.971861 194.203587 
L 287.971861 193.501357 
L 286.849576 193.763746 
L 286.849576 193.05 
L 285.727291 193.314504 
L 285.727291 192.710769 
L 284.605007 192.977196 
L 284.605007 192.24168 
L 283.482722 192.51028 
L 283.482722 188.759217 
L 282.360437 189.035294 
L 282.360437 186.094416 
L 281.238152 186.376271 
L 281.238152 180.329946 
L 280.115867 180.621818 
L 280.115867 175.175723 
L 278.993583 175.475676 
L 278.993583 173.579528 
L 277.871298 173.88284 
L 277.871298 171.912676 
L 276.749013 172.219355 
L 276.749013 172.018182 
L 275.626728 172.326316 
L 275.626728 168.129114 
L 274.504443 168.442706 
L 274.504443 166.664516 
L 273.382159 166.981034 
L 273.382159 165.839216 
L 272.259874 166.158079 
L 272.259874 165.227313 
L 271.137589 165.548344 
L 271.137589 163.394595 
L 270.015304 163.474208 
L 270.015304 161.731034 
L 266.64845 162.716667 
L 266.64845 162.463573 
L 265.526165 162.795349 
L 265.526165 162.029508 
L 264.40388 162.36338 
L 264.40388 160.8 
L 263.281595 161.136516 
L 263.281595 160.338462 
L 262.159311 160.677108 
L 262.159311 159.867961 
L 261.037026 160.208759 
L 261.037026 156.563819 
L 259.914741 156.908312 
L 259.914741 155.442857 
L 258.792456 155.78977 
L 258.792456 154.892784 
L 257.670171 155.24186 
L 257.670171 154.33125 
L 256.547887 154.682507 
L 256.547887 154.375916 
L 253.181032 155.441161 
L 253.181032 146.158974 
L 252.058747 146.52 
L 252.058747 145.8 
L 250.936463 146.163112 
L 250.936463 144.326316 
L 249.814178 144.691496 
L 249.814178 142.8 
L 248.691893 142.782036 
L 248.691893 142.004819 
L 247.569608 141.981818 
L 246.447324 141.161963 
L 246.447324 134.861093 
L 245.325039 134.790291 
L 245.325039 132.077228 
L 244.202754 131.986047 
L 244.202754 129.624324 
L 243.080469 129.028669 
L 243.080469 126.55 
L 241.958184 126.921951 
L 241.958184 122.231655 
L 240.8359 122.06087 
L 240.8359 119.298155 
L 239.713615 119.666667 
L 239.713615 118.531343 
L 238.59133 118.326316 
L 237.469045 118.698113 
L 237.469045 118.118182 
L 236.34676 118.492015 
L 236.34676 113.682353 
L 234.102191 113.8 
L 232.979906 114.174502 
L 232.979906 112.908434 
L 231.857621 112.642105 
L 231.857621 102.351724 
L 230.735336 102.709091 
L 230.735336 99.729515 
L 229.613052 100.083186 
L 229.613052 88.743396 
L 228.490767 89.070142 
L 228.490767 81.868966 
L 227.368482 82.176238 
L 227.368482 80.28 
L 225.123912 80.890909 
L 225.123912 78.942857 
L 224.001628 79.246154 
L 224.001628 77.250777 
L 221.757058 77.852356 
L 221.757058 76.831579 
L 220.634773 77.133333 
L 220.634773 71.843478 
L 218.390204 72.415385 
L 218.390204 70.2 
L 216.145634 70.766292 
L 216.145634 69.630508 
L 215.023349 69.913636 
L 215.023349 68.76 
L 212.77878 69.326012 
L 212.77878 65.752941 
L 211.656495 66.024852 
L 211.656495 63.560479 
L 209.411925 64.090909 
L 209.411925 62.82439 
L 208.28964 63.088344 
L 208.28964 60.495652 
L 204.922786 61.268354 
L 204.922786 58.569231 
L 203.800501 58.819355 
L 203.800501 56.035294 
L 201.555932 56.515232 
L 201.555932 55.08 
L 200.433647 55.316779 
L 200.433647 53.854054 
L 198.189077 54.320548 
L 198.189077 52.82069 
L 193.699938 53.757447 
L 193.699938 52.2 
L 192.577653 52.433094 
L 192.577653 50.843478 
L 191.455369 51.070073 
L 191.455369 49.447059 
L 189.210799 49.889552 
L 189.210799 48.221053 
L 183.599375 49.33125 
L 183.599375 47.579528 
L 182.47709 47.8 
L 182.47709 46.008 
L 180.232521 46.434146 
L 180.232521 42.709091 
L 179.110236 42.9 
L 179.110236 40.976471 
L 173.498812 41.905263 
L 173.498812 35.691892 
L 171.254242 35.983486 
L 171.254242 33.8 
L 161.153679 35.072727 
L 156.66454 35.715789 
L 156.66454 30.63871 
L 146.563977 31.8 
L 137.585698 33.063158 
L 129.729705 34.408696 
L 124.118281 35.55 
L 124.118281 31.8 
L 117.384572 33.063158 
L 112.895433 34.064151 
L 112.895433 29.492308 
L 107.284009 30.523404 
L 101.672585 31.8 
L 97.183446 33.063158 
L 94.938876 33.8 
L 94.938876 27 
L 90.449737 27.929032 
L 87.082883 28.8 
L 83.716028 29.88 
L 80.349174 31.254545 
L 78.104604 32.4 
L 75.860035 33.8 
L 73.615465 35.55 
L 71.370896 37.8 
L 71.370896 19.8 
L 56.781193 19.8 
L 56.781193 19.8 
" clip-path="url(#peb9a5324b6)" style="fill: none; stroke: #9467bd; stroke-width: 2; stroke-linecap: square"/>
   </g>
   <g id="line2d_18">
    <path d="M 310.417557 262.842432 
L 310.417557 255.387634 
L 309.97491 255.27162 
L 309.97491 244.967535 
L 309.532264 245.009458 
L 309.532264 244.899271 
L 309.532264 229.025922 
L 309.089618 229.088136 
L 309.089618 228.986289 
L 309.089618 227.630258 
L 308.646971 227.694186 
L 308.646971 227.585384 
L 308.646971 223.226829 
L 308.204325 223.295764 
L 308.204325 223.196944 
L 308.204325 214.083871 
L 307.761679 214.162243 
L 307.761679 214.069091 
L 307.761679 209.186503 
L 307.319032 209.269531 
L 307.319032 209.159684 
L 307.319032 202.189458 
L 306.876386 202.278516 
L 306.876386 202.176528 
L 306.876386 202.040078 
L 306.43374 202.129412 
L 306.43374 202.026804 
L 306.43374 199.507019 
L 305.991093 199.598473 
L 305.991093 199.488073 
L 305.991093 197.983143 
L 305.548447 198.075898 
L 305.548447 197.999062 
L 305.548447 191.966855 
L 305.105801 192.063959 
L 305.105801 191.973913 
L 305.105801 183.109912 
L 304.663154 183.212429 
L 304.663154 183.101069 
L 304.663154 182.313633 
L 304.220508 182.416751 
L 304.220508 182.303177 
L 304.220508 177.38445 
L 303.777861 177.490141 
L 303.777861 177.426846 
L 303.777861 176.012534 
L 303.335215 176.119018 
L 303.335215 176.053752 
L 303.335215 168.057206 
L 302.892569 168.166864 
L 302.892569 168.090155 
L 302.892569 163.438051 
L 302.449922 163.549226 
L 302.449922 163.465376 
L 302.449922 162.959533 
L 302.007276 163.071028 
L 302.007276 162.986282 
L 302.007276 147.372193 
L 301.121983 147.489008 
L 301.121983 146.254874 
L 300.679337 146.369106 
L 300.679337 146.255696 
L 300.679337 143.47098 
L 300.236691 143.466667 
L 300.236691 141.16852 
L 299.794044 141.283019 
L 299.794044 139.662464 
L 299.351398 139.777055 
L 299.351398 139.015385 
L 298.908751 139.002312 
L 298.908751 121.643137 
L 298.466105 121.754198 
L 298.466105 120.433663 
L 298.023459 120.544493 
L 298.023459 113.208776 
L 297.580812 113.316763 
L 297.580812 103.8 
L 297.138166 103.903067 
L 297.138166 101.817391 
L 296.69552 101.919403 
L 296.69552 97.585714 
L 296.252873 97.685057 
L 296.252873 93.588235 
L 295.810227 93.684817 
L 295.810227 86.657143 
L 295.367581 86.748229 
L 295.367581 81.297896 
L 294.924934 81.38427 
L 294.482288 81.202817 
L 294.482288 76.527273 
L 294.039642 76.609249 
L 294.039642 75.759361 
L 293.596995 75.840698 
L 293.596995 68.451584 
L 293.154349 68.525076 
L 293.154349 59.88189 
L 292.711702 59.94511 
L 292.711702 55.510145 
L 292.269056 55.567742 
L 292.269056 55.218417 
L 291.82641 55.275728 
L 291.82641 52.075862 
L 291.383763 52.128947 
L 291.383763 51.039669 
L 290.941117 51.091391 
L 290.941117 46.997302 
L 290.498471 47.043243 
L 290.498471 44.74198 
L 289.613178 44.827397 
L 289.613178 42.867358 
L 289.170532 42.907266 
L 289.170532 41.713043 
L 288.727885 41.75122 
L 288.727885 41.349738 
L 288.285239 41.387413 
L 288.285239 40.172583 
L 287.842593 40.208451 
L 287.842593 39.390106 
L 287.399946 39.424779 
L 287.399946 38.59929 
L 286.514653 38.66631 
L 286.514653 36.992101 
L 284.744068 37.116456 
L 284.744068 32.794475 
L 284.301422 32.81845 
L 284.301422 31.041636 
L 283.858775 31.06257 
L 283.858775 30.613433 
L 283.416129 30.633645 
L 283.416129 29.728705 
L 281.645543 29.803781 
L 281.645543 29.345455 
L 280.760251 29.381749 
L 280.760251 28.92 
L 280.317604 28.937405 
L 280.317604 28.47304 
L 278.989665 28.523077 
L 278.989665 27.111412 
L 276.333787 27.19726 
L 276.333787 26.717647 
L 274.563202 26.772332 
L 274.563202 26.287129 
L 260.841165 26.711392 
L 260.841165 26.193235 
L 258.185286 26.275375 
L 258.185286 25.219355 
L 255.529408 25.290196 
L 255.529408 24.751965 
L 250.660298 24.873826 
L 250.660298 24.320179 
L 249.332359 24.35079 
L 249.332359 23.79095 
L 236.052969 24.081553 
L 236.052969 23.478832 
L 211.707419 24.047191 
L 211.264772 23.359322 
L 186.03393 24.042424 
L 184.705991 24.085714 
L 184.705991 23.240273 
L 178.066296 23.425899 
L 178.066296 22.529242 
L 155.933978 23.130396 
L 154.606038 23.175 
L 154.606038 22.06009 
L 135.129599 22.615642 
L 120.964915 23.228571 
L 110.341403 23.897561 
L 104.587 24.381818 
L 104.144354 22.133333 
L 94.84878 22.696552 
L 88.209085 23.3 
L 83.782621 23.864516 
L 83.782621 19.8 
L 56.781193 19.8 
L 56.781193 19.8 
" clip-path="url(#peb9a5324b6)" style="fill: none; stroke: #8c564b; stroke-width: 2; stroke-linecap: square"/>
   </g>
   <g id="line2d_19">
    <path d="M 310.417557 271.690571 
L 310.417557 271.207258 
L 274.183791 271.291765 
L 274.183791 271.180835 
L 274.183791 271.082392 
L 237.950024 271.201709 
L 237.950024 271.09094 
L 237.950024 270.768903 
L 201.716258 270.974447 
L 201.716258 270.864067 
L 201.716258 270.735586 
L 129.248726 271.215313 
L 129.248726 271.155499 
L 129.248726 271.064234 
L 93.014959 271.431579 
L 93.014959 271.320913 
L 93.014959 270.594258 
L 56.781193 271.8 
L 56.781193 271.8 
L 56.781193 19.8 
L 56.781193 19.8 
" clip-path="url(#peb9a5324b6)" style="fill: none; stroke: #e377c2; stroke-width: 2; stroke-linecap: square"/>
   </g>
   <g id="line2d_20">
    <path d="M 310.417557 270.940199 
L 310.417557 265.75288 
L 305.805987 265.860236 
L 305.805987 265.749311 
L 305.805987 263.502439 
L 301.194416 263.651129 
L 301.194416 263.54026 
L 301.194416 263.047706 
L 296.582846 263.207213 
L 296.582846 263.098805 
L 296.582846 261.594393 
L 291.971276 261.782853 
L 291.971276 261.67234 
L 291.971276 261.342718 
L 287.359706 261.539414 
L 287.359706 261.42963 
L 287.359706 260.757055 
L 278.136565 261.086094 
L 278.136565 261.076596 
L 278.136565 260.833545 
L 273.524995 261.052269 
L 273.524995 260.943905 
L 273.524995 258.264 
L 264.301854 258.720415 
L 264.301854 258.705312 
L 264.301854 258.316052 
L 259.690284 258.6 
L 259.690284 258.489076 
L 259.690284 257.63908 
L 255.078714 257.943223 
L 255.078714 257.836082 
L 255.078714 257.8 
L 250.467144 258.107891 
L 250.467144 258.000782 
L 250.467144 257.781457 
L 245.855573 258.097082 
L 245.855573 257.987166 
L 245.855573 256.356054 
L 241.244003 256.71018 
L 241.244003 256.619277 
L 241.244003 255.900946 
L 236.632433 256.273934 
L 236.632433 256.175199 
L 236.632433 255.337688 
L 232.020863 255.732886 
L 232.020863 255.624324 
L 232.020863 254.452174 
L 227.409292 254.87804 
L 227.409292 254.785401 
L 227.409292 253.869231 
L 222.797722 254.320231 
L 222.797722 254.218605 
L 222.797722 253.619639 
L 213.574582 254.560563 
L 213.574582 254.45587 
L 213.574582 252.969231 
L 208.963011 253.482819 
L 208.963011 253.40177 
L 208.963011 251.615534 
L 199.739871 252.652941 
L 199.739871 251.078515 
L 195.128301 251.693617 
L 195.128301 251.586096 
L 195.128301 251.256522 
L 190.51673 251.887193 
L 190.51673 251.778082 
L 190.51673 250.431579 
L 185.90516 251.107918 
L 185.90516 251.047059 
L 185.90516 249.111897 
L 181.29359 249.851613 
L 181.29359 249.780583 
L 181.29359 248.175 
L 176.68202 248.970732 
L 176.68202 248.890909 
L 176.68202 245.273684 
L 172.070449 246.190244 
L 172.070449 246.085714 
L 172.070449 245.980328 
L 167.458879 246.911111 
L 167.458879 246.808264 
L 167.458879 242.862201 
L 162.847309 243.934615 
L 162.847309 243.388235 
L 158.235739 244.489655 
L 158.235739 243.369231 
L 153.624168 244.521649 
L 153.624168 243.500535 
L 149.012598 244.703226 
L 149.012598 236.8 
L 144.401028 238.317483 
L 144.401028 236.333333 
L 139.789458 237.949254 
L 139.789458 232.696552 
L 135.177887 234.547826 
L 135.177887 228.085714 
L 130.566317 230.23299 
L 130.566317 216.567123 
L 125.954747 219.3 
L 125.954747 207.732203 
L 121.343177 210.972414 
L 121.343177 207.654545 
L 112.120036 214.743396 
L 112.120036 203.072727 
L 107.508466 207.334884 
L 102.896896 211.8 
L 102.896896 205.484211 
L 98.285325 210.502703 
L 98.285325 203.072727 
L 93.673755 208.8 
L 93.673755 204.6 
L 89.062185 210.972414 
L 84.450615 217.8 
L 84.450615 213.646154 
L 79.839044 221.4 
L 79.839044 217.017391 
L 75.227474 225.981818 
L 75.227474 223.8 
L 70.615904 234 
L 70.615904 196.2 
L 66.004334 215.8 
L 66.004334 199.8 
L 61.392763 229.8 
L 61.392763 145.8 
L 56.781193 271.8 
L 56.781193 19.8 
L 56.781193 19.8 
" clip-path="url(#peb9a5324b6)" style="fill: none; stroke: #7f7f7f; stroke-width: 2; stroke-linecap: square"/>
   </g>
   <g id="line2d_21">
    <path d="M 310.417557 271.721836 
L 310.417557 264.989189 
L 259.690284 266.321739 
L 259.690284 266.230939 
L 259.690284 266.168715 
L 208.963011 267.552809 
L 208.963011 267.455172 
L 208.963011 266.281752 
L 158.235739 268.094118 
L 158.235739 268.010526 
L 158.235739 250.8 
L 107.508466 260.843478 
L 107.508466 257.8 
L 56.781193 271.8 
L 56.781193 271.8 
L 56.781193 19.8 
L 56.781193 19.8 
" clip-path="url(#peb9a5324b6)" style="fill: none; stroke: #bcbd22; stroke-width: 2; stroke-linecap: square"/>
   </g>
   <g id="line2d_22">
    <path d="M 310.417557 253.306452 
L 310.417557 240.034843 
L 310.203156 240.054929 
L 310.203156 239.946295 
L 310.203156 239.472672 
L 309.988755 239.493009 
L 309.988755 239.383923 
L 309.988755 237.024118 
L 309.774354 237.049503 
L 309.774354 236.939508 
L 309.774354 231.8591 
L 309.559953 231.887587 
L 309.559953 231.780065 
L 309.559953 225.893325 
L 309.345552 225.925174 
L 309.345552 225.818587 
L 309.345552 225.668531 
L 309.131151 225.700528 
L 309.131151 225.592803 
L 309.131151 201.977966 
L 308.91675 202.020862 
L 308.91675 201.922141 
L 308.91675 199.589474 
L 308.702349 199.633293 
L 308.702349 199.527606 
L 308.702349 191.052795 
L 308.487948 191.099509 
L 308.487948 190.989293 
L 308.487948 185.218788 
L 308.273547 185.267213 
L 308.273547 185.165768 
L 308.273547 164.427679 
L 308.059146 164.480233 
L 308.059146 164.402182 
L 308.059146 158.987166 
L 307.844745 159.040352 
L 307.844745 158.954111 
L 307.844745 158.128197 
L 307.630344 158.181503 
L 307.630344 158.137702 
L 307.630344 157.076265 
L 307.415943 157.1297 
L 307.415943 157.040358 
L 307.415943 156.546479 
L 307.201542 156.6 
L 307.201542 156.509753 
L 307.201542 156.010858 
L 306.987141 156.064463 
L 306.987141 155.973297 
L 306.987141 155.423269 
L 306.77274 155.47696 
L 306.77274 155.384786 
L 306.77274 154.031663 
L 306.558339 154.085485 
L 306.558339 153.991011 
L 306.558339 153.706677 
L 306.343938 153.760563 
L 306.343938 153.665485 
L 306.343938 150.740157 
L 306.129537 150.79422 
L 306.129537 150.694215 
L 306.129537 143.031986 
L 305.915136 143.086154 
L 305.915136 142.972899 
L 305.915136 142.802643 
L 305.700735 142.856853 
L 305.700735 142.743097 
L 305.700735 141.998758 
L 305.486334 142.052996 
L 305.486334 141.995382 
L 305.486334 137.953846 
L 305.271933 138.007971 
L 305.271933 137.946654 
L 305.271933 137.082288 
L 304.62873 137.182625 
L 304.62873 133.540864 
L 304.199928 133.648931 
L 304.199928 133.58327 
L 304.199928 132.989499 
L 303.771126 133.097659 
L 303.771126 133.031358 
L 303.771126 132.565468 
L 303.556725 132.619578 
L 303.556725 132.55276 
L 303.556725 131.881042 
L 303.342324 131.935135 
L 303.342324 131.8676 
L 303.342324 130.915216 
L 303.127923 130.969261 
L 303.127923 130.90073 
L 303.127923 130.488141 
L 302.913522 130.542187 
L 302.913522 130.47318 
L 302.913522 130.12713 
L 302.699121 130.181186 
L 302.699121 130.111765 
L 302.699121 129.623906 
L 302.48472 129.677953 
L 302.48472 129.607976 
L 302.48472 126.824096 
L 302.055918 126.931658 
L 302.055918 126.858824 
L 302.055918 126.346922 
L 301.841517 126.400707 
L 301.841517 126.327273 
L 301.841517 126.106525 
L 301.627116 126.160324 
L 301.627116 126.086582 
L 301.627116 125.568293 
L 300.983914 125.655397 
L 300.983914 123.847423 
L 300.769513 123.901083 
L 300.769513 123.824768 
L 300.769513 123.595349 
L 300.340711 123.626087 
L 300.340711 123.472539 
L 300.12631 123.526283 
L 300.12631 123.449378 
L 300.12631 123.295327 
L 299.911909 123.349091 
L 299.911909 123.271933 
L 299.911909 122.807299 
L 299.483107 122.914823 
L 299.483107 122.837076 
L 299.483107 122.290566 
L 299.268706 122.34431 
L 299.268706 122.265897 
L 299.268706 121.872593 
L 299.054305 121.926316 
L 299.054305 121.847393 
L 299.054305 121.689299 
L 298.839904 121.743038 
L 298.839904 121.663852 
L 298.839904 121.346272 
L 298.625503 121.4 
L 298.625503 121.320381 
L 298.625503 120.76068 
L 298.411102 120.814354 
L 298.411102 120.734043 
L 298.411102 120.007376 
L 298.196701 120.060963 
L 298.196701 119.979775 
L 298.196701 118.254545 
L 297.767899 118.361213 
L 297.767899 118.278049 
L 297.767899 117.609472 
L 297.339097 117.716076 
L 297.339097 117.632061 
L 297.339097 117.547954 
L 297.124696 117.60131 
L 297.124696 117.517094 
L 297.124696 116.499285 
L 296.910295 116.552475 
L 296.910295 116.467034 
L 296.910295 115.7801 
L 296.695894 115.833186 
L 296.695894 115.746873 
L 296.695894 115.573961 
L 296.481493 115.627051 
L 296.481493 115.540433 
L 296.481493 114.844011 
L 296.267092 114.89699 
L 296.267092 114.809481 
L 296.267092 114.282373 
L 296.052691 114.335274 
L 296.052691 114.247059 
L 296.052691 114.158744 
L 295.623889 114.176193 
L 295.623889 113.821384 
L 295.195087 113.927324 
L 295.195087 113.838331 
L 295.195087 113.212564 
L 294.766285 113.318414 
L 294.766285 113.228571 
L 294.766285 112.142466 
L 294.551884 112.195203 
L 294.551884 112.104 
L 294.551884 112.012693 
L 294.337483 112.065446 
L 294.337483 111.974013 
L 294.337483 111.51527 
L 294.123082 111.567949 
L 294.123082 111.475862 
L 294.123082 110.921107 
L 293.908681 110.973687 
L 293.908681 110.880831 
L 293.908681 110.040279 
L 293.265478 110.197674 
L 293.265478 110.103665 
L 293.265478 109.820979 
L 292.836676 109.926021 
L 292.836676 109.831524 
L 292.836676 109.547368 
L 292.407874 109.557469 
L 292.407874 108.793526 
L 291.979072 108.898409 
L 291.979072 108.802358 
L 291.979072 108.513526 
L 291.335869 108.574423 
L 291.335869 108.089786 
L 290.907067 108.194768 
L 290.907067 108.097442 
L 290.907067 107.609069 
L 290.692666 107.661493 
L 290.692666 107.563441 
L 290.692666 107.268582 
L 290.478265 107.320958 
L 290.478265 107.222409 
L 290.478265 107.123741 
L 290.263864 107.176125 
L 290.263864 107.077311 
L 290.263864 106.481928 
L 289.620661 106.53913 
L 289.620661 106.038643 
L 288.763057 106.147509 
L 288.763057 106.046809 
L 288.548656 106.09927 
L 288.548656 105.998418 
L 288.548656 105.796344 
L 287.691053 105.905134 
L 287.691053 105.80367 
L 287.476652 105.856304 
L 287.476652 105.754685 
L 287.476652 105.551073 
L 286.404647 105.712615 
L 286.404647 105.507948 
L 285.975845 105.613695 
L 285.975845 105.511111 
L 285.975845 105.4084 
L 284.475038 105.677095 
L 284.475038 105.573913 
L 284.046236 105.577225 
L 284.046236 105.266334 
L 283.403033 105.3225 
L 283.403033 105.009768 
L 283.188632 105.063158 
L 283.188632 104.958621 
L 283.188632 104.749153 
L 282.75983 104.85594 
L 282.75983 104.750943 
L 282.75983 104.435161 
L 282.331028 104.541956 
L 282.331028 104.436364 
L 282.331028 103.906396 
L 282.116627 103.959696 
L 282.116627 103.853266 
L 282.116627 103.64 
L 281.473424 103.8 
L 281.473424 103.693062 
L 281.473424 103.156322 
L 281.259023 103.209585 
L 281.259023 103.10179 
L 281.259023 102.993858 
L 279.543815 103.313514 
L 279.543815 103.096392 
L 279.115013 103.203871 
L 279.115013 103.095029 
L 279.115013 102.767658 
L 278.47181 102.819455 
L 278.47181 102.709799 
L 277.614206 102.815625 
L 277.614206 102.705537 
L 276.971003 102.867885 
L 276.971003 102.757544 
L 276.971003 102.536429 
L 275.898998 102.696914 
L 275.898998 102.363158 
L 275.684597 102.417512 
L 275.684597 102.305929 
L 275.684597 102.194199 
L 275.255796 102.30297 
L 275.255796 102.191017 
L 275.255796 101.966667 
L 275.041395 102.021046 
L 275.041395 101.908609 
L 275.041395 101.683289 
L 274.826994 101.737624 
L 274.826994 101.624701 
L 274.826994 101.511628 
L 274.612593 101.565957 
L 274.612593 101.452695 
L 274.612593 101.339281 
L 274.398192 101.393604 
L 274.398192 101.28 
L 274.398192 101.052336 
L 273.96939 101.160963 
L 273.96939 101.046823 
L 273.96939 100.818084 
L 273.326187 100.866488 
L 273.326187 100.751613 
L 273.111786 100.806052 
L 273.111786 100.690983 
L 272.682984 100.8 
L 272.682984 100.684693 
L 271.82538 100.903448 
L 271.82538 100.323745 
L 271.610979 100.378411 
L 271.610979 100.145343 
L 270.967776 100.309537 
L 270.967776 100.192638 
L 270.753375 100.247476 
L 270.753375 100.130375 
L 270.324573 100.240191 
L 270.324573 99.533699 
L 270.110172 99.588462 
L 270.110172 98.39751 
L 269.895771 98.451903 
L 269.895771 98.331856 
L 269.68137 98.386279 
L 269.68137 98.266019 
L 268.609365 98.53904 
L 268.609365 98.418384 
L 268.394964 98.473171 
L 268.394964 98.110056 
L 267.966162 98.21958 
L 267.966162 97.610526 
L 267.751761 97.665169 
L 267.751761 97.297537 
L 267.53736 97.352113 
L 267.53736 97.229175 
L 267.108558 97.338462 
L 267.108558 97.215254 
L 266.465355 97.379618 
L 266.465355 97.256091 
L 266.250954 97.310985 
L 266.250954 97.063307 
L 266.036553 97.118182 
L 266.036553 96.99403 
L 265.822152 97.048933 
L 265.822152 96.675267 
L 264.750147 96.950215 
L 264.750147 96.699713 
L 264.535746 96.754839 
L 264.535746 96.503518 
L 263.463741 96.779827 
L 263.463741 96.653641 
L 262.391736 96.931693 
L 262.391736 96.424093 
L 261.748534 96.591273 
L 261.748534 96.463755 
L 261.319732 96.57551 
L 261.319732 96.191527 
L 261.105331 96.247368 
L 261.105331 96.118947 
L 260.247727 96.34292 
L 260.247727 96.214097 
L 260.033326 96.270242 
L 260.033326 96.141176 
L 258.532519 96.536142 
L 258.532519 96.406509 
L 258.103717 96.52 
L 258.103717 96.390067 
L 257.889316 96.446884 
L 257.889316 96.316704 
L 257.674915 96.373551 
L 257.674915 96.243123 
L 256.388509 96.585661 
L 256.388509 96.454709 
L 255.959707 96.569461 
L 255.959707 96.438202 
L 255.102103 96.66852 
L 254.887702 96.594582 
L 254.244499 96.768326 
L 254.244499 96.636226 
L 252.958093 96.985747 
L 252.958093 96.720273 
L 252.529291 96.837262 
L 252.529291 96.70411 
L 252.31489 96.762681 
L 252.31489 96.629268 
L 251.457286 96.86422 
L 251.457286 96.327607 
L 251.028484 96.445161 
L 251.028484 96.175385 
L 250.814083 96.23418 
L 250.814083 95.41949 
L 250.599682 95.478019 
L 250.599682 95.341441 
L 250.385281 95.4 
L 249.956479 95.38042 
L 249.956479 95.105837 
L 249.098875 95.340984 
L 249.098875 95.203125 
L 248.884475 95.26208 
L 248.884475 94.708235 
L 248.670074 94.767033 
L 248.670074 94.209449 
L 248.455673 94.268085 
L 248.455673 94.128076 
L 248.026871 94.245498 
L 248.026871 94.105138 
L 247.81247 94.163924 
L 247.81247 93.6 
L 247.598069 93.658618 
L 247.598069 93.517011 
L 247.383668 93.575656 
L 247.383668 93.433758 
L 246.526064 93.66901 
L 246.526064 93.526619 
L 246.311663 93.5856 
L 246.311663 93.3 
L 245.025257 93.655072 
L 245.025257 93.511523 
L 244.810856 93.570968 
L 244.810856 93.427119 
L 244.596455 93.486591 
L 244.596455 93.198058 
L 243.52445 93.496182 
L 243.52445 93.35122 
L 243.310049 93.411066 
L 243.310049 93.265798 
L 243.095648 93.325672 
L 243.095648 93.180098 
L 242.023643 93.48059 
L 242.023643 92.747368 
L 241.809242 92.807407 
L 241.809242 92.659967 
L 241.166039 92.840462 
L 241.166039 92.692562 
L 239.23643 93.238801 
L 239.23643 93.09 
L 239.022029 93.151126 
L 239.022029 93.002003 
L 238.807628 93.063158 
L 238.807628 92.913712 
L 237.735623 93.220655 
L 237.735623 93.070588 
L 237.09242 93.255771 
L 237.09242 92.500508 
L 236.020415 92.809346 
L 236.020415 92.657143 
L 235.806015 92.719149 
L 235.806015 92.56661 
L 235.377213 92.690785 
L 235.162812 92.6 
L 235.162812 92.446707 
L 234.519609 92.633619 
L 234.519609 92.171453 
L 233.447604 92.483938 
L 233.447604 92.173702 
L 233.018802 92.299133 
L 233.018802 92.143452 
L 231.946797 92.458537 
L 231.946797 92.14555 
L 231.732396 92.208734 
L 231.732396 92.051748 
L 231.303594 92.178284 
L 231.303594 91.863158 
L 231.089193 91.926427 
L 231.089193 91.768366 
L 230.874792 91.831662 
L 230.874792 91.673239 
L 230.017188 91.927208 
L 230.017188 91.76817 
L 229.802787 91.831858 
L 229.802787 91.672453 
L 229.373985 91.8 
L 229.373985 91.640142 
L 228.945183 91.447059 
L 228.730782 91.510972 
L 228.730782 91.35 
L 228.087579 91.542167 
L 228.087579 91.218834 
L 227.873178 91.120755 
L 227.658777 91.184892 
L 227.658777 90.859459 
L 227.444376 90.923535 
L 227.444376 90.596748 
L 227.015574 90.724887 
L 227.015574 90.56087 
L 226.372371 90.753678 
L 226.372371 90.589091 
L 225.729168 90.78268 
L 225.729168 90.617518 
L 225.514767 90.682192 
L 225.514767 90.350778 
L 224.871564 90.544954 
L 224.871564 90.378512 
L 224.657163 90.443382 
L 224.657163 90.276541 
L 224.442762 90.341436 
L 224.442762 90.174194 
L 224.228361 90.239114 
L 224.228361 90.071468 
L 224.01396 89.968363 
L 223.799559 90.033333 
L 223.799559 89.864875 
L 223.585158 89.761003 
L 223.370757 89.826022 
L 223.370757 89.487151 
L 223.156356 89.552097 
L 223.156356 89.38209 
L 222.513154 89.577362 
L 222.513154 89.406742 
L 222.084352 89.537336 
L 222.084352 89.022954 
L 219.51154 89.813321 
L 219.51154 89.64 
L 218.868337 89.840115 
L 218.868337 89.666157 
L 218.653936 89.733014 
L 218.653936 89.558621 
L 217.153129 90.029508 
L 217.153129 89.854054 
L 216.724327 89.989555 
L 216.724327 89.813553 
L 216.509926 89.881395 
L 216.295525 89.772816 
L 216.081124 89.840816 
L 216.081124 89.663813 
L 215.866723 89.73184 
L 215.866723 89.376585 
L 215.652322 89.444531 
L 215.652322 89.266276 
L 215.009119 89.470588 
L 215.009119 89.291658 
L 214.794718 89.359921 
L 214.794718 88.82069 
L 213.508312 89.23112 
L 213.508312 89.05 
L 213.293911 89.118769 
L 213.293911 88.572908 
L 213.07951 88.641476 
L 213.07951 88.458683 
L 212.865109 88.527273 
L 212.865109 88.344 
L 211.578703 88.757746 
L 211.578703 88.203633 
L 210.9355 88.411336 
L 210.9355 88.225532 
L 209.649095 88.644037 
L 209.649095 88.082209 
L 209.434694 88.152098 
L 209.434694 87.963934 
L 209.220293 88.033846 
L 209.220293 87.845175 
L 208.57709 88.055407 
L 208.57709 87.865979 
L 208.362689 87.936223 
L 208.362689 87.746281 
L 207.719486 87.957513 
L 207.719486 87.766805 
L 206.004278 88.335565 
L 206.004278 88.143455 
L 205.789877 88.215094 
L 205.789877 88.022455 
L 205.361075 88.165931 
L 205.146674 88.044468 
L 205.146674 87.850633 
L 203.860268 88.284076 
L 203.860268 87.501493 
L 203.431466 87.646154 
L 203.431466 87.25182 
L 203.217065 87.324116 
L 203.217065 87.12618 
L 203.002664 87 
L 202.788263 87.072336 
L 202.788263 86.873276 
L 202.573862 86.945631 
L 202.573862 86.345455 
L 201.501857 86.707508 
L 201.501857 86.505882 
L 200.00105 87.018441 
L 200.00105 86.815385 
L 199.357847 86.833113 
L 198.929045 86.981416 
L 198.929045 86.776744 
L 198.714644 86.850998 
L 198.714644 86.645727 
L 198.500243 86.72 
L 198.285842 86.588419 
L 198.071441 86.662876 
L 198.071441 85.833595 
L 197.85704 85.907623 
L 197.85704 85.489888 
L 197.642639 85.56378 
L 197.642639 85.143856 
L 196.999436 85.365611 
L 196.999436 84.518182 
L 196.785035 84.591809 
L 196.785035 84.378588 
L 196.570635 84.238356 
L 196.570635 84.024 
L 195.927432 84.244954 
L 195.927432 84.029621 
L 195.069828 84.325952 
L 195.069828 84.109469 
L 193.783422 84.55814 
L 193.783422 84.340163 
L 193.35462 84.490782 
L 193.35462 84.271963 
L 191.425011 84.957025 
L 191.425011 84.514793 
L 190.781808 84.745368 
L 190.781808 84.522949 
L 190.567407 84.6 
L 190.567407 84.376877 
L 190.138605 84.531183 
L 190.138605 84.307177 
L 189.924204 84.384431 
L 189.924204 84.159712 
L 187.780194 84.940777 
L 187.565793 84.792701 
L 187.565793 84.336585 
L 187.351392 84.415385 
L 187.351392 84.186308 
L 187.136991 84.265116 
L 187.136991 83.573956 
L 185.421783 84.206948 
L 185.207382 84.053731 
L 185.207382 83.819925 
L 184.992981 83.899751 
L 184.992981 83.665169 
L 184.77858 83.745 
L 184.77858 83.509637 
L 184.564179 83.589474 
L 184.564179 83.353325 
L 184.135377 83.513208 
L 184.135377 83.038335 
L 183.063373 83.439594 
L 183.063373 82.960305 
L 182.848972 83.040764 
L 182.848972 82.8 
L 182.42017 82.961125 
L 182.42017 82.719334 
L 181.991368 82.880873 
L 181.991368 82.394595 
L 181.562566 82.556129 
L 181.562566 82.311628 
L 181.133764 82.473575 
L 180.919363 82.309091 
L 180.919363 82.062679 
L 180.704962 82.14375 
L 180.704962 81.89648 
L 180.490561 81.977546 
L 180.27616 81.561468 
L 180.061759 81.64252 
L 180.061759 81.392641 
L 179.847358 81.473684 
L 179.847358 81.222925 
L 179.204155 81.466667 
L 179.204155 81.21457 
L 178.346551 81.541678 
L 178.346551 81.033645 
L 178.13215 81.115508 
L 178.13215 80.860241 
L 177.703348 81.024161 
L 177.703348 80.510633 
L 176.845744 80.839242 
L 176.845744 80.580488 
L 176.631343 80.662958 
L 176.631343 80.403261 
L 176.416942 80.485714 
L 176.416942 80.225068 
L 175.98814 80.390164 
L 175.773739 80.210959 
L 175.344937 80.376923 
L 175.344937 80.113618 
L 175.130536 79.932414 
L 174.487333 80.182271 
L 174.487333 79.382754 
L 174.272932 79.465738 
L 174.272932 78.928492 
L 174.058531 79.011189 
L 174.058531 78.470407 
L 173.200927 78.80141 
L 173.200927 78.528814 
L 172.986526 78.611881 
L 172.986526 78.338244 
L 172.772125 78.421277 
L 172.772125 77.871124 
L 172.343323 78.036805 
L 172.343323 77.76 
L 170.842516 78.345455 
L 170.842516 78.065896 
L 170.413715 78.234783 
L 170.413715 77.953846 
L 170.199314 78.038372 
L 170.199314 77.756332 
L 169.984913 77.840816 
L 169.984913 77.273684 
L 169.770512 77.357833 
L 169.770512 77.072727 
L 169.34171 77.241176 
L 169.34171 76.954639 
L 168.912908 77.123486 
L 168.912908 76.835503 
L 168.484106 77.004748 
L 168.484106 76.715305 
L 167.840903 76.970149 
L 167.840903 76.386826 
L 167.626502 76.178378 
L 167.626502 75.884211 
L 167.412101 75.968675 
L 167.412101 75.377039 
L 167.1977 75.46112 
L 167.1977 75.163636 
L 166.983299 75.247648 
L 166.983299 74.948936 
L 166.125695 75.286239 
L 166.125695 74.985299 
L 165.911294 75.069939 
L 165.911294 74.767742 
L 165.482492 74.937134 
L 165.482492 74.633333 
L 163.552883 75.405634 
L 163.552883 74.789011 
L 163.124081 74.962205 
L 163.124081 74.651735 
L 162.480878 74.91252 
L 162.480878 74.286486 
L 161.194472 74.811236 
L 161.194472 74.494534 
L 160.980071 74.582609 
L 160.980071 74.264516 
L 160.76567 74.352504 
L 160.76567 74.03301 
L 159.908066 74.386319 
L 159.908066 74.064274 
L 158.836061 74.510526 
L 158.836061 74.185502 
L 158.62166 73.94876 
L 158.62166 73.621192 
L 157.335255 74.161204 
L 157.335255 73.830151 
L 156.692052 74.10303 
L 156.692052 73.435135 
L 156.477651 73.525888 
L 156.477651 73.189831 
L 156.26325 73.280475 
L 156.26325 72.942857 
L 152.189631 74.717399 
L 152.189631 73.322124 
L 151.117626 73.8 
L 151.117626 72.733573 
L 150.474423 73.020217 
L 150.474423 71.937931 
L 148.759215 72.706077 
L 148.759215 72.338745 
L 148.544814 72.43586 
L 148.544814 72.066667 
L 148.330413 72.163636 
L 148.330413 71.420112 
L 147.68721 71.710112 
L 147.68721 71.334709 
L 147.472809 71.431579 
L 147.472809 70.675472 
L 147.258408 70.771645 
L 147.258408 70.008729 
L 146.400804 70.392734 
L 146.400804 70.006897 
L 145.5432 70.394595 
L 145.5432 69.613953 
L 145.114398 69.807782 
L 145.114398 69.414035 
L 144.899997 69.510937 
L 144.899997 69.115068 
L 144.471195 69.308841 
L 144.471195 68.510059 
L 144.042394 68.70297 
L 144.042394 67.489243 
L 143.399191 67.775952 
L 143.399191 67.366265 
L 142.970389 67.558065 
L 142.970389 66.731174 
L 142.541587 66.921951 
L 142.541587 66.504684 
L 141.683983 66.888296 
L 141.683983 64.762656 
L 141.469582 64.856133 
L 141.469582 64.425 
L 140.826379 64.70566 
L 140.826379 63.833684 
L 140.397577 64.019873 
L 140.397577 63.579661 
L 135.895156 65.618182 
L 135.895156 65.16 
L 135.251953 65.46443 
L 135.251953 65.001794 
L 134.823151 65.205405 
L 134.823151 64.739052 
L 133.536745 65.356064 
L 133.536745 64.882569 
L 133.107943 65.090323 
L 133.107943 64.612933 
L 132.250339 65.030769 
L 132.250339 64.547664 
L 131.607136 64.863529 
L 131.607136 63.885106 
L 131.178335 64.094537 
L 131.178335 63.6 
L 130.10633 64.127711 
L 130.10633 63.122034 
L 128.176721 64.087129 
L 128.176721 63.053731 
L 127.747919 63.27 
L 127.747919 62.747368 
L 127.533518 62.855276 
L 127.533518 61.8 
L 126.675914 62.228571 
L 126.675914 61.692583 
L 125.81831 62.125581 
L 125.81831 61.582383 
L 124.746305 62.130709 
L 124.746305 61.578947 
L 123.459899 62.249198 
L 123.459899 61.687399 
L 122.173493 62.372207 
L 122.173493 61.8 
L 121.101488 62.381717 
L 121.101488 61.8 
L 120.672686 62.034637 
L 120.672686 61.447059 
L 120.029483 61.8 
L 120.029483 61.205099 
L 119.815082 61.322727 
L 119.815082 60.723077 
L 119.600681 60.84 
L 119.600681 60.23553 
L 118.957478 60.586127 
L 118.957478 59.973913 
L 118.314275 60.326316 
L 118.314275 59.706158 
L 118.099875 59.823529 
L 118.099875 58.569231 
L 116.384667 59.509091 
L 116.384667 58.86383 
L 115.312662 59.466667 
L 115.312662 58.809288 
L 114.88386 59.052336 
L 114.88386 58.3875 
L 114.455058 58.630189 
L 114.455058 57.957729 
L 114.026256 58.2 
L 114.026256 57.519745 
L 111.882246 58.760526 
L 111.882246 58.057426 
L 111.667845 58.184106 
L 111.667845 57.474419 
L 111.024642 57.853691 
L 111.024642 57.133333 
L 110.810241 57.259459 
L 110.810241 56.532203 
L 109.952637 57.037113 
L 109.952637 56.296552 
L 109.309434 56.678049 
L 109.309434 55.925874 
L 108.880632 56.180282 
L 108.880632 55.418375 
L 108.237429 55.8 
L 108.237429 55.025806 
L 108.023028 55.152518 
L 108.023028 54.370397 
L 107.808627 54.495652 
L 107.808627 53.705455 
L 107.594226 53.829197 
L 107.594226 52.226471 
L 107.165424 52.466667 
L 107.165424 50.829851 
L 106.951023 50.946067 
L 106.951023 50.115789 
L 106.736622 50.230189 
L 106.736622 49.390909 
L 106.093419 49.731034 
L 106.093419 48.876923 
L 103.94941 50.04 
L 103.94941 49.149398 
L 103.091806 49.628571 
L 103.091806 48.718033 
L 100.733395 50.083262 
L 100.733395 49.127586 
L 100.090192 49.51179 
L 100.090192 48.536842 
L 99.232588 49.05 
L 99.232588 48.051121 
L 97.946182 48.832258 
L 97.946182 46.75814 
L 97.302979 47.139623 
L 97.302979 46.074882 
L 94.301365 47.942132 
L 92.157355 49.447059 
L 92.157355 48.251613 
L 91.728554 48.56087 
L 91.728554 47.340984 
L 91.085351 47.8 
L 91.085351 46.548603 
L 90.87095 46.698876 
L 90.87095 44.140909 
L 88.941341 45.452695 
L 88.941341 44.089157 
L 88.083737 44.688889 
L 88.083737 43.278261 
L 86.58293 44.345455 
L 86.58293 42.858824 
L 84.867722 44.131034 
L 84.867722 42.55 
L 83.795717 43.368345 
L 83.795717 41.713043 
L 82.938113 42.367164 
L 82.938113 40.642105 
L 82.509311 40.960305 
L 82.509311 39.184615 
L 81.651707 39.8 
L 81.651707 37.944 
L 79.507697 39.521739 
L 79.507697 37.484211 
L 78.650094 38.127273 
L 78.650094 35.983486 
L 77.79249 36.6 
L 77.79249 34.338462 
L 76.934886 34.92 
L 76.934886 32.527273 
L 75.64848 33.348387 
L 75.64848 28.107692 
L 73.50447 29.133333 
L 72.861267 29.492308 
L 72.861267 26.345455 
L 70.717257 27.322388 
L 69.002049 28.342373 
L 67.501242 29.492308 
L 66.214836 30.756522 
L 65.571634 31.52093 
L 65.571634 25.8 
L 64.285228 26.8 
L 63.213223 27.929032 
L 63.213223 19.8 
L 56.781193 19.8 
L 56.781193 19.8 
" clip-path="url(#peb9a5324b6)" style="fill: none; stroke: #17becf; stroke-width: 2; stroke-linecap: square"/>
   </g>
   <g id="patch_3">
    <path d="M 44.099375 284.4 
L 44.099375 7.2 
" style="fill: none; stroke: #000000; stroke-width: 0.8; stroke-linejoin: miter; stroke-linecap: square"/>
   </g>
   <g id="patch_4">
    <path d="M 323.099375 284.4 
L 323.099375 7.2 
" style="fill: none; stroke: #000000; stroke-width: 0.8; stroke-linejoin: miter; stroke-linecap: square"/>
   </g>
   <g id="patch_5">
    <path d="M 44.099375 284.4 
L 323.099375 284.4 
" style="fill: none; stroke: #000000; stroke-width: 0.8; stroke-linejoin: miter; stroke-linecap: square"/>
   </g>
   <g id="patch_6">
    <path d="M 44.099375 7.2 
L 323.099375 7.2 
" style="fill: none; stroke: #000000; stroke-width: 0.8; stroke-linejoin: miter; stroke-linecap: square"/>
   </g>
   <g id="legend_1">
    <g id="patch_7">
     <path d="M 52.499375 278.4 
L 288.06125 278.4 
Q 290.46125 278.4 290.46125 276 
L 290.46125 107.39625 
Q 290.46125 104.99625 288.06125 104.99625 
L 52.499375 104.99625 
Q 50.099375 104.99625 50.099375 107.39625 
L 50.099375 276 
Q 50.099375 278.4 52.499375 278.4 
z
" style="fill: #ffffff; opacity: 0.8; stroke: #cccccc; stroke-linejoin: miter"/>
    </g>
    <g id="line2d_23">
     <path d="M 54.899375 113.99625 
L 66.899375 113.99625 
L 78.899375 113.99625 
" style="fill: none; stroke: #1f77b4; stroke-width: 2; stroke-linecap: square"/>
    </g>
    <g id="text_15">
     <text style="font: 12px 'Times New Roman'; text-anchor: start" x="88.499375" y="118.19625" transform="rotate(-0 88.499375 118.19625)">Internal Medicine (AP=0.9621, N=5525)</text>
    </g>
    <g id="line2d_24">
     <path d="M 54.899375 130.963125 
L 66.899375 130.963125 
L 78.899375 130.963125 
" style="fill: none; stroke: #ff7f0e; stroke-width: 2; stroke-linecap: square"/>
    </g>
    <g id="text_16">
     <text style="font: 12px 'Times New Roman'; text-anchor: start" x="88.499375" y="135.163125" transform="rotate(-0 88.499375 135.163125)">Obstetrics (AP=0.9900, N=540)</text>
    </g>
    <g id="line2d_25">
     <path d="M 54.899375 147.93 
L 66.899375 147.93 
L 78.899375 147.93 
" style="fill: none; stroke: #2ca02c; stroke-width: 2; stroke-linecap: square"/>
    </g>
    <g id="text_17">
     <text style="font: 12px 'Times New Roman'; text-anchor: start" x="88.499375" y="152.13" transform="rotate(-0 88.499375 152.13)">Surgery (AP=0.9909, N=7743)</text>
    </g>
    <g id="line2d_26">
     <path d="M 54.899375 164.919375 
L 66.899375 164.919375 
L 78.899375 164.919375 
" style="fill: none; stroke: #d62728; stroke-width: 2; stroke-linecap: square"/>
    </g>
    <g id="text_18">
     <text style="font: 12px 'Times New Roman'; text-anchor: start" x="88.499375" y="169.119375" transform="rotate(-0 88.499375 169.119375)">Ophthalmology (AP=0.9882, N=263)</text>
    </g>
    <g id="line2d_27">
     <path d="M 54.899375 181.90875 
L 66.899375 181.90875 
L 78.899375 181.90875 
" style="fill: none; stroke: #9467bd; stroke-width: 2; stroke-linecap: square"/>
    </g>
    <g id="text_19">
     <text style="font: 12px 'Times New Roman'; text-anchor: start" x="88.499375" y="186.10875" transform="rotate(-0 88.499375 186.10875)">Gynecology (AP=0.7535, N=226)</text>
    </g>
    <g id="line2d_28">
     <path d="M 54.899375 198.898125 
L 66.899375 198.898125 
L 78.899375 198.898125 
" style="fill: none; stroke: #8c564b; stroke-width: 2; stroke-linecap: square"/>
    </g>
    <g id="text_20">
     <text style="font: 12px 'Times New Roman'; text-anchor: start" x="88.499375" y="203.098125" transform="rotate(-0 88.499375 203.098125)">Otolaryngology (AP=0.9476, N=573)</text>
    </g>
    <g id="line2d_29">
     <path d="M 54.899375 215.8875 
L 66.899375 215.8875 
L 78.899375 215.8875 
" style="fill: none; stroke: #e377c2; stroke-width: 2; stroke-linecap: square"/>
    </g>
    <g id="text_21">
     <text style="font: 12px 'Times New Roman'; text-anchor: start" x="88.499375" y="220.0875" transform="rotate(-0 88.499375 220.0875)">Neurosurgery (AP=0.0035, N=7)</text>
    </g>
    <g id="line2d_30">
     <path d="M 54.899375 232.876875 
L 66.899375 232.876875 
L 78.899375 232.876875 
" style="fill: none; stroke: #7f7f7f; stroke-width: 2; stroke-linecap: square"/>
    </g>
    <g id="text_22">
     <text style="font: 12px 'Times New Roman'; text-anchor: start" x="88.499375" y="237.076875" transform="rotate(-0 88.499375 237.076875)">Orthopedics (AP=0.1328, N=55)</text>
    </g>
    <g id="line2d_31">
     <path d="M 54.899375 249.84375 
L 66.899375 249.84375 
L 78.899375 249.84375 
" style="fill: none; stroke: #bcbd22; stroke-width: 2; stroke-linecap: square"/>
    </g>
    <g id="text_23">
     <text style="font: 12px 'Times New Roman'; text-anchor: start" x="88.499375" y="254.04375" transform="rotate(-0 88.499375 254.04375)">Trauma Center (AP=0.0420, N=5)</text>
    </g>
    <g id="line2d_32">
     <path d="M 54.899375 266.810625 
L 66.899375 266.810625 
L 78.899375 266.810625 
" style="fill: none; stroke: #17becf; stroke-width: 2; stroke-linecap: square"/>
    </g>
    <g id="text_24">
     <text style="font: 12px 'Times New Roman'; text-anchor: start" x="88.499375" y="271.010625" transform="rotate(-0 88.499375 271.010625)">Neurology (AP=0.7684, N=1183)</text>
    </g>
   </g>
  </g>
 </g>
 <defs>
  <clipPath id="peb9a5324b6">
   <rect x="44.099375" y="7.2" width="279" height="277.2"/>
  </clipPath>
 </defs>
</svg>
